<svg height="512" viewBox="0 0 128 128" width="512" xmlns="http://www.w3.org/2000/svg"><g id="icon"><rect fill="#e1e6e9" height="126" rx="9.464" width="95.59" x="19.008" y="1"/><path d="m105.134 128h-76.662a10.476 10.476 0 0 1 -10.464-10.464v-107.072a10.476 10.476 0 0 1 10.464-10.464h76.662a10.476 10.476 0 0 1 10.466 10.464v107.072a10.476 10.476 0 0 1 -10.466 10.464zm-76.662-126a8.474 8.474 0 0 0 -8.464 8.464v107.072a8.474 8.474 0 0 0 8.464 8.464h76.662a8.474 8.474 0 0 0 8.464-8.464v-107.072a8.474 8.474 0 0 0 -8.464-8.464z" fill="#2f3a5a"/><rect fill="#e68e8b" height="126" rx="9.464" width="95.59" x="13.402" y="1"/><path d="m22.428 1.022a9.456 9.456 0 0 0 -9.028 9.442v107.072a9.457 9.457 0 0 0 9.026 9.442z" fill="#d87674"/><path d="m99.528 128h-76.662a10.476 10.476 0 0 1 -10.466-10.464v-107.072a10.476 10.476 0 0 1 10.466-10.464h76.662a10.476 10.476 0 0 1 10.464 10.464v107.072a10.476 10.476 0 0 1 -10.464 10.464zm-76.662-126a8.474 8.474 0 0 0 -8.466 8.464v107.072a8.474 8.474 0 0 0 8.466 8.464h76.662a8.474 8.474 0 0 0 8.464-8.464v-107.072a8.474 8.474 0 0 0 -8.464-8.464z" fill="#2f3a5a"/><g fill="#fff"><path d="m61.2 76.9a31.893 31.893 0 1 1 31.889-31.89 31.929 31.929 0 0 1 -31.889 31.89zm0-61.785a29.893 29.893 0 1 0 29.889 29.895 29.927 29.927 0 0 0 -29.889-29.892z"/><path d="m61.2 76.9c-8.862 0-15.8-14.009-15.8-31.893s6.941-31.892 15.8-31.892 15.8 14.012 15.8 31.895-6.942 31.89-15.8 31.89zm0-61.785c-7.482 0-13.8 13.689-13.8 29.892s6.315 29.893 13.8 29.893 13.8-13.686 13.8-29.89-6.321-29.892-13.8-29.892z"/><path d="m61.2 34.336c-10.164 0-19.783-2.39-25.732-6.395l1.117-1.659c5.631 3.791 14.833 6.054 24.615 6.054s18.984-2.263 24.616-6.054l1.117 1.659c-5.95 4.005-15.57 6.395-25.733 6.395z"/><path d="m85.815 63.736c-5.633-3.791-14.835-6.055-24.615-6.055s-18.983 2.263-24.615 6.055l-1.117-1.659c5.95-4 15.569-6.4 25.732-6.4s19.783 2.391 25.733 6.4z"/><path d="m92.089 46.01h-61.789a1 1 0 1 1 0-2h61.789a1 1 0 0 1 0 2z"/><path d="m33.774 91.119h54.845v2h-54.845z"/><path d="m33.774 102.695h54.845v2h-54.845z"/></g></g></svg>