<svg height="512" viewBox="0 0 128 128" width="512" xmlns="http://www.w3.org/2000/svg"><g id="icon"><rect fill="#dbe2eb" height="103.374" rx="4.815" transform="matrix(.004 -1 1 .004 -13.673 163.544)" width="45.565" x="52.463" y="36.947"/><path d="m122.032 111.6-93.75-.355a4.82 4.82 0 0 1 -4.768-4.322l96.15.364a2.707 2.707 0 0 0 2.715-2.68l.146-38.565a4.805 4.805 0 0 1 4.475 4.814l-.136 35.947a4.82 4.82 0 0 1 -4.832 4.797z" fill="#c1cdd3"/><path d="m122.048 112.594h-.022l-93.742-.355a5.821 5.821 0 0 1 -5.793-5.837l.136-35.935a5.822 5.822 0 0 1 5.815-5.793h.022l93.743.355a5.816 5.816 0 0 1 5.793 5.837l-.136 35.935a5.823 5.823 0 0 1 -5.816 5.793zm-93.607-45.92a3.815 3.815 0 0 0 -3.814 3.8l-.136 35.935a3.815 3.815 0 0 0 3.8 3.829l93.742.355h.014a3.821 3.821 0 0 0 3.816-3.8l.137-35.935a3.815 3.815 0 0 0 -3.8-3.829l-93.743-.355z" fill="#2f3a5a"/><path d="m57.954 65.786-29.494-.112a4.815 4.815 0 0 0 -4.833 4.8l-.136 35.935a4.815 4.815 0 0 0 4.8 4.833l29.494.112z" fill="#4fa4d1"/><path d="m57.864 111.355-29.5-.112a4.829 4.829 0 0 1 -4.8-4.831l.136-35.948a4.793 4.793 0 0 1 1.92-3.817l-.134 35.336a4.819 4.819 0 0 0 4.795 4.832l27.6.1z" fill="#477ea8"/><path d="m57.782 112.351-29.494-.112a5.821 5.821 0 0 1 -5.793-5.837l.136-35.935a5.822 5.822 0 0 1 5.815-5.793h.022l29.494.112a1 1 0 0 1 0 2l-29.494-.112h-.014a3.82 3.82 0 0 0 -3.815 3.8l-.136 35.935a3.819 3.819 0 0 0 3.8 3.829l29.494.112a1 1 0 0 1 0 2z" fill="#2f3a5a"/><path d="m67.476 76.134 49.717.189" fill="#bac2d3"/><path d="m117.192 77.323-49.716-.189a1 1 0 0 1 0-2l49.717.189a1 1 0 0 1 0 2z" fill="#2f3a5a"/><path d="m67.429 88.607 49.716.188" fill="#bac2d3"/><path d="m117.146 89.8-49.717-.189a1 1 0 0 1 0-2l49.716.189a1 1 0 0 1 0 2z" fill="#2f3a5a"/><path d="m67.382 101.079 49.716.188" fill="#bac2d3"/><path d="m117.1 102.267-49.717-.188a1 1 0 0 1 0-2l49.717.188a1 1 0 0 1 0 2z" fill="#2f3a5a"/><path d="m57.954 71.606a1 1 0 0 1 -1-1v-2a1 1 0 0 1 2 0v2a1 1 0 0 1 -1 1z" fill="#2f3a5a"/><path d="m57.954 103.66a1 1 0 0 1 -1-1v-4.007a1 1 0 0 1 2 0v4.007a1 1 0 0 1 -1 1zm0-8.014a1 1 0 0 1 -1-1v-4.006a1 1 0 0 1 2 0v4.006a1 1 0 0 1 -1 1zm0-8.013a1 1 0 0 1 -1-1v-4.007a1 1 0 0 1 2 0v4.007a1 1 0 0 1 -1 1zm0-8.013a1 1 0 0 1 -1-1v-4.007a1 1 0 0 1 2 0v4.007a1 1 0 0 1 -1 1z" fill="#2f3a5a"/><path d="m57.954 109.667a1 1 0 0 1 -1-1v-2a1 1 0 0 1 2 0v2a1 1 0 0 1 -1 1z" fill="#2f3a5a"/><g fill="#86be7a"><path d="m51.229 74.521h-22.069a1 1 0 1 1 0-2h22.069a1 1 0 0 1 0 2z"/><path d="m40.723 80.125h-11.563a1 1 0 1 1 0-2h11.563a1 1 0 0 1 0 2z"/><path d="m33.922 101.712a1.306 1.306 0 0 1 -.968-.353c-2.48-2.48 8.94-13.957 9.056-14.072 3.021-3.022 7.3-6.775 9.546-4.53 2.249 2.249-1.507 6.525-4.529 9.546-.104.106-9.454 9.409-13.105 9.409zm15.917-17.606c-.624 0-2.351.531-6.415 4.595-4.286 4.286-7.687 8.867-8.626 10.814 1.947-.939 6.529-4.339 10.815-8.625 5.466-5.466 4.541-6.7 4.529-6.718a.508.508 0 0 0 -.303-.066z"/><path d="m39.666 92.043a.987.987 0 0 1 -.534-.155l-8.145-5.159a1 1 0 0 1 -.172-1.552l2.027-2.027a1 1 0 0 1 1-.249l10.115 3.078a1 1 0 1 1 -.582 1.913l-9.541-2.9-.719.719 7.085 4.489a1 1 0 0 1 -.536 1.844z"/><path d="m34.26 99.391a.99.99 0 0 1 -.54-.159l-4.5-2.9a1 1 0 0 1 -.166-1.547l1.09-1.09a1 1 0 0 1 1-.25l5.032 1.527a1 1 0 0 1 -.58 1.914l-3.441-1.044 2.649 1.7a1 1 0 0 1 -.542 1.841z"/></g><rect fill="#dbe2eb" height="45.565" rx="4.815" transform="matrix(.802 -.598 .598 .802 -27.313 44.99)" width="103.374" x="2.443" y="40.865"/><path d="m105.327 53.89-75.151 56.05a4.822 4.822 0 0 1 -6.409-.59l77.074-57.485a2.706 2.706 0 0 0 .56-3.774l-23.056-30.913a4.806 4.806 0 0 1 6.471 1.16l21.491 28.815a4.82 4.82 0 0 1 -.98 6.737z" fill="#c1cdd3"/><path d="m27.307 111.886a5.808 5.808 0 0 1 -4.669-2.337l-21.484-28.805a5.822 5.822 0 0 1 1.185-8.138l75.144-56.045a5.822 5.822 0 0 1 8.139 1.185l21.483 28.805a5.822 5.822 0 0 1 -1.184 8.138l-75.145 56.046a5.787 5.787 0 0 1 -3.469 1.151zm53.645-94.48a3.785 3.785 0 0 0 -2.273.758l-75.145 56.045a3.815 3.815 0 0 0 -.776 5.34l21.483 28.8a3.814 3.814 0 0 0 5.34.777l75.145-56.045a3.82 3.82 0 0 0 .776-5.339l-21.483-28.801a3.834 3.834 0 0 0 -3.067-1.535z" fill="#2f3a5a"/><path d="m26.579 55.774-23.642 17.634a4.814 4.814 0 0 0 -.981 6.738l21.484 28.806a4.814 4.814 0 0 0 6.738.981l23.643-17.633z" fill="#a0ca8b"/><path d="m53.889 92.253-23.651 17.64a4.829 4.829 0 0 1 -6.737-.981l-21.491-28.812a4.8 4.8 0 0 1 -.76-4.2l21.127 28.326a4.819 4.819 0 0 0 6.736.981l22.124-16.507z" fill="#86be7a"/><path d="m27.312 111.89a5.95 5.95 0 0 1 -.85-.062 5.779 5.779 0 0 1 -3.824-2.279l-21.484-28.805a5.822 5.822 0 0 1 1.185-8.138l23.642-17.633a1 1 0 1 1 1.2 1.6l-23.647 17.636a3.821 3.821 0 0 0 -.776 5.34l21.483 28.8a3.819 3.819 0 0 0 5.34.777l23.642-17.626a1 1 0 1 1 1.2 1.6l-23.647 17.635a5.768 5.768 0 0 1 -3.464 1.155z" fill="#2f3a5a"/><path d="m40.408 58.325 39.854-29.724" fill="#bac2d3"/><path d="m40.409 59.325a1 1 0 0 1 -.6-1.8l39.855-29.725a1 1 0 0 1 1.195 1.6l-39.853 29.726a1 1 0 0 1 -.597.199z" fill="#2f3a5a"/><path d="m47.865 68.323 39.853-29.724" fill="#bac2d3"/><path d="m47.866 69.322a1 1 0 0 1 -.6-1.8l39.854-29.722a1 1 0 1 1 1.195 1.6l-39.852 29.724a1 1 0 0 1 -.597.198z" fill="#2f3a5a"/><path d="m55.322 78.32 39.853-29.724" fill="#bac2d3"/><path d="m55.322 79.32a1 1 0 0 1 -.6-1.8l39.855-29.726a1 1 0 1 1 1.2 1.6l-39.858 29.728a1 1 0 0 1 -.597.198z" fill="#2f3a5a"/><path d="m29.477 60.627a1 1 0 0 1 -.8-.4l-1.2-1.6a1 1 0 1 1 1.6-1.2l1.2 1.6a1 1 0 0 1 -.2 1.4.989.989 0 0 1 -.6.2z" fill="#2f3a5a"/><path d="m48.736 86.249a1 1 0 0 1 -.8-.4l-2.408-3.2a1 1 0 0 1 1.6-1.2l2.407 3.2a1 1 0 0 1 -.8 1.6zm-4.814-6.405a1 1 0 0 1 -.8-.4l-2.408-3.2a1 1 0 1 1 1.6-1.2l2.408 3.2a1 1 0 0 1 -.8 1.6zm-4.816-6.406a1 1 0 0 1 -.8-.4l-2.408-3.2a1 1 0 0 1 1.6-1.2l2.407 3.2a1 1 0 0 1 -.8 1.6zm-4.815-6.405a1 1 0 0 1 -.8-.4l-2.407-3.2a1 1 0 0 1 1.6-1.2l2.407 3.2a1 1 0 0 1 -.8 1.6z" fill="#2f3a5a"/><path d="m52.347 91.05a1 1 0 0 1 -.8-.4l-1.2-1.6a1 1 0 1 1 1.6-1.2l1.2 1.6a1 1 0 0 1 -.8 1.6z" fill="#2f3a5a"/><g fill="#86be7a"><path d="m8.211 80.259a1 1 0 0 1 -.6-1.8l17.639-13.259a1 1 0 1 1 1.2 1.6l-17.639 13.259a1 1 0 0 1 -.6.2z"/><path d="m11.579 84.739a1 1 0 0 1 -.6-1.8l9.242-6.948a1 1 0 0 1 1.2 1.6l-9.242 6.948a1 1 0 0 1 -.6.2z"/><path d="m28.129 99.243a1.184 1.184 0 0 1 -.157-.011c-3.472-.493-1.242-16.532-1.219-16.69.6-4.231 1.767-9.793 4.91-9.357 3.149.447 2.716 6.123 2.116 10.353-.022.162-2.264 15.705-5.65 15.705zm3.251-24.077c-.065 0-1.578.124-2.647 7.656-.85 6-.814 11.706-.395 13.827.992-1.921 2.611-7.392 3.461-13.392 1.085-7.65-.4-8.089-.417-8.091z"/><path d="m41.125 92.066a1.011 1.011 0 0 1 -.354-.066l-9.018-3.411a1 1 0 1 1 .707-1.871l7.85 2.969.142-1.007-8.052-5.88a1 1 0 0 1 1.18-1.615l8.538 6.235a1 1 0 0 1 .4.948l-.4 2.838a1 1 0 0 1 -.99.859z"/><path d="m17.527 88.722a1 1 0 0 1 -.99-1.14l.4-2.838a1 1 0 0 1 .649-.8l9.935-3.617a1 1 0 1 1 .684 1.879l-9.371 3.412-.144 1.006 8.367-.67a1 1 0 1 1 .16 1.993l-9.612.771c-.025.003-.051.004-.078.004z"/><path d="m34.578 99.26a.993.993 0 0 1 -.347-.062l-5.019-1.857a1 1 0 0 1 .693-1.876l2.952 1.093-2.9-2.122a1 1 0 0 1 1.18-1.616l4.252 3.107a1 1 0 0 1 .4.948l-.221 1.525a1 1 0 0 1 -.99.859z"/><path d="m21.9 97.463a1 1 0 0 1 -.99-1.14l.216-1.526a1 1 0 0 1 .648-.8l4.94-1.8a1 1 0 0 1 .686 1.879l-3.38 1.23 3.14-.23a1.009 1.009 0 0 1 1.069.924 1 1 0 0 1 -.924 1.07l-5.336.389c-.024.003-.048.004-.069.004z"/></g></g></svg>