<svg height="512" viewBox="0 0 128 128" width="512" xmlns="http://www.w3.org/2000/svg"><g id="icon"><path d="m32.91 117.148h61.431v4.09h-61.431z" fill="#84879c"/><path d="m94.341 122.239h-61.431a1 1 0 0 1 -1-1v-4.091a1 1 0 0 1 1-1h61.431a1 1 0 0 1 1 1v4.091a1 1 0 0 1 -1 1zm-60.431-2h59.431v-2.091h-59.431z" fill="#43567c"/><path d="m43.178 105.84-19.561 19.536h7.5l19.079-19.536h-7.834" fill="#84879c"/><path d="m31.117 126.376h-7.5a1 1 0 0 1 -.706-1.708l18.511-18.487a.986.986 0 0 1 -.06-.341 1 1 0 0 1 1-1h7.838a1 1 0 0 1 .716 1.7l-19.08 19.536a1 1 0 0 1 -.719.3zm-5.083-2h4.666l17.122-17.536h-4.23z" fill="#43567c"/><path d="m84.822 105.84 19.561 19.536h-7.5l-19.079-19.536h7.834" fill="#84879c"/><path d="m104.383 126.376h-7.5a1 1 0 0 1 -.715-.3l-19.08-19.536a1 1 0 0 1 .716-1.7h7.834a1 1 0 0 1 1 1 .986.986 0 0 1 -.06.341l18.511 18.487a1 1 0 0 1 -.706 1.708zm-7.078-2h4.661l-17.558-17.536h-4.23z" fill="#43567c"/><path d="m104.952 33.277c.071-6.723-.984-9.034-1.875-9.792a3.05 3.05 0 0 1 -1.134-2.265c-.176-10.21-7.9-12.28-7.9-12.28-14.226-6.44-30.043-6.316-30.043-6.316s-15.817-.124-30.039 6.316c0 0-7.728 2.07-7.9 12.28a3.05 3.05 0 0 1 -1.134 2.265c-.891.758-1.946 3.069-1.875 9.792.123 11.525 0 37.764 0 37.764h81.91s-.133-26.241-.01-37.764z" fill="#fac77c"/><path d="m104.955 72.041h-81.91a1 1 0 0 1 -1-1c0-.262.124-26.363 0-37.748-.061-5.783.667-9.238 2.228-10.565a2.058 2.058 0 0 0 .781-1.521c.1-5.628 2.415-8.919 4.341-10.688a11.571 11.571 0 0 1 4.217-2.519c14.241-6.423 29.751-6.376 30.4-6.375s16.134-.049 30.376 6.375a11.571 11.571 0 0 1 4.212 2.514c1.926 1.769 4.244 5.06 4.341 10.689a2.06 2.06 0 0 0 .782 1.521c1.56 1.326 2.288 4.781 2.227 10.564-.121 11.385 0 37.486 0 37.748a1 1 0 0 1 -1 1zm-80.906-2h79.9c-.022-4.926-.107-26.651 0-36.775.075-7.1-1.147-8.7-1.523-9.019a4.03 4.03 0 0 1 -1.486-3.01c-.16-9.288-6.88-11.254-7.166-11.333a.989.989 0 0 1 -.15-.053c-13.854-6.271-29.467-6.234-29.616-6.226-.187 0-15.784-.042-29.635 6.226a1.041 1.041 0 0 1 -.154.054c-.282.078-7 2.044-7.162 11.332a4.03 4.03 0 0 1 -1.486 3.01c-.376.32-1.6 1.916-1.523 9.019.108 10.124.023 31.849.001 36.775z" fill="#43567c"/><path d="m64 71.041h-40.955v10.34a2.429 2.429 0 0 0 .567 1.559l1.234 1.47a2.429 2.429 0 0 1 .567 1.559v4.69a2.445 2.445 0 0 0 2.45 2.425 2.427 2.427 0 0 1 2.379 2.1l1.234 9.2a4.863 4.863 0 0 0 4.455 4.2l28.069 2.125 28.069-2.117a4.863 4.863 0 0 0 4.455-4.2l1.234-9.2a2.407 2.407 0 0 1 2.382-2.1 2.425 2.425 0 0 0 2.447-2.425v-4.69a2.429 2.429 0 0 1 .567-1.559l1.234-1.47a2.429 2.429 0 0 0 .567-1.559v-10.348z" fill="#84879c"/><path d="m64 111.708c-.025 0-.05 0-.075 0l-28.07-2.117a5.892 5.892 0 0 1 -5.371-5.068l-1.233-9.2a1.432 1.432 0 0 0 -1.4-1.236 3.461 3.461 0 0 1 -3.44-3.425v-4.69a1.433 1.433 0 0 0 -.334-.917l-1.233-1.469a3.435 3.435 0 0 1 -.8-2.2v-10.345a1 1 0 0 1 1-1h81.91a1 1 0 0 1 1 1v10.34a3.435 3.435 0 0 1 -.8 2.2l-1.234 1.47a1.433 1.433 0 0 0 -.333.916v4.69a3.4 3.4 0 0 1 -1.013 2.432 3.506 3.506 0 0 1 -2.443.993h-.011a1.4 1.4 0 0 0 -1.371 1.237l-1.233 9.2a5.892 5.892 0 0 1 -5.371 5.068l-28.07 2.117c-.025.004-.05.004-.075.004zm-39.955-39.667v9.34a1.433 1.433 0 0 0 .333.916l1.234 1.471a3.435 3.435 0 0 1 .8 2.2v4.69a1.438 1.438 0 0 0 1.461 1.425 3.445 3.445 0 0 1 3.36 2.97l1.233 9.2a3.882 3.882 0 0 0 3.539 3.34l27.995 2.113 27.994-2.106a3.882 3.882 0 0 0 3.539-3.34l1.233-9.2a3.409 3.409 0 0 1 3.354-2.971h.042a1.424 1.424 0 0 0 1.425-1.425v-4.69a3.435 3.435 0 0 1 .8-2.2l1.234-1.471a1.433 1.433 0 0 0 .333-.916v-9.34z" fill="#43567c"/><path d="m94.57 27.7v21.12a1.856 1.856 0 0 1 -1.86 1.86h-58.74a1.863 1.863 0 0 1 -1.86-1.86v-21.12a1.863 1.863 0 0 1 1.86-1.86h58.74a1.856 1.856 0 0 1 1.86 1.86z" fill="#6bb3d9"/><path d="m89.52 12.6a79.7 79.7 0 0 0 -21.312-3.891 1.543 1.543 0 0 0 -1.608 1.543v5.454a1.543 1.543 0 0 0 1.543 1.543h20.89a1.543 1.543 0 0 0 1.543-1.543v-1.641a1.538 1.538 0 0 0 -1.056-1.465z" fill="#6bb3d9"/><path d="m89.033 18.249h-20.891a2.546 2.546 0 0 1 -2.542-2.543v-5.454a2.543 2.543 0 0 1 2.652-2.542 81.128 81.128 0 0 1 21.578 3.939 2.531 2.531 0 0 1 1.746 2.415v1.642a2.546 2.546 0 0 1 -2.543 2.543zm-20.893-8.541a.543.543 0 0 0 -.541.544v5.454a.544.544 0 0 0 .543.543h20.891a.544.544 0 0 0 .543-.543v-1.642a.537.537 0 0 0 -.367-.514 79.148 79.148 0 0 0 -21.044-3.842z" fill="#43567c"/><path d="m38.48 12.6a79.7 79.7 0 0 1 21.312-3.891 1.543 1.543 0 0 1 1.608 1.543v5.454a1.543 1.543 0 0 1 -1.543 1.543h-20.89a1.543 1.543 0 0 1 -1.543-1.543v-1.641a1.538 1.538 0 0 1 1.056-1.465z" fill="#6bb3d9"/><g fill="#43567c"><path d="m59.858 18.249h-20.891a2.546 2.546 0 0 1 -2.543-2.543v-1.642a2.531 2.531 0 0 1 1.746-2.415 81.128 81.128 0 0 1 21.578-3.939 2.516 2.516 0 0 1 1.868.7 2.558 2.558 0 0 1 .785 1.839v5.454a2.546 2.546 0 0 1 -2.543 2.546zm-21.067-4.7a.537.537 0 0 0 -.367.514v1.642a.544.544 0 0 0 .543.543h20.891a.544.544 0 0 0 .543-.543v-5.453a.542.542 0 0 0 -.168-.394.53.53 0 0 0 -.4-.15 79.148 79.148 0 0 0 -21.042 3.842z"/><path d="m64.034 67.876a1 1 0 0 1 -.464-1.886l16.86-8.82a1 1 0 0 1 .463-.113h24.02a1 1 0 0 1 0 2h-23.774l-16.639 8.706a1 1 0 0 1 -.466.113z"/><path d="m64.032 67.876a1 1 0 0 1 -.462-.113l-16.67-8.706h-23.8a1 1 0 0 1 0-2h24.05a1.008 1.008 0 0 1 .463.113l16.887 8.82a1 1 0 0 1 -.464 1.886z"/></g><path d="m42.761 94.76a4.711 4.711 0 1 0 4.711 4.711 4.711 4.711 0 0 0 -4.711-4.711z" fill="#ffc943"/><path d="m42.761 105.182a5.711 5.711 0 1 1 5.711-5.711 5.718 5.718 0 0 1 -5.711 5.711zm0-9.422a3.711 3.711 0 1 0 3.711 3.711 3.715 3.715 0 0 0 -3.711-3.711z" fill="#43567c"/><path d="m85.239 94.76a4.711 4.711 0 1 0 4.711 4.711 4.711 4.711 0 0 0 -4.711-4.711z" fill="#ffc943"/><path d="m85.239 105.182a5.711 5.711 0 1 1 5.711-5.711 5.718 5.718 0 0 1 -5.711 5.711zm0-9.422a3.711 3.711 0 1 0 3.711 3.711 3.714 3.714 0 0 0 -3.711-3.711z" fill="#43567c"/><g fill="#707583"><path d="m27.638 81.211a1 1 0 0 1 -1-1v-6.244a1 1 0 0 1 2 0v6.244a1 1 0 0 1 -1 1z"/><path d="m34.25 81.211a1 1 0 0 1 -1-1v-6.244a1 1 0 0 1 2 0v6.244a1 1 0 0 1 -1 1z"/><path d="m40.861 81.211a1 1 0 0 1 -1-1v-6.244a1 1 0 0 1 2 0v6.244a1 1 0 0 1 -1 1z"/><path d="m47.472 81.211a1 1 0 0 1 -1-1v-6.244a1 1 0 0 1 2 0v6.244a1 1 0 0 1 -1 1z"/><path d="m54.083 81.211a1 1 0 0 1 -1-1v-6.244a1 1 0 0 1 2 0v6.244a1 1 0 0 1 -1 1z"/><path d="m60.694 81.211a1 1 0 0 1 -1-1v-6.244a1 1 0 0 1 2 0v6.244a1 1 0 0 1 -1 1z"/><path d="m67.306 81.211a1 1 0 0 1 -1-1v-6.244a1 1 0 0 1 2 0v6.244a1 1 0 0 1 -1 1z"/><path d="m73.917 81.211a1 1 0 0 1 -1-1v-6.244a1 1 0 0 1 2 0v6.244a1 1 0 0 1 -1 1z"/><path d="m80.528 81.211a1 1 0 0 1 -1-1v-6.244a1 1 0 0 1 2 0v6.244a1 1 0 0 1 -1 1z"/><path d="m87.139 81.211a1 1 0 0 1 -1-1v-6.244a1 1 0 0 1 2 0v6.244a1 1 0 0 1 -1 1z"/><path d="m93.75 81.211a1 1 0 0 1 -1-1v-6.244a1 1 0 1 1 2 0v6.244a1 1 0 0 1 -1 1z"/><path d="m100.362 81.211a1 1 0 0 1 -1-1v-6.244a1 1 0 0 1 2 0v6.244a1 1 0 0 1 -1 1z"/></g><g fill="#e1e6e9" opacity=".5"><path d="m70.084 25.842-13.71 24.84h-5.83l13.72-24.84z"/><path d="m74.854 25.842-13.71 24.84h-2.3l13.71-24.84z"/></g><path d="m92.714 51.682h-58.743a2.86 2.86 0 0 1 -2.856-2.857v-21.125a2.86 2.86 0 0 1 2.856-2.857h58.743a2.86 2.86 0 0 1 2.857 2.857v21.125a2.86 2.86 0 0 1 -2.857 2.857zm-58.743-24.839a.857.857 0 0 0 -.856.857v21.125a.858.858 0 0 0 .856.857h58.743a.858.858 0 0 0 .857-.857v-21.125a.857.857 0 0 0 -.857-.857z" fill="#43567c"/></g></svg>