<svg height="512" viewBox="0 0 128 128" width="512" xmlns="http://www.w3.org/2000/svg"><g id="icon"><path d="m60.294 14.273h11.151v104.295h-11.151z" fill="#d0aa79"/><path d="m72.446 119.568h-13.152v-106.296h13.152zm-11.152-2h9.152v-102.296h-9.152z" fill="#2f3a5a"/><path d="m120.959 38.363-7.473-7.763a4.131 4.131 0 0 0 -2.976-1.266h-53.366a4.129 4.129 0 0 0 -4.129 4.129v15.53a4.128 4.128 0 0 0 4.129 4.129h53.366a4.131 4.131 0 0 0 2.976-1.266l7.473-7.768a4.129 4.129 0 0 0 0-5.725z" fill="#d0aa79"/><path d="m120.955 44.093-7.474 7.76a4.1 4.1 0 0 1 -2.976 1.271h-53.36a4.137 4.137 0 0 1 -4.131-4.132v-4.321a4.128 4.128 0 0 0 4.131 4.121l53.36-.211a4.139 4.139 0 0 0 2.976-1.259l7.474-8.16c.549-.572.9 1.9 1.053 1.177a4.087 4.087 0 0 1 -1.053 3.754z" fill="#bf9a71"/><path d="m110.51 54.122h-53.366a5.134 5.134 0 0 1 -5.129-5.129v-15.535a5.134 5.134 0 0 1 5.129-5.129h53.366a5.154 5.154 0 0 1 3.7 1.573l7.473 7.767a5.116 5.116 0 0 1 0 7.113l-7.473 7.767a5.154 5.154 0 0 1 -3.7 1.573zm-53.366-23.793a3.132 3.132 0 0 0 -3.129 3.129v15.535a3.132 3.132 0 0 0 3.129 3.129h53.366a3.145 3.145 0 0 0 2.255-.959l7.473-7.768a3.119 3.119 0 0 0 0-4.339l-7.473-7.767a3.142 3.142 0 0 0 -2.255-.96z" fill="#2f3a5a"/><path d="m10.191 69.964 7.473-7.764a4.131 4.131 0 0 1 2.976-1.27h53.367a4.128 4.128 0 0 1 4.128 4.129v15.535a4.129 4.129 0 0 1 -4.128 4.129h-53.367a4.131 4.131 0 0 1 -2.976-1.266l-7.473-7.768a4.129 4.129 0 0 1 0-5.725z" fill="#d0aa79"/><path d="m10.2 75.694 7.474 7.76a4.1 4.1 0 0 0 2.976 1.271h53.36a4.138 4.138 0 0 0 4.132-4.132v-4.321a4.128 4.128 0 0 1 -4.132 4.12l-53.36-.211a4.135 4.135 0 0 1 -2.976-1.259l-7.474-8.159c-.549-.572-.9 1.9-1.053 1.177a4.09 4.09 0 0 0 1.053 3.754z" fill="#bf9a71"/><path d="m74.006 85.723h-53.366a5.153 5.153 0 0 1 -3.7-1.573l-7.469-7.768a5.111 5.111 0 0 1 0-7.111l7.473-7.771a5.153 5.153 0 0 1 3.7-1.573h53.362a5.134 5.134 0 0 1 5.129 5.129v15.538a5.135 5.135 0 0 1 -5.129 5.129zm-53.366-23.793a3.146 3.146 0 0 0 -2.255.96l-7.473 7.767a3.121 3.121 0 0 0 0 4.339l7.473 7.767a3.146 3.146 0 0 0 2.255.96h53.366a3.133 3.133 0 0 0 3.129-3.129v-15.535a3.132 3.132 0 0 0 -3.129-3.129z" fill="#2f3a5a"/><circle cx="65.87" cy="11.736" fill="#d0aa79" r="10.736" transform="matrix(.707 -.707 .707 .707 10.994 50.014)"/><path d="m76.611 11.732a10.743 10.743 0 0 1 -20.243 5.008 10.538 10.538 0 0 0 5.021 1.252 10.74 10.74 0 0 0 10.735-10.735 10.585 10.585 0 0 0 -1.252-5.021 10.716 10.716 0 0 1 5.739 9.496z" fill="#bf9a71"/><path d="m65.87 23.471a11.736 11.736 0 1 1 11.735-11.735 11.749 11.749 0 0 1 -11.735 11.735zm0-21.471a9.736 9.736 0 1 0 9.735 9.736 9.747 9.747 0 0 0 -9.735-9.736z" fill="#2f3a5a"/><path d="m86.588 113.223h-41.435a4.324 4.324 0 0 0 -4.324 4.324v8.243a1.207 1.207 0 0 0 1.207 1.21h47.664a1.207 1.207 0 0 0 1.207-1.208v-8.243a4.324 4.324 0 0 0 -4.319-4.326z" fill="#d0aa79"/><path d="m86.592 113.219h-.16a4.248 4.248 0 0 1 .7 2.347v4.148a3.337 3.337 0 0 1 -3.336 3.337h-42.963v2.742a1.207 1.207 0 0 0 1.207 1.207h47.66a1.207 1.207 0 0 0 1.207-1.207v-8.247a4.321 4.321 0 0 0 -4.315-4.327z" fill="#bf9a71"/><path d="m89.7 128h-47.664a2.21 2.21 0 0 1 -2.207-2.207v-8.244a5.33 5.33 0 0 1 5.324-5.324h41.434a5.33 5.33 0 0 1 5.324 5.324v8.244a2.21 2.21 0 0 1 -2.211 2.207zm-44.547-13.777a3.328 3.328 0 0 0 -3.324 3.324v8.244a.207.207 0 0 0 .207.207h47.664a.207.207 0 0 0 .207-.207v-8.244a3.328 3.328 0 0 0 -3.324-3.324z" fill="#2f3a5a"/></g></svg>