<svg height="512" viewBox="0 0 128 128" width="512" xmlns="http://www.w3.org/2000/svg"><g id="icon"><path d="m120.353 29.978h-2v-10.136a1.964 1.964 0 0 0 -1.962-1.961h-7.912v-2h7.912a3.966 3.966 0 0 1 3.962 3.961z" fill="#2f3a5a"/><rect fill="#9297ab" height="19.642" rx="1.359" width="8.912" x="114.896" y="25.262"/><path d="m122.45 45.9h-6.2a2.361 2.361 0 0 1 -2.359-2.359v-16.92a2.361 2.361 0 0 1 2.359-2.359h6.2a2.361 2.361 0 0 1 2.359 2.359v16.924a2.361 2.361 0 0 1 -2.359 2.355zm-6.2-19.642a.36.36 0 0 0 -.359.359v16.928a.36.36 0 0 0 .359.359h6.2a.36.36 0 0 0 .359-.359v-16.924a.36.36 0 0 0 -.359-.359z" fill="#2f3a5a"/><path d="m9.647 29.978h-2v-10.136a3.966 3.966 0 0 1 3.962-3.961h7.912v2h-7.912a1.964 1.964 0 0 0 -1.962 1.961z" fill="#2f3a5a"/><rect fill="#9297ab" height="19.642" rx="1.359" width="8.912" x="4.192" y="25.262"/><path d="m11.745 45.9h-6.195a2.361 2.361 0 0 1 -2.359-2.359v-16.92a2.361 2.361 0 0 1 2.359-2.359h6.195a2.361 2.361 0 0 1 2.355 2.359v16.924a2.361 2.361 0 0 1 -2.355 2.355zm-6.195-19.638a.36.36 0 0 0 -.359.359v16.924a.36.36 0 0 0 .359.359h6.195a.36.36 0 0 0 .359-.359v-16.924a.36.36 0 0 0 -.359-.359z" fill="#2f3a5a"/><rect fill="#9297ab" height="21.376" rx="2.431" width="14.308" x="94.119" y="106.624"/><path d="m106 129h-9.45a3.435 3.435 0 0 1 -3.431-3.431v-16.515a3.434 3.434 0 0 1 3.431-3.43h9.45a3.434 3.434 0 0 1 3.431 3.43v16.515a3.435 3.435 0 0 1 -3.431 3.431zm-9.45-21.376a1.432 1.432 0 0 0 -1.431 1.43v16.515a1.433 1.433 0 0 0 1.431 1.431h9.45a1.433 1.433 0 0 0 1.431-1.431v-16.515a1.432 1.432 0 0 0 -1.431-1.43z" fill="#2f3a5a"/><rect fill="#9297ab" height="21.376" rx="2.431" width="14.308" x="19.573" y="106.624"/><path d="m31.45 129h-9.45a3.435 3.435 0 0 1 -3.431-3.431v-16.515a3.434 3.434 0 0 1 3.431-3.43h9.45a3.434 3.434 0 0 1 3.431 3.43v16.515a3.435 3.435 0 0 1 -3.431 3.431zm-9.45-21.376a1.432 1.432 0 0 0 -1.431 1.43v16.515a1.433 1.433 0 0 0 1.431 1.431h9.45a1.433 1.433 0 0 0 1.431-1.431v-16.515a1.432 1.432 0 0 0 -1.431-1.43z" fill="#2f3a5a"/><path d="m106.208 7.925c-4.039-6.867-41.351-7.925-41.351-7.925s-.306 0-.857.014c-.551-.014-.857-.014-.857-.014s-37.312 1.058-41.351 7.925c-3.091 5.256-5.86 36.566-4.985 55.869l.037 48.6a4.837 4.837 0 0 0 4.774 4.916h84.764a4.837 4.837 0 0 0 4.774-4.916l.037-48.6c.875-19.303-1.893-50.613-4.985-55.869z" fill="#dbe2eb"/><path d="m16.826 80.2.018 32.2a4.837 4.837 0 0 0 4.774 4.916h84.764a4.837 4.837 0 0 0 4.774-4.916l.018-32.2z" fill="#6bb3d9"/><path d="m105.68 63.54-.01.13a.982.982 0 0 1 -.98.98h-81.38a.975.975 0 0 1 -.98-.98l-.01-.13c-.89-19.6 2-47.66 4.13-52.59 3.22-2.44 20.12-4.95 36.74-5.43.12 0 .81.01.81.01s.69-.01.81-.01l1.95.06c1.82.08 3.64.17 5.43.29 1.6.09 3.18.21 4.73.34l2.66.24c10.83 1.06 19.74 2.8 21.98 4.5 2.11 4.83 5.01 32.96 4.12 52.59z" fill="#84879c"/><path d="m105.835 53.624h-83.67s-.036 5.65.158 9.92v.131a.979.979 0 0 0 .979.973h81.391a.979.979 0 0 0 .979-.98l.007-.124c.193-4.244.156-9.92.156-9.92z" fill="#707583"/><path d="m50.157 106.086h27.686a1.223 1.223 0 0 1 1.223 1.223v4.713a1.224 1.224 0 0 1 -1.224 1.224h-27.685a1.223 1.223 0 0 1 -1.223-1.223v-4.713a1.224 1.224 0 0 1 1.223-1.224z" fill="#f6ba5b"/><path d="m77.844 114.246h-27.688a2.225 2.225 0 0 1 -2.222-2.224v-4.712a2.225 2.225 0 0 1 2.222-2.224h27.688a2.225 2.225 0 0 1 2.222 2.224v4.712a2.225 2.225 0 0 1 -2.222 2.224zm-27.688-7.16a.223.223 0 0 0 -.222.224v4.712a.223.223 0 0 0 .222.224h27.688a.223.223 0 0 0 .222-.224v-4.712a.223.223 0 0 0 -.222-.224z" fill="#2f3a5a"/><path d="m49.157 88.251h29.686v4.606h-29.686z" fill="#9297ab"/><path d="m78.843 93.857h-29.686a1 1 0 0 1 -1-1v-4.607a1 1 0 0 1 1-1h29.686a1 1 0 0 1 1 1v4.607a1 1 0 0 1 -1 1zm-28.686-2h27.686v-2.607h-27.686z" fill="#2f3a5a"/><path d="m49.157 96.189h29.686v4.606h-29.686z" fill="#9297ab"/><path d="m78.843 101.8h-29.686a1 1 0 0 1 -1-1v-4.611a1 1 0 0 1 1-1h29.686a1 1 0 0 1 1 1v4.611a1 1 0 0 1 -1 1zm-28.686-2h27.686v-2.611h-27.686z" fill="#2f3a5a"/><rect fill="#dbe2eb" height="11.27" rx="1.407" width="22.861" x="83.427" y="88.251"/><path d="m104.882 100.521h-20.049a2.409 2.409 0 0 1 -2.406-2.407v-8.457a2.409 2.409 0 0 1 2.406-2.407h20.049a2.409 2.409 0 0 1 2.406 2.407v8.457a2.409 2.409 0 0 1 -2.406 2.407zm-20.049-11.271a.407.407 0 0 0 -.406.407v8.457a.407.407 0 0 0 .406.407h20.049a.408.408 0 0 0 .406-.407v-8.457a.408.408 0 0 0 -.406-.407z" fill="#2f3a5a"/><circle cx="90.003" cy="93.886" fill="#f6ba5b" r="2.74"/><path d="m90 97.626a3.741 3.741 0 1 1 3.74-3.74 3.744 3.744 0 0 1 -3.74 3.74zm0-5.481a1.741 1.741 0 1 0 1.74 1.741 1.742 1.742 0 0 0 -1.74-1.741z" fill="#2f3a5a"/><circle cx="99.788" cy="93.886" fill="#ef5361" r="2.665"/><path d="m99.788 97.55a3.665 3.665 0 1 1 3.665-3.664 3.669 3.669 0 0 1 -3.665 3.664zm0-5.329a1.665 1.665 0 1 0 1.665 1.665 1.667 1.667 0 0 0 -1.665-1.665z" fill="#2f3a5a"/><rect fill="#dbe2eb" height="11.27" rx="1.407" width="22.861" x="21.712" y="88.251"/><path d="m43.167 100.521h-20.049a2.409 2.409 0 0 1 -2.406-2.407v-8.457a2.409 2.409 0 0 1 2.406-2.407h20.049a2.409 2.409 0 0 1 2.406 2.407v8.457a2.409 2.409 0 0 1 -2.406 2.407zm-20.049-11.271a.408.408 0 0 0 -.406.407v8.457a.408.408 0 0 0 .406.407h20.049a.407.407 0 0 0 .406-.407v-8.457a.407.407 0 0 0 -.406-.407z" fill="#2f3a5a"/><circle cx="28.287" cy="93.886" fill="#f6ba5b" r="2.74"/><path d="m28.287 97.626a3.741 3.741 0 1 1 3.74-3.74 3.745 3.745 0 0 1 -3.74 3.74zm0-5.481a1.741 1.741 0 1 0 1.74 1.741 1.742 1.742 0 0 0 -1.74-1.741z" fill="#2f3a5a"/><circle cx="38.073" cy="93.886" fill="#ef5361" r="2.665"/><path d="m38.072 97.55a3.665 3.665 0 1 1 3.665-3.664 3.669 3.669 0 0 1 -3.665 3.664zm0-5.329a1.665 1.665 0 1 0 1.665 1.665 1.666 1.666 0 0 0 -1.665-1.665z" fill="#2f3a5a"/><path d="m106.382 118.312h-84.764a5.681 5.681 0 0 1 -4.047-1.691 5.91 5.91 0 0 1 -1.727-4.228l-.037-48.6c-.828-18.253 1.68-50.523 5.123-56.377 4.197-7.135 38.308-8.306 42.184-8.416l.906.014.827-.014c3.915.11 38.026 1.281 42.223 8.418 3.443 5.854 5.951 38.124 5.122 56.422l-.036 48.557a5.908 5.908 0 0 1 -1.727 4.224 5.681 5.681 0 0 1 -4.047 1.691zm-43.25-117.312c-14.732.419-37.722 2.745-40.478 7.432-3 5.1-5.718 36.12-4.848 55.317l.038 48.646a3.928 3.928 0 0 0 1.144 2.814 3.694 3.694 0 0 0 2.63 1.1h84.764a3.694 3.694 0 0 0 2.63-1.1 3.926 3.926 0 0 0 1.144-2.81l.037-48.606c.871-19.241-1.847-50.26-4.847-55.361-1.51-2.568-13.546-6.666-40.517-7.432l-.809.014z" fill="#2f3a5a"/><g fill="#fff" opacity=".12"><path d="m72.19 5.87-30.86 58.78h-5.57l31-59.07c1.82.08 3.64.17 5.43.29z"/><path d="m79.58 6.45-30.54 58.2h-2.79l30.67-58.44z"/></g><g fill="#2f3a5a"><path d="m104.689 65.65h-81.378a1.983 1.983 0 0 1 -1.981-1.98l-.007-.055c-.9-19.842 2.009-47.969 4.209-53.061l.105-.242.209-.159c3.859-2.925 22.374-5.2 37.314-5.632.18-.011.826.008.854.009 0 0 .675-.01.8-.01l1.98.061c1.841.081 3.669.171 5.466.292 1.6.089 3.187.21 4.747.34l2.667.241c9.051.886 19.708 2.585 22.494 4.7l.208.157.1.239c2.2 5.033 5.1 33.14 4.2 53.035l-.012.16a1.964 1.964 0 0 1 -1.975 1.905zm-77.423-54.05c-2.072 5.481-4.8 33.01-3.947 51.893l.008.1 81.362.055-.008-.155c.86-18.959-1.866-46.464-3.934-51.891-2-1.25-9.2-2.978-21.265-4.159l-2.652-.237c-1.534-.129-3.105-.248-4.7-.337-1.793-.121-3.606-.21-5.418-.29l-1.933-.059c-.088 0-.765.01-.765.01-.029 0-.7-.01-.825-.01-17.483.505-32.689 3.047-35.923 5.08z"/><path d="m16.825 79.197h94.35v2h-94.35z"/></g></g></svg>