<svg height="512" viewBox="0 0 128 128" width="512" xmlns="http://www.w3.org/2000/svg"><g id="icon"><path d="m86.1 54.057h-5.04c-2.06 8.948-7.909 40.115 2.164 70.653h10.537c-11-31.21-8.477-64.925-7.661-70.653z" fill="#e1b378"/><path d="m86.512 124.71h-3.291c-10.069-30.537-4.221-61.703-2.156-70.658h3.29c-2.063 8.955-7.912 40.121 2.157 70.658z" fill="#d0aa79"/><path d="m95.174 125.709h-12.674l-.227-.686c-10.153-30.785-4.242-62.273-2.188-71.19l.179-.776h6.989l-.163 1.143c-.049.346-4.39 36.116 7.615 70.179zm-11.224-2h8.407c-10.415-30.651-8-62.313-7.371-68.652h-3.127c-2.141 9.643-7.32 39.413 2.091 68.652z" fill="#2f3a5a"/><path d="m122.952 37.821c-19.622-12.534-40.863 16.259-40.863 16.259l1.186 1.434a65.413 65.413 0 0 0 12.111-2.352l-1.186-1.145 2.218.836c1.4-.423 2.765-.888 4.065-1.383l-1.744-1.692 3.085 1.166q1.779-.713 3.435-1.486l-1.97-1.908 3.342 1.269h.011c1.1-.537 2.135-1.083 3.126-1.62l-1.93-1.877 3.147 1.186c1.1-.629 2.146-1.259 3.095-1.878l-2.187-2.125 3.445 1.3c.908-.609 1.744-1.2 2.5-1.744l-2.8-2.713 4.251 1.61a43.655 43.655 0 0 0 3.663-3.137z" fill="#86be7a"/><path d="m83.275 56.514a1 1 0 0 1 -.771-.362l-1.186-1.434a1 1 0 0 1 -.034-1.232c.217-.295 22.031-29.4 42.206-16.507a1 1 0 0 1 .169 1.549 44.041 44.041 0 0 1 -3.754 3.218 1 1 0 0 1 -.969.147l-.124-.047a1.058 1.058 0 0 1 .021.287 1 1 0 0 1 -.41.738c-.762.553-1.609 1.149-2.527 1.765a1.011 1.011 0 0 1 -.826.133 1 1 0 0 1 -.444.7c-.928.6-1.986 1.247-3.146 1.908a1.011 1.011 0 0 1 -.751.1 1 1 0 0 1 -.485.6c-.905.489-1.988 1.067-3.165 1.639a1.032 1.032 0 0 1 -.8.036l-.055-.021a1 1 0 0 1 -.538.632c-1.118.521-2.29 1.029-3.488 1.508a1 1 0 0 1 -.725.006l-.064-.024a1 1 0 0 1 -.567.55c-1.335.508-2.725.981-4.132 1.405a.99.99 0 0 1 -.563 0 1 1 0 0 1 -.476.308 66.706 66.706 0 0 1 -12.3 2.387.8.8 0 0 1 -.096.011zm.094-2.454.336.405a64.465 64.465 0 0 0 9.735-1.8 1 1 0 0 1 1.113-1.586l1.9.716c.738-.227 1.47-.467 2.191-.719l-.6-.582a1 1 0 0 1 1.05-1.653l2.719 1.028c.573-.234 1.14-.473 1.7-.717l-.915-.886a1 1 0 0 1 1.051-1.653l2.942 1.117c.525-.26 1.03-.52 1.5-.77l-.949-.924a1 1 0 0 1 1.05-1.652l2.7 1.02q.831-.481 1.578-.942l-1.27-1.24a1 1 0 0 1 1.05-1.653l2.962 1.118q.555-.378 1.071-.742l-1.936-1.879a1 1 0 0 1 1.051-1.653l3.721 1.409c.925-.736 1.656-1.362 2.177-1.826-16.745-9.255-34.79 12.104-37.927 16.064z" fill="#2f3a5a"/><path d="m121.719 71.675c-4.194-22.9-39.743-18.834-39.743-18.834l-.241 1.845a65.461 65.461 0 0 0 9.974 7.263l.029-1.648.9 2.193c1.265.738 2.533 1.419 3.781 2.033l.051-2.427 1.248 3.052q1.734.817 3.428 1.5l.055-2.743 1.348 3.311.007.008c1.145.442 2.248.825 3.315 1.184l.06-2.691 1.276 3.111c1.213.38 2.383.714 3.483.987l.065-3.049 1.4 3.408c1.065.249 2.064.46 2.978.639l.081-3.895 1.718 4.208a43.768 43.768 0 0 0 4.787.545z" fill="#86be7a"/><path d="m121.719 72.675h-.036a44.265 44.265 0 0 1 -4.913-.556 1 1 0 0 1 -.768-.609l-.05-.123a.98.98 0 0 1 -.2.211 1.01 1.01 0 0 1 -.819.2c-.925-.182-1.937-.395-3.014-.648a1 1 0 0 1 -.659-.513 1 1 0 0 1 -.815.151c-1.089-.27-2.28-.608-3.541-1a1 1 0 0 1 -.583-.483 1 1 0 0 1 -.772.056c-.978-.329-2.142-.729-3.358-1.2a1 1 0 0 1 -.37-.25 1.065 1.065 0 0 1 -.2-.312l-.022-.056a1 1 0 0 1 -.83.037c-1.145-.463-2.315-.976-3.479-1.526a1 1 0 0 1 -.5-.526l-.025-.063a1.008 1.008 0 0 1 -.789-.041c-1.276-.627-2.57-1.322-3.844-2.067a1 1 0 0 1 -.387-.409 1.031 1.031 0 0 1 -.549-.139 66.731 66.731 0 0 1 -10.126-7.373 1 1 0 0 1 -.329-.879l.241-1.846a1 1 0 0 1 .878-.864c.367-.041 36.529-3.9 40.84 19.648a1 1 0 0 1 -.983 1.18zm-4.079-2.446c1.169.176 2.124.284 2.82.35-4.629-18.545-32.563-17.211-37.6-16.814l-.069.522a64.74 64.74 0 0 0 7.95 5.9 1 1 0 0 1 1.919-.267l.77 1.878c.67.387 1.345.759 2.019 1.114l.017-.835a1 1 0 0 1 1.934-.357l1.1 2.69q.842.392 1.679.753l.026-1.273a1 1 0 0 1 1.926-.357l1.187 2.915c.547.206 1.081.4 1.588.576l.03-1.324a1 1 0 0 1 1.925-.357l1.1 2.675c.608.186 1.2.357 1.763.513l.038-1.782a1 1 0 0 1 1.926-.357l1.2 2.929q.655.149 1.273.279l.056-2.7a1 1 0 0 1 1.926-.357z" fill="#2f3a5a"/><path d="m45 71.675c4.194-22.9 39.743-18.834 39.743-18.834l.241 1.845a65.461 65.461 0 0 1 -9.974 7.263l-.032-1.649-.9 2.193c-1.266.738-2.533 1.419-3.781 2.033l-.051-2.426-1.246 3.05q-1.734.817-3.428 1.5l-.055-2.743-1.348 3.311-.007.008c-1.145.442-2.248.825-3.316 1.184l-.059-2.691-1.276 3.111c-1.213.38-2.383.714-3.483.987l-.065-3.049-1.4 3.408c-1.064.249-2.063.46-2.977.639l-.081-3.895-1.718 4.208a43.768 43.768 0 0 1 -4.787.547z" fill="#86be7a"/><path d="m45 72.675a1 1 0 0 1 -.984-1.18c4.312-23.55 40.474-19.688 40.84-19.648a1 1 0 0 1 .877.864l.242 1.846a1 1 0 0 1 -.329.879 66.781 66.781 0 0 1 -10.126 7.373.969.969 0 0 1 -.549.139 1 1 0 0 1 -.387.409c-1.273.744-2.567 1.439-3.844 2.067a1 1 0 0 1 -.788.041l-.026.063a1 1 0 0 1 -.5.526c-1.169.551-2.34 1.065-3.481 1.526a.993.993 0 0 1 -.829-.037l-.022.055a.992.992 0 0 1 -.219.33 1.04 1.04 0 0 1 -.353.233c-1.219.472-2.381.871-3.357 1.2a1 1 0 0 1 -.772-.056 1 1 0 0 1 -.584.483c-1.264.4-2.455.733-3.541 1a1.006 1.006 0 0 1 -.815-.152 1 1 0 0 1 -.659.513c-1.077.253-2.089.466-3.013.648a1.009 1.009 0 0 1 -.82-.2.98.98 0 0 1 -.2-.211l-.05.123a1 1 0 0 1 -.768.609 44.316 44.316 0 0 1 -4.912.556zm33.808-19.095c-9.778 0-28.8 1.982-32.552 17 .7-.066 1.652-.174 2.82-.35l1.5-3.684a1 1 0 0 1 1.926.357l.056 2.7q.617-.13 1.273-.279l1.2-2.929a1 1 0 0 1 1.925.357l.044 1.779c.565-.156 1.155-.327 1.764-.513l1.1-2.675a1 1 0 0 1 1.925.357l.03 1.324c.507-.177 1.041-.37 1.588-.576l1.187-2.915a1 1 0 0 1 1.926.357l.026 1.273c.556-.24 1.118-.492 1.679-.753l1.1-2.69a1 1 0 0 1 1.926.357l.017.836c.674-.355 1.349-.727 2.019-1.114l.77-1.878a1 1 0 0 1 1.919.267 64.73 64.73 0 0 0 7.949-5.9l-.068-.522c-.963-.077-2.752-.186-5.049-.186z" fill="#2f3a5a"/><path d="m102.445 15.9c-23.071 3.14-20.636 38.838-20.636 38.838l1.832.325a65.435 65.435 0 0 0 7.713-9.63l-1.646-.1 2.232-.8c.8-1.231 1.534-2.466 2.2-3.684l-2.424-.162 3.106-1.107q.9-1.695 1.658-3.356l-2.738-.18 3.37-1.2.008-.007c.494-1.123.927-2.208 1.335-3.258l-2.681-.179 3.167-1.131c.435-1.194.822-2.348 1.145-3.435l-3.043-.205 3.469-1.238c.3-1.052.555-2.041.775-2.945l-3.887-.26 4.282-1.523a43.725 43.725 0 0 0 .763-4.763z" fill="#86be7a"/><path d="m83.641 56.063a.94.94 0 0 1 -.175-.015l-1.832-.326a1 1 0 0 1 -.822-.916c-.025-.367-2.226-36.668 21.5-39.9a1 1 0 0 1 1.131 1.072 44.035 44.035 0 0 1 -.78 4.882 1 1 0 0 1 -.644.74l-.125.044a.987.987 0 0 1 .2.206 1 1 0 0 1 .165.828c-.224.914-.483 1.916-.785 2.98a1 1 0 0 1 -.544.635 1 1 0 0 1 .114.821c-.318 1.069-.71 2.244-1.164 3.491a1 1 0 0 1 -.508.56 1.006 1.006 0 0 1 .021.775c-.374.961-.827 2.1-1.353 3.3a.994.994 0 0 1 -.256.349 1.047 1.047 0 0 1 -.332.2l-.056.02a1 1 0 0 1 0 .83c-.514 1.121-1.081 2.267-1.684 3.406a.994.994 0 0 1 -.547.475l-.066.023a1 1 0 0 1 -.076.786c-.687 1.247-1.44 2.506-2.241 3.745a1.009 1.009 0 0 1 -.426.367 1 1 0 0 1 -.165.542 66.664 66.664 0 0 1 -7.83 9.778 1 1 0 0 1 -.72.302zm-.869-2.169.519.091a64.613 64.613 0 0 0 6.259-7.67 1 1 0 0 1 -.178-1.929l1.911-.683q.624-.978 1.2-1.966l-.833-.056a1 1 0 0 1 -.269-1.939l2.738-.976c.286-.549.564-1.1.829-1.643l-1.27-.084a1 1 0 0 1 -.269-1.94l2.966-1.053c.232-.537.449-1.062.649-1.56l-1.322-.09a1 1 0 0 1 -.268-1.94l2.722-.973c.215-.6.413-1.181.594-1.738l-1.778-.12a1 1 0 0 1 -.269-1.939l2.981-1.065q.18-.648.337-1.259l-2.692-.18a1 1 0 0 1 -.269-1.94l3.75-1.333c.229-1.159.381-2.11.478-2.8-18.734 3.773-18.681 31.738-18.516 36.785z" fill="#2f3a5a"/><path d="m43.764 37.821c19.622-12.534 40.863 16.259 40.863 16.259l-1.186 1.434a65.44 65.44 0 0 1 -12.112-2.352l1.187-1.145-2.218.836c-1.4-.423-2.765-.888-4.065-1.383l1.744-1.692-3.085 1.166q-1.779-.713-3.435-1.486l1.97-1.908-3.342 1.269h-.011c-1.1-.537-2.135-1.083-3.126-1.62l1.93-1.877-3.147 1.186c-1.1-.629-2.146-1.259-3.095-1.878l2.187-2.125-3.446 1.3c-.907-.609-1.743-1.2-2.5-1.744l2.8-2.713-4.251 1.61a43.655 43.655 0 0 1 -3.662-3.137z" fill="#86be7a"/><path d="m83.441 56.514a.788.788 0 0 1 -.1-.005 66.706 66.706 0 0 1 -12.3-2.387 1 1 0 0 1 -.476-.308.99.99 0 0 1 -.563 0c-1.406-.424-2.8-.9-4.132-1.405a1 1 0 0 1 -.567-.55l-.064.024a1 1 0 0 1 -.725-.006c-1.2-.479-2.371-.987-3.488-1.508a1 1 0 0 1 -.538-.632l-.056.021a1.039 1.039 0 0 1 -.8-.036c-1.169-.568-2.256-1.148-3.165-1.639a1 1 0 0 1 -.485-.6 1.01 1.01 0 0 1 -.751-.1c-1.161-.661-2.219-1.3-3.146-1.908a1 1 0 0 1 -.444-.7 1.009 1.009 0 0 1 -.826-.133c-.919-.616-1.765-1.212-2.527-1.765a1 1 0 0 1 -.41-.738 1.019 1.019 0 0 1 .021-.287l-.124.047a1 1 0 0 1 -.969-.147 43.842 43.842 0 0 1 -3.754-3.218 1 1 0 0 1 .169-1.549c20.179-12.894 41.993 16.206 42.211 16.501a1 1 0 0 1 -.034 1.232l-1.187 1.434a1 1 0 0 1 -.77.362zm-10.165-3.847a64.465 64.465 0 0 0 9.735 1.8l.335-.405c-3.138-3.962-21.192-25.317-37.922-16.062.522.464 1.252 1.09 2.177 1.826l3.722-1.409a1 1 0 0 1 1.05 1.653l-1.936 1.879q.515.363 1.071.742l2.962-1.118a1 1 0 0 1 1.05 1.653l-1.278 1.242q.745.461 1.578.942l2.7-1.02a1 1 0 0 1 1.051 1.652l-.95.924c.477.251.981.511 1.5.77l2.943-1.117a1 1 0 0 1 1.051 1.653l-.915.886c.556.244 1.123.483 1.7.717l2.719-1.028a1 1 0 0 1 1.05 1.653l-.6.582c.72.252 1.452.492 2.19.719l1.9-.716a1 1 0 0 1 1.112 1.586z" fill="#2f3a5a"/><path d="m64.271 15.9c23.071 3.14 20.636 38.838 20.636 38.838l-1.832.325a65.435 65.435 0 0 1 -7.713-9.63l1.646-.1-2.232-.8c-.8-1.231-1.534-2.466-2.2-3.684l2.424-.165-3.106-1.107q-.9-1.695-1.658-3.356l2.737-.18-3.369-1.2-.008-.007c-.495-1.123-.927-2.208-1.335-3.258l2.685-.183-3.166-1.131c-.435-1.194-.822-2.348-1.145-3.435l3.043-.205-3.478-1.233c-.3-1.052-.555-2.041-.775-2.945l3.887-.26-4.282-1.523a43.725 43.725 0 0 1 -.759-4.761z" fill="#86be7a"/><path d="m83.075 56.063a1 1 0 0 1 -.718-.3 66.625 66.625 0 0 1 -7.83-9.778 1 1 0 0 1 -.165-.542 1 1 0 0 1 -.426-.367c-.8-1.233-1.551-2.493-2.241-3.745a1 1 0 0 1 -.076-.786l-.066-.023a1 1 0 0 1 -.548-.475c-.6-1.132-1.166-2.278-1.683-3.406a1 1 0 0 1 0-.83l-.055-.02a1.022 1.022 0 0 1 -.3-.17 1.072 1.072 0 0 1 -.288-.376c-.532-1.211-.982-2.347-1.351-3.3a1 1 0 0 1 .021-.774 1 1 0 0 1 -.51-.56c-.454-1.247-.845-2.422-1.164-3.491a1 1 0 0 1 .115-.821 1 1 0 0 1 -.543-.635c-.3-1.064-.562-2.066-.785-2.981a1 1 0 0 1 .366-1.033l-.128-.05a1 1 0 0 1 -.644-.74 44.517 44.517 0 0 1 -.781-4.882 1 1 0 0 1 1.132-1.072c23.723 3.228 21.524 39.529 21.5 39.9a1 1 0 0 1 -.823.916l-1.832.326a.948.948 0 0 1 -.177.015zm-5.909-9.748a64.675 64.675 0 0 0 6.259 7.67l.519-.091c.165-5.047.218-33.012-18.521-36.786.1.691.25 1.642.479 2.8l3.749 1.333a1 1 0 0 1 -.268 1.94l-2.692.18q.157.61.337 1.259l2.981 1.065a1 1 0 0 1 -.269 1.939l-1.778.12c.181.557.379 1.138.594 1.738l2.722.973a1 1 0 0 1 -.268 1.94l-1.322.09c.2.5.415 1.019.648 1.56l2.964 1.055a1 1 0 0 1 -.269 1.94l-1.27.084q.4.821.829 1.643l2.738.976a1 1 0 0 1 -.269 1.939l-.833.056q.579.988 1.2 1.966l1.911.683a1 1 0 0 1 -.178 1.929z" fill="#2f3a5a"/><path d="m123.628 127c-6.574-1.835-12.735-5.038-18.979-7.844-7.5-3.371-15.656-6.234-23.851-5.232-6.684.816-12.737 4.125-18.6 7.368l-9.845 5.45-.466.258z" fill="#e8c79c"/><path d="m123.63 127h-12.606c-3.632-1.537-7.191-3.281-10.771-4.89-7.5-3.373-15.66-6.231-23.852-5.23-6.685.815-12.74 4.116-18.59 7.365l-4.983 2.755h-.938c.154-.083.309-.175.464-.258q4.92-2.724 9.852-5.447c5.849-3.25 11.905-6.551 18.59-7.376 8.192-1 16.352 1.867 23.852 5.24 6.241 2.807 12.411 6.005 18.982 7.841z" fill="#d0aa79"/><path d="m123.628 128h-71.737a1 1 0 0 1 -.484-1.875l10.311-5.708c5.617-3.109 11.983-6.634 18.959-7.486 8.7-1.064 17.209 2.089 24.383 5.313 1.366.614 2.728 1.247 4.092 1.881a98.857 98.857 0 0 0 14.745 5.912 1 1 0 0 1 -.269 1.963zm-67.866-2h61.8c-3.156-1.231-6.234-2.662-9.248-4.062-1.356-.63-2.711-1.259-4.07-1.87-6.921-3.11-15.1-6.158-23.32-5.151-6.589.8-12.775 4.229-18.232 7.25z" fill="#2f3a5a"/><circle cx="26.595" cy="23.226" fill="#f7b521" r="14.549"/><circle cx="26.352" cy="22.462" fill="#ffc943" r="11.639"/><g opacity=".25"><circle cx="23.576" cy="18.515" fill="#fff" r="4.798"/></g><g fill="#2f3a5a"><path d="m26.627 38.78a15.572 15.572 0 0 1 -15.243-18.78 15.548 15.548 0 0 1 18.435-11.985 15.553 15.553 0 0 1 -3.192 30.765zm-.059-29.108a13.593 13.593 0 1 0 2.836.3 13.673 13.673 0 0 0 -2.836-.3z"/><path d="m30.313 6.686a1 1 0 0 1 -.979-1.207l.993-4.686a1 1 0 1 1 1.957.414l-.993 4.686a1 1 0 0 1 -.978.793z"/><path d="m21.886 46.451a1.056 1.056 0 0 1 -.208-.021 1 1 0 0 1 -.771-1.186l.992-4.686a1 1 0 0 1 1.957.414l-.992 4.686a1 1 0 0 1 -.978.793z"/><path d="m48.822 28.936a.987.987 0 0 1 -.208-.022l-4.686-.993a1 1 0 0 1 .414-1.957l4.686.993a1 1 0 0 1 -.206 1.979z"/><path d="m9.057 20.508a1.048 1.048 0 0 1 -.208-.021l-4.686-.993a1 1 0 1 1 .414-1.957l4.686.993a1 1 0 0 1 -.206 1.978z"/><path d="m41.627 14.452a1 1 0 0 1 -.546-1.839l4.019-2.613a1 1 0 0 1 1.09 1.677l-4.019 2.613a1 1 0 0 1 -.544.162z"/><path d="m7.55 36.611a1 1 0 0 1 -.55-1.839l4.016-2.611a1 1 0 0 1 1.089 1.677l-4.011 2.611a.989.989 0 0 1 -.544.162z"/><path d="m38.981 43.272a1 1 0 0 1 -.839-.455l-2.611-4.017a1 1 0 0 1 1.677-1.09l2.611 4.016a1 1 0 0 1 -.838 1.545z"/><path d="m16.822 9.2a1 1 0 0 1 -.839-.455l-2.611-4.021a1 1 0 1 1 1.676-1.09l2.612 4.016a1 1 0 0 1 -.838 1.55z"/></g></g></svg>