<svg height="512" viewBox="0 0 128 128" width="512" xmlns="http://www.w3.org/2000/svg"><g id="icon"><path d="m69.812 1.079h-11.624a1.094 1.094 0 0 0 -1.094 1.094v14.717h13.812v-14.717a1.094 1.094 0 0 0 -1.094-1.094z" fill="#84879c"/><path d="m70.906 17.89h-13.812a1 1 0 0 1 -1-1v-14.717a2.1 2.1 0 0 1 2.094-2.094h11.624a2.1 2.1 0 0 1 2.094 2.094v14.717a1 1 0 0 1 -1 1zm-12.812-2h11.812v-13.717a.094.094 0 0 0 -.094-.094h-11.624a.094.094 0 0 0 -.094.094z" fill="#2f3a5a"/><path d="m88.538 15.129h-49.076a1.037 1.037 0 0 0 -1.037 1.037v21.149h51.15v-21.149a1.037 1.037 0 0 0 -1.037-1.037z" fill="#dbe2eb"/><path d="m89.575 38.315h-51.15a1 1 0 0 1 -1-1v-21.149a2.039 2.039 0 0 1 2.037-2.037h49.076a2.039 2.039 0 0 1 2.037 2.037v21.149a1 1 0 0 1 -1 1zm-50.148-2h49.148l-.037-20.186h-49.076z" fill="#2f3a5a"/><path d="m95.846 31.078h-63.692a1.346 1.346 0 0 0 -1.346 1.346v24.266h66.384v-24.266a1.346 1.346 0 0 0 -1.346-1.346z" fill="#dbe2eb"/><path d="m97.192 57.69h-66.384a1 1 0 0 1 -1-1v-24.266a2.348 2.348 0 0 1 2.346-2.345h63.692a2.348 2.348 0 0 1 2.346 2.345v24.266a1 1 0 0 1 -1 1zm-65.384-2h64.384v-23.266a.346.346 0 0 0 -.346-.345h-63.692a.346.346 0 0 0 -.346.345z" fill="#2f3a5a"/><path d="m102.973 53.762-38.973-6.12v55h20.755l19.745-46.122a2 2 0 0 0 -1.527-2.758z" fill="#a67f74"/><g opacity=".5"><path d="m104.5 56.52-19.75 46.12h-4l19.18-44.79a.958.958 0 0 0 -.73-1.33l-35.2-5.52v-3.36l38.97 6.12a2 2 0 0 1 1.53 2.76z" fill="#bf9388"/></g><path d="m84.754 103.638h-20.754a1 1 0 0 1 -1-1v-55a1 1 0 0 1 1.155-.988l38.973 6.12a3 3 0 0 1 2.291 4.14l-19.745 46.121a1 1 0 0 1 -.92.607zm-19.754-2h19.1l19.484-45.511a1 1 0 0 0 -.761-1.377l-37.823-5.938z" fill="#2f3a5a"/><path d="m25.027 53.762a2 2 0 0 0 -1.527 2.758l19.744 46.118h20.756v-55z" fill="#a67f74"/><g opacity=".5"><path d="m27.57 58.3 18.98 44.34h-3.3l-19.75-46.12a2 2 0 0 1 1.53-2.76l38.97-6.12v3.11l-35.33 5.55a1.439 1.439 0 0 0 -1.1 2z" fill="#bf9388"/></g><path d="m64 103.638h-20.754a1 1 0 0 1 -.92-.607l-19.744-46.117a3 3 0 0 1 2.291-4.14l38.972-6.12a1 1 0 0 1 1.155.988v55a1 1 0 0 1 -1 .996zm-20.095-2h19.095v-52.826l-37.817 5.938a1 1 0 0 0 -.761 1.377z" fill="#2f3a5a"/><rect fill="#84879c" height="5.394" rx=".556" width="5.394" x="43.882" y="19.379"/><path d="m48.719 25.773h-4.281a1.558 1.558 0 0 1 -1.556-1.556v-4.281a1.559 1.559 0 0 1 1.556-1.557h4.281a1.559 1.559 0 0 1 1.557 1.557v4.281a1.558 1.558 0 0 1 -1.557 1.556zm-3.837-2h3.394v-3.394h-3.394z" fill="#2f3a5a"/><rect fill="#84879c" height="5.394" rx=".556" width="5.394" x="55.496" y="19.379"/><path d="m60.333 25.773h-4.281a1.558 1.558 0 0 1 -1.552-1.556v-4.281a1.559 1.559 0 0 1 1.556-1.557h4.281a1.559 1.559 0 0 1 1.557 1.557v4.281a1.558 1.558 0 0 1 -1.561 1.556zm-3.837-2h3.394v-3.394h-3.39z" fill="#2f3a5a"/><rect fill="#84879c" height="5.394" rx=".556" width="5.394" x="67.11" y="19.379"/><path d="m71.948 25.773h-4.281a1.558 1.558 0 0 1 -1.557-1.556v-4.281a1.559 1.559 0 0 1 1.557-1.557h4.281a1.559 1.559 0 0 1 1.552 1.557v4.281a1.558 1.558 0 0 1 -1.552 1.556zm-3.838-2h3.39v-3.394h-3.39z" fill="#2f3a5a"/><rect fill="#84879c" height="5.394" rx=".556" width="5.394" x="78.724" y="19.379"/><path d="m83.562 25.773h-4.281a1.558 1.558 0 0 1 -1.557-1.556v-4.281a1.559 1.559 0 0 1 1.557-1.557h4.281a1.559 1.559 0 0 1 1.556 1.557v4.281a1.558 1.558 0 0 1 -1.556 1.556zm-3.838-2h3.394v-3.394h-3.394z" fill="#2f3a5a"/><rect fill="#84879c" height="8.128" rx=".838" width="8.128" x="79.24" y="35.093"/><path d="m86.529 44.221h-6.451a1.841 1.841 0 0 1 -1.839-1.838v-6.451a1.841 1.841 0 0 1 1.839-1.839h6.451a1.841 1.841 0 0 1 1.839 1.839v6.451a1.841 1.841 0 0 1 -1.839 1.838zm-6.29-2h6.129v-6.128h-6.129z" fill="#2f3a5a"/><rect fill="#84879c" height="8.128" rx=".838" width="8.128" x="65.579" y="35.093"/><path d="m72.869 44.221h-6.452a1.841 1.841 0 0 1 -1.838-1.838v-6.451a1.841 1.841 0 0 1 1.838-1.839h6.452a1.841 1.841 0 0 1 1.838 1.839v6.451a1.841 1.841 0 0 1 -1.838 1.838zm-6.29-2h6.128v-6.128h-6.128z" fill="#2f3a5a"/><rect fill="#84879c" height="8.128" rx=".838" width="8.128" x="51.918" y="35.093"/><path d="m59.208 44.221h-6.452a1.841 1.841 0 0 1 -1.838-1.838v-6.451a1.841 1.841 0 0 1 1.838-1.839h6.452a1.84 1.84 0 0 1 1.838 1.839v6.451a1.84 1.84 0 0 1 -1.838 1.838zm-6.29-2h6.128v-6.128h-6.128z" fill="#2f3a5a"/><rect fill="#84879c" height="8.128" rx=".838" width="8.128" x="38.258" y="35.093"/><path d="m45.547 44.221h-6.447a1.841 1.841 0 0 1 -1.838-1.838v-6.451a1.841 1.841 0 0 1 1.838-1.839h6.451a1.841 1.841 0 0 1 1.839 1.839v6.451a1.841 1.841 0 0 1 -1.843 1.838zm-6.289-2h6.128v-6.128h-6.128z" fill="#2f3a5a"/><path d="m120.1 95.275a8.559 8.559 0 0 0 -6.786-.833l-12.965 3.858a8.547 8.547 0 0 1 -6.579-.715l-4.192-2.3a8.549 8.549 0 0 0 -7.108-.539l-8.58 3.168a8.558 8.558 0 0 1 -7.348-.676l-2.815-1.664a8.557 8.557 0 0 0 -7.633-.574l-6 2.459a8.576 8.576 0 0 1 -8.471-1.127 8.584 8.584 0 0 0 -8.393-1.158l-6.107 2.436a8.57 8.57 0 0 1 -8.1-.945l-.724-.5a8.569 8.569 0 0 0 -8.421-.808l-8.878 3.959v7.184h126v-7.184z" fill="#6bb3d9"/><path d="m1 100.316a1 1 0 0 1 -.407-1.916l8.88-3.962a9.54 9.54 0 0 1 9.4.9l.723.5a7.6 7.6 0 0 0 7.158.838l6.109-2.436a9.552 9.552 0 0 1 9.366 1.29 7.56 7.56 0 0 0 7.489 1l6-2.459a9.515 9.515 0 0 1 8.522.629l2.815 1.664a7.566 7.566 0 0 0 6.492.6l8.577-3.164a9.579 9.579 0 0 1 7.936.6l4.192 2.305a7.533 7.533 0 0 0 5.812.633l12.964-3.856a9.492 9.492 0 0 1 7.576.93l6.9 4.04a1 1 0 1 1 -1.01 1.726l-6.9-4.041a7.516 7.516 0 0 0 -6-.738l-12.964 3.856a9.51 9.51 0 0 1 -7.345-.8l-4.193-2.3a7.575 7.575 0 0 0 -6.28-.478l-8.58 3.168a9.55 9.55 0 0 1 -8.2-.753l-2.816-1.664a7.528 7.528 0 0 0 -6.745-.5l-6 2.458a9.538 9.538 0 0 1 -9.454-1.254 7.573 7.573 0 0 0 -7.417-1.032l-6.109 2.435a9.584 9.584 0 0 1 -9.039-1.053l-.723-.5a7.564 7.564 0 0 0 -7.443-.716l-8.881 3.961a.994.994 0 0 1 -.405.089z" fill="#2f3a5a"/><path d="m120.1 101.484a8.555 8.555 0 0 0 -6.786-.833l-12.964 3.855a8.551 8.551 0 0 1 -6.579-.716l-4.192-2.3a8.549 8.549 0 0 0 -7.108-.54l-8.58 3.168a8.555 8.555 0 0 1 -7.348-.676l-2.815-1.664a8.554 8.554 0 0 0 -7.633-.564l-6 2.459a8.581 8.581 0 0 1 -8.471-1.127 8.582 8.582 0 0 0 -8.393-1.159l-6.109 2.436a8.572 8.572 0 0 1 -8.1-.945l-.724-.5a8.569 8.569 0 0 0 -8.421-.809l-8.877 3.955v7.188h126v-7.188z" fill="#4fa4d1"/><path d="m120.1 107.692a8.559 8.559 0 0 0 -6.786-.833l-12.964 3.855a8.556 8.556 0 0 1 -6.58-.714l-4.192-2.3a8.549 8.549 0 0 0 -7.108-.539l-8.58 3.168a8.558 8.558 0 0 1 -7.348-.676l-2.815-1.664a8.557 8.557 0 0 0 -7.633-.565l-6 2.459a8.576 8.576 0 0 1 -8.471-1.127 8.582 8.582 0 0 0 -8.393-1.158l-6.109 2.435a8.57 8.57 0 0 1 -8.1-.945l-.724-.5a8.571 8.571 0 0 0 -8.421-.809l-8.876 3.954v7.188h126v-7.188z" fill="#6bb3d9"/></g></svg>