<svg height="512" viewBox="0 0 128 128" width="512" xmlns="http://www.w3.org/2000/svg"><g id="icon"><rect fill="#dbe2eb" height="5.078" rx="1.258" width="66.295" x="24.441" y="37.347"/><path d="m89.478 43.425h-63.778a2.261 2.261 0 0 1 -2.258-2.258v-2.567a2.26 2.26 0 0 1 2.258-2.253h63.78a2.26 2.26 0 0 1 2.256 2.253v2.563a2.261 2.261 0 0 1 -2.258 2.262zm-63.778-5.078a.258.258 0 0 0 -.258.257v2.563a.259.259 0 0 0 .258.258h63.78a.259.259 0 0 0 .258-.258v-2.567a.258.258 0 0 0 -.258-.257z" fill="#2f3a5a"/><path d="m127 73.643v6.322a4.436 4.436 0 0 1 -3.883 4.4l-5.751.712a4.362 4.362 0 0 1 -.547.031h-100.419a4.439 4.439 0 0 1 -1.062-.133l-10.97-2.713a4.423 4.423 0 0 1 -3.368-4.298v-27.948a4.434 4.434 0 0 1 2.594-4.032l9.994-4.54a4.382 4.382 0 0 1 1.836-.4h84.041a4.451 4.451 0 0 1 1.626.3l10.751 4.243c11.908 4.891 14.791 24.839 15.127 27.5a4.561 4.561 0 0 1 .031.556z" fill="#ef5361"/><path d="m116.819 86.106h-100.419a5.386 5.386 0 0 1 -1.3-.162l-10.972-2.712a5.409 5.409 0 0 1 -4.128-5.268v-27.948a5.441 5.441 0 0 1 3.18-4.942l9.994-4.541a5.358 5.358 0 0 1 2.25-.488h84.041a5.4 5.4 0 0 1 1.992.375l10.752 4.243c12.221 5.02 15.266 24.455 15.752 28.3a5.48 5.48 0 0 1 .039.681v6.32a5.447 5.447 0 0 1 -4.758 5.391l-5.753.712a5.31 5.31 0 0 1 -.67.039zm-101.395-44.061a3.37 3.37 0 0 0 -1.419.308l-10 4.542a3.437 3.437 0 0 0 -2.005 3.121v27.948a3.415 3.415 0 0 0 2.605 3.327l10.973 2.709a3.4 3.4 0 0 0 .822.1h100.419a3.254 3.254 0 0 0 .418-.023l5.757-.712a3.443 3.443 0 0 0 3.006-3.401v-6.32a3.536 3.536 0 0 0 -.023-.432c-.284-2.236-3.1-22-14.515-26.694l-10.739-4.237a3.462 3.462 0 0 0 -1.258-.236z" fill="#2f3a5a"/><path d="m100.332 60.639-6.725-11.939a1.636 1.636 0 0 0 -1.425-.833h-78a1.635 1.635 0 0 0 -1.535 2.2l4.393 11.938a1.635 1.635 0 0 0 1.534 1.071h80.334a1.635 1.635 0 0 0 1.424-2.437z" fill="#b0b3c1"/><path d="m98.91 63.08h-80.34a1.642 1.642 0 0 1 -1.53-1.07l-1.07-2.92h77.32a1.633 1.633 0 0 0 1.42-2.44l-4.95-8.79h2.42a1.651 1.651 0 0 1 1.43.83l6.72 11.95a1.633 1.633 0 0 1 -1.42 2.44z" fill="#9297ab"/><path d="m98.908 64.076h-80.334a2.647 2.647 0 0 1 -2.474-1.725l-4.391-11.944a2.635 2.635 0 0 1 2.473-3.545h78a2.64 2.64 0 0 1 2.3 1.342l6.718 11.944a2.635 2.635 0 0 1 -2.3 3.928zm-84.726-15.214a.635.635 0 0 0 -.6.854l4.396 11.944a.637.637 0 0 0 .6.416h80.33a.635.635 0 0 0 .553-.947l-6.726-11.943a.634.634 0 0 0 -.553-.324z" fill="#2f3a5a"/><path d="m116.663 82.512a8.619 8.619 0 0 1 -.4 2.594h-16.282a8.542 8.542 0 1 1 16.682-2.594z" fill="#9297ab"/><path d="m116.264 86.106h-16.283a1 1 0 0 1 -.954-.7 9.646 9.646 0 0 1 -.444-2.894 9.54 9.54 0 1 1 19.08 0 9.647 9.647 0 0 1 -.445 2.894 1 1 0 0 1 -.954.7zm-15.514-2h14.75a7.691 7.691 0 0 0 .168-1.594 7.54 7.54 0 1 0 -15.08 0 7.69 7.69 0 0 0 .162 1.594z" fill="#2f3a5a"/><g fill="#da2a47"><path d="m95.926 85.106h-2v-9.789h-50.126v9.789h-2v-10.789a1 1 0 0 1 1-1h52.126a1 1 0 0 1 1 1z"/><path d="m58.588 74.317h2v10.789h-2z"/><path d="m77.139 74.317h2v10.789h-2z"/><path d="m1 67.513h114.225v2h-114.225z"/></g><path d="m111.842 45.593-6.186 3.864a2.79 2.79 0 0 0 -.984 3.675l9.788 18.394a2.784 2.784 0 0 0 2.217 1.468l10.323.906v-.515s-2.391-22.549-15.158-27.792z" fill="#b0b3c1"/><path d="m127 73.386v.514l-10.322-.9a2.8 2.8 0 0 1 -2.219-1.469l-6.618-12.439a22.744 22.744 0 0 0 1.665 1.57c5.422 4.61 12 5.978 15.556 3.47a58.921 58.921 0 0 1 1.938 9.254z" fill="#9297ab"/><g fill="#2f3a5a"><path d="m81.408 47.862h2v15.213h-2z"/><path d="m64.167 47.862h2v15.213h-2z"/><path d="m46.924 47.862h2v15.213h-2z"/><path d="m29.682 47.862h2v15.213h-2z"/><path d="m116.819 86.106h-100.419a5.386 5.386 0 0 1 -1.3-.162l-10.972-2.712a5.409 5.409 0 0 1 -4.128-5.268v-27.948a5.441 5.441 0 0 1 3.18-4.942l9.994-4.541a5.358 5.358 0 0 1 2.25-.488h84.041a5.4 5.4 0 0 1 1.992.375l10.752 4.243c12.221 5.02 15.266 24.455 15.752 28.3a5.48 5.48 0 0 1 .039.681v6.32a5.447 5.447 0 0 1 -4.758 5.391l-5.753.712a5.31 5.31 0 0 1 -.67.039zm-101.395-44.061a3.37 3.37 0 0 0 -1.419.308l-10 4.542a3.437 3.437 0 0 0 -2.005 3.121v27.948a3.415 3.415 0 0 0 2.605 3.327l10.973 2.709a3.4 3.4 0 0 0 .822.1h100.419a3.254 3.254 0 0 0 .418-.023l5.757-.712a3.443 3.443 0 0 0 3.006-3.401v-6.32a3.536 3.536 0 0 0 -.023-.432c-.284-2.236-3.1-22-14.515-26.694l-10.739-4.237a3.462 3.462 0 0 0 -1.258-.236z"/></g><path d="m108.123 76.894a5.62 5.62 0 1 0 5.62 5.62 5.62 5.62 0 0 0 -5.62-5.62z" fill="#b0b3c1"/><path d="m108.123 89.134a6.62 6.62 0 1 1 6.62-6.62 6.627 6.627 0 0 1 -6.62 6.62zm0-11.24a4.62 4.62 0 1 0 4.62 4.62 4.626 4.626 0 0 0 -4.62-4.62z" fill="#2f3a5a"/><path d="m108.119 80.6a1.912 1.912 0 1 0 1.911 1.911 1.912 1.912 0 0 0 -1.911-1.911z" fill="#dbe2eb"/><path d="m108.119 85.426a2.912 2.912 0 1 1 2.911-2.912 2.915 2.915 0 0 1 -2.911 2.912zm0-3.823a.912.912 0 1 0 .911.911.912.912 0 0 0 -.911-.914z" fill="#2f3a5a"/><path d="m34.792 82.512a8.618 8.618 0 0 1 -.4 2.594h-16.281a8.542 8.542 0 1 1 16.681-2.594z" fill="#9297ab"/><path d="m34.394 86.106h-16.283a1 1 0 0 1 -.954-.7 9.657 9.657 0 0 1 -.445-2.894 9.54 9.54 0 1 1 18.636 2.894 1 1 0 0 1 -.954.7zm-15.514-2h14.745a7.69 7.69 0 0 0 .167-1.594 7.54 7.54 0 0 0 -15.08 0 7.691 7.691 0 0 0 .168 1.594z" fill="#2f3a5a"/><path d="m26.252 76.894a5.62 5.62 0 1 0 5.62 5.62 5.62 5.62 0 0 0 -5.62-5.62z" fill="#b0b3c1"/><path d="m26.252 89.134a6.62 6.62 0 1 1 6.621-6.62 6.627 6.627 0 0 1 -6.621 6.62zm0-11.24a4.62 4.62 0 1 0 4.621 4.62 4.626 4.626 0 0 0 -4.621-4.62z" fill="#2f3a5a"/><path d="m26.249 80.6a1.912 1.912 0 1 0 1.911 1.911 1.912 1.912 0 0 0 -1.911-1.911z" fill="#dbe2eb"/><path d="m26.249 85.426a2.912 2.912 0 1 1 2.911-2.912 2.916 2.916 0 0 1 -2.911 2.912zm0-3.823a.912.912 0 1 0 .911.911.913.913 0 0 0 -.911-.914z" fill="#2f3a5a"/><path d="m128 74.993-11.41-1a3.777 3.777 0 0 1 -3.013-2l-9.787-18.393a3.8 3.8 0 0 1 1.336-4.993l6.621-4.136.475.2c13.167 5.404 15.672 27.664 15.778 28.609v.106zm-16.074-28.274-5.74 3.587a1.8 1.8 0 0 0 -.631 2.357l9.788 18.394a1.785 1.785 0 0 0 1.422.942l9.152.8c-.517-3.71-3.517-21.31-13.991-26.08z" fill="#2f3a5a"/><path d="m112.6 63.482a1 1 0 0 1 -1-1v-5.01a2.145 2.145 0 0 0 -2.144-2.143h-6.09a1 1 0 0 1 0-2h6.09a4.148 4.148 0 0 1 4.144 4.143v5.01a1 1 0 0 1 -1 1z" fill="#2f3a5a"/><rect fill="#84879c" height="8.378" rx="1.025" width="4.219" x="110.436" y="58.116"/><path d="m113.631 67.494h-2.17a2.027 2.027 0 0 1 -2.024-2.025v-6.328a2.027 2.027 0 0 1 2.024-2.025h2.17a2.027 2.027 0 0 1 2.025 2.025v6.328a2.027 2.027 0 0 1 -2.025 2.025zm-2.17-8.378-.024 6.353 2.194.025a.025.025 0 0 0 .025-.025v-6.328z" fill="#2f3a5a"/></g></svg>