<svg height="512" viewBox="0 0 128 128" width="512" xmlns="http://www.w3.org/2000/svg"><g id="icon"><path d="m48.514 57.987-11.824-27.872-17.779-5.197 1.122-3.839 19.599 5.729 12.565 29.617z" fill="#dbe2eb"/><path d="m47.984 59.3-12.029-28.358-18.284-5.342 1.683-5.758 21.014 6.142 13.14 30.974zm-27.833-35.061 17.274 5.05 11.619 27.387 1.842-.781-11.986-28.261-18.188-5.315z" fill="#2f3a5a"/><path d="m86.579 22.638h3.349v44.42h-3.349z" fill="#9297ab" transform="matrix(.928 .372 -.372 .928 22.997 -29.594)"/><path d="m82.108 67.389-4.966-1.989 17.258-43.093 4.965 1.993zm-2.365-3.1 1.252.5 15.77-39.38-1.253-.5z" fill="#2f3a5a"/><path d="m118.405 51.286s-4.751-7.762-16.849-5.324c-.044.019-.1.015-.14.034q-8.829-10.024-23.474-9.4a.549.549 0 0 0 -.093-.127c-7.062-10.093-15.849-7.769-15.849-7.769 27.853-7.758 43.15-27.32 44.16-28.628a.269.269 0 0 0 .047-.072s-3.136 25.568 12.198 51.286z" fill="#ef5361"/><path d="m118.406 52.286a1 1 0 0 1 -.852-.476c-.193-.308-4.592-7.119-15.785-4.871l-.078.019a1 1 0 0 1 -1.025-.3c-5.652-6.416-13.288-9.469-22.681-9.062a1 1 0 0 1 -.867-.433l-.026-.04a.95.95 0 0 1 -.062-.08c-6.549-9.358-14.448-7.463-14.78-7.377a1 1 0 0 1 -.52-1.932c26.894-7.488 41.908-26.034 43.621-28.25a1 1 0 0 1 1.109-.45 1 1 0 0 1 .74 1.089c-.031.252-2.9 25.547 12.064 50.65a1 1 0 0 1 -.858 1.513zm-12.271-7.8a16.968 16.968 0 0 1 8.57 2.154 92.24 92.24 0 0 1 -9.7-43.621 91.317 91.317 0 0 1 -37.127 24.871c3.145.776 7.044 2.8 10.564 7.687 9.571-.283 17.418 2.85 23.334 9.323a23.935 23.935 0 0 1 4.359-.419z" fill="#2f3a5a"/><path d="m101.556 45.962c-.044.019-.1.015-.14.034q-8.829-10.024-23.474-9.4a.549.549 0 0 0 -.093-.127c17.065-14.694 27.577-35.014 28.311-36.397a.269.269 0 0 0 .047-.072s-7.66 25.982-4.651 45.962z" fill="#da2a47"/><path d="m101.417 47a1 1 0 0 1 -.751-.339c-5.652-6.416-13.288-9.469-22.681-9.062a1 1 0 0 1 -.867-.433l-.026-.04a1 1 0 0 1 .105-1.411c15.359-13.229 25.328-30.895 28.017-35.994l.063-.117a.886.886 0 0 1 .071-.115 1 1 0 0 1 1.192-.431 1 1 0 0 1 .626 1.226c-.076.258-7.562 26-4.622 45.529a1 1 0 0 1 -.6 1.069 1.755 1.755 0 0 1 -.257.076 1.029 1.029 0 0 1 -.27.042zm-21.04-11.433c7.9.153 14.555 2.752 19.84 7.746-1.311-12.982 1.313-27.861 3.24-36.45-4.498 7.443-12.41 19.009-23.08 28.704z" fill="#2f3a5a"/><path d="m106.213 0s-15.376 20.665-44.213 28.69c0 0 8.881-2.328 15.941 7.9q14.642-.611 23.479 9.4c12.166-2.525 16.986 5.289 16.986 5.289-15.331-25.713-12.193-51.279-12.193-51.279z" fill="none"/><path d="m98.547 61.203-3.786-6.1h-8.414l-2.525-1.263h-11.149l-2.524-1.262h-6.521l-6.78 2.735-3.107-.631-5.048-.842h-2.104-7.573l-10.097-2.314-5.049 3.366h-4.417l-2.945 6.311 74.046 1.683z" fill="#dbe2eb"/><path d="m90.646 63.888h-.115l-75.577-1.72 3.862-8.276h4.751l5.156-3.436 10.406 2.384 9.728.014 5.049.841 2.846.578 6.682-2.695h6.951l2.524 1.262h11.149l2.525 1.26h8.734l4.832 7.785zm-72.584-3.65 72.4 1.645 6.484-1.364-2.741-4.419h-8.094l-2.525-1.26h-11.148l-2.525-1.262h-6.091l-6.879 2.775-3.4-.691-4.933-.822-9.817-.025-9.678-2.215-4.942 3.3h-4.084z" fill="#2f3a5a"/><path d="m101.625 61.083a3.917 3.917 0 0 0 -3.588-2.383h-80.953a3.9 3.9 0 0 0 -3.576 2.356 47.966 47.966 0 1 0 88.117.029z" fill="#a67f74"/><path d="m105.53 80.03a47.9 47.9 0 0 1 -79.25 36.29 47.082 47.082 0 0 0 16.97 4.4 47.992 47.992 0 0 0 49.13-62.02h5.66a3.919 3.919 0 0 1 3.59 2.38 47.886 47.886 0 0 1 3.9 18.95z" fill="#896561"/><path d="m57.6 129q-1.692 0-3.4-.113a48.966 48.966 0 0 1 -41.61-68.229 4.893 4.893 0 0 1 4.494-2.958h80.953a4.914 4.914 0 0 1 4.506 2.988 48.586 48.586 0 0 1 3.983 19.347 49.145 49.145 0 0 1 -15.526 35.765 48.492 48.492 0 0 1 -33.4 13.2zm-40.516-69.3a2.894 2.894 0 0 0 -2.658 1.752 46.965 46.965 0 0 0 75.212 52.888 47.141 47.141 0 0 0 14.888-34.3 46.6 46.6 0 0 0 -3.819-18.555 2.916 2.916 0 0 0 -2.67-1.78z" fill="#2f3a5a"/><g fill="#967169"><path d="m94.511 95.931a1 1 0 0 1 -.955-1.3c4.256-13.7.114-21.8.071-21.88a1 1 0 0 1 1.766-.941c.19.355 4.6 8.859.073 23.415a1 1 0 0 1 -.955.706z"/><path d="m91.924 68.682a1 1 0 0 1 -.775-.367l-.858-1.05a1 1 0 1 1 1.547-1.265l.859 1.049a1 1 0 0 1 -.773 1.634z"/><path d="m82.213 111.823a.986.986 0 0 1 -.492-.131 1 1 0 0 1 -.376-1.363 30.7 30.7 0 0 0 3.779-19.722 1 1 0 0 1 1.955-.421 32.138 32.138 0 0 1 -3.995 21.13 1 1 0 0 1 -.871.507z"/><path d="m86.123 85.576a1 1 0 0 1 -1-1v-1.814a1 1 0 0 1 2 0v1.814a1 1 0 0 1 -1 1z"/><path d="m75.3 89.433a1.017 1.017 0 0 1 -.2-.021 1 1 0 0 1 -.776-1.182 38.417 38.417 0 0 0 -.074-14.473 1 1 0 1 1 1.966-.366 40.424 40.424 0 0 1 .066 15.245 1 1 0 0 1 -.982.797z"/><path d="m74.247 70.417a1 1 0 0 1 -.963-.734c-.135-.487-.2-.678-.225-.752l.885-.349.32-1.024c.554.174.653.531.947 1.591a1 1 0 0 1 -.964 1.268z"/><path d="m68.42 119.287a1 1 0 0 1 -.837-1.544c3.624-5.588 4.125-14.824 4.129-14.916a1 1 0 1 1 2 .1c-.02.4-.535 9.869-4.449 15.9a1 1 0 0 1 -.843.46z"/><path d="m72.711 98.424a1 1 0 0 1 -1-1v-.98a1 1 0 0 1 2 0v.98a1 1 0 0 1 -1 1z"/><path d="m21.45 95.931a1 1 0 0 1 -.954-.7c-4.524-14.556-.117-23.06.073-23.415a1 1 0 0 1 1.765.941c-.042.08-4.185 8.185.072 21.88a1 1 0 0 1 -.956 1.3z"/><path d="m24.038 68.682a1 1 0 0 1 -.773-1.634l.859-1.048a1 1 0 1 1 1.547 1.266l-.859 1.05a.994.994 0 0 1 -.774.366z"/><path d="m33.749 111.823a1 1 0 0 1 -.871-.507 32.131 32.131 0 0 1 -4-21.13 1 1 0 0 1 1.955.421 30.693 30.693 0 0 0 3.779 19.722 1 1 0 0 1 -.868 1.494z"/><path d="m29.838 85.576a1 1 0 0 1 -1-1v-1.814a1 1 0 0 1 2 0v1.814a1 1 0 0 1 -1 1z"/><path d="m40.658 89.433a1 1 0 0 1 -.978-.8 40.427 40.427 0 0 1 .065-15.245 1 1 0 1 1 1.966.366 38.419 38.419 0 0 0 -.073 14.473 1 1 0 0 1 -.776 1.182 1.024 1.024 0 0 1 -.204.024z"/><path d="m41.714 70.417a.99.99 0 0 1 -.267-.038 1 1 0 0 1 -.7-1.23c.293-1.058.392-1.414.944-1.59l.3.952.254.968-.245-.968.9.422c-.029.074-.09.265-.225.75a1 1 0 0 1 -.961.734z"/><path d="m47.542 119.287a1 1 0 0 1 -.84-.455c-3.915-6.036-4.43-15.5-4.45-15.9a1 1 0 1 1 2-.1c0 .092.511 9.337 4.129 14.916a1 1 0 0 1 -.837 1.544z"/><path d="m43.251 98.424a1 1 0 0 1 -1-1v-.98a1 1 0 0 1 2 0v.98a1 1 0 0 1 -1 1z"/><path d="m57.529 82a1.044 1.044 0 0 1 -.146-.01 1 1 0 0 1 -.845-1.134 39.377 39.377 0 0 0 0-9.332 1 1 0 1 1 1.982-.265 40.666 40.666 0 0 1 0 9.886 1 1 0 0 1 -.991.855z"/><path d="m58.4 103.877a1 1 0 0 1 -.97-.765 23.823 23.823 0 0 1 -.582-9.981 1 1 0 0 1 1.953.433 22.376 22.376 0 0 0 .572 9.078 1 1 0 0 1 -.736 1.207 1.016 1.016 0 0 1 -.237.028z"/><path d="m57.992 115.876a1 1 0 0 1 -1-.943l-.167-2.955a1 1 0 1 1 2-.114l.167 2.955a1 1 0 0 1 -.942 1.056z"/></g></g></svg>