<svg height="512" viewBox="0 0 128 128" width="512" xmlns="http://www.w3.org/2000/svg"><g id="icon"><path d="m124.155 26.718h-6.6a2.012 2.012 0 0 0 -2.012 2.012v11l-5.7 5.633.486 3.241 6.783-6.131a2 2 0 0 0 .447.054h6.6a2.012 2.012 0 0 0 2.012-2.012v-11.785a2.012 2.012 0 0 0 -2.016-2.012z" fill="#84879c"/><path d="m110.327 49.6a.985.985 0 0 1 -.337-.059 1 1 0 0 1 -.652-.793l-.486-3.241a1 1 0 0 1 .286-.86l5.407-5.339v-10.579a3.015 3.015 0 0 1 3.012-3.012h6.6a3.015 3.015 0 0 1 3.012 3.012v11.781a3.015 3.015 0 0 1 -3.012 3.012h-6.6-.119l-6.438 5.818a1 1 0 0 1 -.673.26zm.578-3.887.135.895 5.4-4.88a1 1 0 0 1 .893-.234.984.984 0 0 0 .225.029h6.6a1.013 1.013 0 0 0 1.012-1.012v-11.782a1.013 1.013 0 0 0 -1.012-1.012h-6.6a1.013 1.013 0 0 0 -1.012 1.012v11a1 1 0 0 1 -.3.712z" fill="#2f3a5a"/><path d="m3.845 26.718h6.6a2.012 2.012 0 0 1 2.012 2.012v11l5.7 5.633-.484 3.237-6.783-6.132a2 2 0 0 1 -.447.054h-6.6a2.012 2.012 0 0 1 -2.01-2.012v-11.78a2.012 2.012 0 0 1 2.012-2.012z" fill="#84879c"/><g fill="#2f3a5a"><path d="m17.673 49.6a1 1 0 0 1 -.673-.26l-6.44-5.82h-.119-6.6a3.015 3.015 0 0 1 -3.008-3.01v-11.781a3.015 3.015 0 0 1 3.012-3.012h6.6a3.015 3.015 0 0 1 3.012 3.012v10.578l5.407 5.339a1 1 0 0 1 .286.86l-.486 3.241a1 1 0 0 1 -.652.793.985.985 0 0 1 -.339.06zm-6.783-8.132a1 1 0 0 1 .671.259l5.4 4.88.135-.895-5.343-5.275a1 1 0 0 1 -.3-.712v-11a1.013 1.013 0 0 0 -1.012-1.012h-6.6a1.013 1.013 0 0 0 -1.012 1.012v11.785a1.013 1.013 0 0 0 1.012 1.012h6.6a.984.984 0 0 0 .225-.029 1.049 1.049 0 0 1 .224-.025z"/><path d="m119.141 90.75-13.508-.05a2.763 2.763 0 0 0 -2.762 2.762l.048 22.906a2.762 2.762 0 0 0 2.762 2.761h13.46a2.761 2.761 0 0 0 2.762-2.761v-22.856a2.762 2.762 0 0 0 -2.762-2.762z"/><path d="m119.142 120.131h-13.461a3.765 3.765 0 0 1 -3.762-3.761l-.047-22.9a3.766 3.766 0 0 1 3.761-3.764l13.512.048a3.765 3.765 0 0 1 3.758 3.762v22.854a3.765 3.765 0 0 1 -3.761 3.761zm-13.512-28.431a1.763 1.763 0 0 0 -1.758 1.762l.047 22.9a1.764 1.764 0 0 0 1.762 1.763h13.461a1.763 1.763 0 0 0 1.761-1.761v-22.852a1.764 1.764 0 0 0 -1.761-1.762z"/><path d="m22.73 90.75-13.508-.05a2.763 2.763 0 0 0 -2.762 2.764l.048 22.906a2.762 2.762 0 0 0 2.762 2.761h13.46a2.761 2.761 0 0 0 2.762-2.761v-22.858a2.762 2.762 0 0 0 -2.762-2.762z"/><path d="m22.73 120.131h-13.46a3.766 3.766 0 0 1 -3.762-3.761l-.048-22.9a3.767 3.767 0 0 1 3.762-3.77l13.512.048a3.765 3.765 0 0 1 3.758 3.762v22.86a3.765 3.765 0 0 1 -3.762 3.761zm-13.511-28.431a1.764 1.764 0 0 0 -1.759 1.764l.048 22.9a1.764 1.764 0 0 0 1.762 1.763h13.46a1.763 1.763 0 0 0 1.762-1.761v-22.854a1.764 1.764 0 0 0 -1.762-1.762z"/></g><path d="m121.9 98.46v17.91a2.759 2.759 0 0 1 -2.76 2.76h-13.46a2.766 2.766 0 0 1 -2.76-2.76l-.04-17.91z" fill="#84879c"/><path d="m119.14 120.13h-13.46a3.765 3.765 0 0 1 -3.76-3.76l-.04-17.908a1 1 0 0 1 1-1h19.02a1 1 0 0 1 1 1v17.91a3.765 3.765 0 0 1 -3.76 3.758zm-15.258-20.67.038 16.908a1.762 1.762 0 0 0 1.76 1.762h13.46a1.763 1.763 0 0 0 1.76-1.76v-16.91z" fill="#2f3a5a"/><path d="m25.49 98.46v17.91a2.759 2.759 0 0 1 -2.76 2.76h-13.46a2.759 2.759 0 0 1 -2.76-2.76l-.04-17.91z" fill="#84879c"/><path d="m22.73 120.13h-13.46a3.765 3.765 0 0 1 -3.76-3.76l-.04-17.908a1 1 0 0 1 1-1h19.02a1 1 0 0 1 1 1v17.91a3.765 3.765 0 0 1 -3.76 3.758zm-15.258-20.67.038 16.908a1.762 1.762 0 0 0 1.76 1.762h13.46a1.762 1.762 0 0 0 1.76-1.76v-16.91z" fill="#2f3a5a"/><path d="m116.08 60.383-3.25-.52a4.182 4.182 0 0 0 -.61-.05 2.81 2.81 0 0 0 -.5.04.772.772 0 0 0 -.15.02 1.525 1.525 0 0 0 -.37.08.109.109 0 0 1 -.05.01c-.17.06-.34.12-.5.19a2.754 2.754 0 0 0 -.38.2.435.435 0 0 0 -.07.04 3.266 3.266 0 0 0 -.36.25l-.02.02c-.11.09-.22.19-.32.29a1.538 1.538 0 0 0 -.12.13 2.424 2.424 0 0 0 -.25.31 2.2 2.2 0 0 0 -.21.32.827.827 0 0 0 -.09.16.149.149 0 0 0 -.03.07 1.73 1.73 0 0 0 -.14.31.689.689 0 0 0 -.04.1 3.809 3.809 0 0 0 -.13.45l-1.11 4.9a3.467 3.467 0 0 0 -.1.85v14.69h-86.56v-14.69a3.467 3.467 0 0 0 -.1-.85l-1.11-4.9a3.809 3.809 0 0 0 -.13-.45.689.689 0 0 0 -.04-.1 1.73 1.73 0 0 0 -.14-.31.149.149 0 0 0 -.03-.07.827.827 0 0 0 -.09-.16 2.2 2.2 0 0 0 -.21-.32 2.424 2.424 0 0 0 -.25-.31 1.538 1.538 0 0 0 -.12-.13c-.1-.1-.21-.2-.32-.29l-.02-.02a3.266 3.266 0 0 0 -.36-.25.435.435 0 0 0 -.07-.04 2.754 2.754 0 0 0 -.38-.2c-.16-.07-.33-.13-.5-.19a.109.109 0 0 1 -.05-.01 1.525 1.525 0 0 0 -.37-.08.772.772 0 0 0 -.15-.02 2.81 2.81 0 0 0 -.5-.04 4.182 4.182 0 0 0 -.61.05l-3.25.52 6.87-44.51a5.589 5.589 0 0 1 5.33-4.74 386.583 386.583 0 0 1 79.76 0 5.589 5.589 0 0 1 5.33 4.74z" fill="#f6ba5b"/><path d="m107.28 84.243h-86.56a1 1 0 0 1 -1-1v-14.69a2.492 2.492 0 0 0 -.07-.608l-1.115-4.921a3.086 3.086 0 0 0 -.1-.354 1.754 1.754 0 0 0 -.09-.213 1.032 1.032 0 0 1 -.076-.157c-.008-.016 0-.011 0-.011-.021-.032-.041-.063-.059-.1a1.284 1.284 0 0 0 -.113-.173 1.029 1.029 0 0 1 -.061-.086 1.6 1.6 0 0 0 -.152-.181l-.083-.091c-.078-.077-.163-.155-.248-.224-.012-.011-.028-.024-.044-.04a2.446 2.446 0 0 0 -.225-.151 1.07 1.07 0 0 1 -.1-.058 1.805 1.805 0 0 0 -.248-.126c-.1-.045-.229-.09-.356-.135-.031-.008-.062-.016-.091-.026a.584.584 0 0 0 -.13-.031.816.816 0 0 1 -.112-.016.588.588 0 0 1 -.132-.016 2.431 2.431 0 0 0 -.789.014l-3.241.519a.987.987 0 0 1 -.863-.279 1 1 0 0 1 -.283-.861l6.87-44.51a6.593 6.593 0 0 1 6.284-5.587 389.109 389.109 0 0 1 79.894 0 6.572 6.572 0 0 1 6.218 5.583l6.87 44.51a1 1 0 0 1 -.283.861.987.987 0 0 1 -.863.279l-3.25-.52a2.452 2.452 0 0 0 -.78-.013 1 1 0 0 1 -.172.015 1.381 1.381 0 0 0 -.2.048c-.029.01-.06.018-.091.026-.135.048-.258.092-.374.143a1.683 1.683 0 0 0 -.23.118.865.865 0 0 1 -.093.054c-.029.018-.059.035-.082.047s-.08.055-.148.108l-.044.04c-.085.069-.17.147-.248.224-.011.014-.071.077-.083.091a1.6 1.6 0 0 0 -.152.181 1.029 1.029 0 0 1 -.061.086 1.284 1.284 0 0 0 -.113.173.891.891 0 0 1 -.057.093v.008a1.04 1.04 0 0 1 -.079.165.772.772 0 0 0 -.058.138 1.182 1.182 0 0 1 -.048.11c-.02.075-.059.184-.081.293l-1.116 4.926a2.542 2.542 0 0 0 -.075.629v14.69a1 1 0 0 1 -1.014 1.006zm-85.56-2h84.56v-13.69a4.463 4.463 0 0 1 .13-1.092l1.105-4.879a4.614 4.614 0 0 1 .157-.546 1.455 1.455 0 0 1 .066-.171 2.7 2.7 0 0 1 .156-.35.955.955 0 0 1 .085-.166.725.725 0 0 1 .1-.175 3.13 3.13 0 0 1 .242-.366 3.8 3.8 0 0 1 .318-.393 2.19 2.19 0 0 1 .157-.169c.123-.122.257-.245.392-.355a3.815 3.815 0 0 1 .492-.35l.064-.037a3.87 3.87 0 0 1 .489-.258c.195-.086.382-.153.57-.22.041-.014.085-.026.13-.037a2.6 2.6 0 0 1 .5-.107c.061-.011.119-.019.177-.024a4.5 4.5 0 0 1 1.371.017l1.9.3-6.66-43.154a4.593 4.593 0 0 0 -4.376-3.892 387.8 387.8 0 0 0 -79.621 0 4.617 4.617 0 0 0 -4.447 3.9l-6.66 43.154 1.894-.3a4.5 4.5 0 0 1 1.379-.018c.06.005.119.013.179.024a2.522 2.522 0 0 1 .484.1.951.951 0 0 1 .129.037c.205.072.392.139.569.217a4.092 4.092 0 0 1 .49.256c.037.02.072.041.1.059a3.83 3.83 0 0 1 .452.313.928.928 0 0 1 .092.086 3.541 3.541 0 0 1 .323.292 2.519 2.519 0 0 1 .192.211 3.129 3.129 0 0 1 .283.351 3.283 3.283 0 0 1 .243.367 1.7 1.7 0 0 1 .13.231.812.812 0 0 1 .082.167 2.946 2.946 0 0 1 .125.292 1.571 1.571 0 0 1 .068.177 4.725 4.725 0 0 1 .161.566l1.1 4.874a4.413 4.413 0 0 1 .125 1.071z" fill="#2f3a5a"/><path d="m107.9 44.02q-23.7-2.02-47.54-1.87c-.98 0-1.96.01-2.93.02-1.22.01-2.43.03-3.64.07q-2.955.045-5.91.14-13.86.435-27.76 1.64l4.24-27.49.2-.01.15.01a373.6 373.6 0 0 1 38.85-2.03h.04c1.91 0 3.84.01 5.76.05 1.19.01 2.38.04 3.57.07.95.02 1.91.05 2.86.09 9.11.28 18.33.9 27.52 1.83l.19.01.18.01z" fill="#84879c"/><path d="m107.9 45.02c-.028 0-.057 0-.085 0-15.87-1.357-31.83-1.983-47.448-1.867-.948 0-1.889.009-2.822.019h-.105c-1.213.01-2.415.03-3.617.07-1.983.03-3.948.08-5.913.139-9.29.292-18.611.843-27.7 1.637a1 1 0 0 1 -1.075-1.148l4.24-27.49a1 1 0 0 1 .937-.846l.2-.011a1.181 1.181 0 0 1 .119 0h.064a374.632 374.632 0 0 1 38.865-2.023c1.957 0 3.894.01 5.821.05 1.183.01 2.379.04 3.575.071.952.02 1.919.049 2.876.09 9.011.277 18.293.894 27.579 1.834l.323.017a1 1 0 0 1 .934.846l4.22 27.46a1 1 0 0 1 -.988 1.152zm-43.825-3.884c14.065 0 28.386.6 42.644 1.781l-3.907-25.423c-9.136-.914-18.22-1.513-27.053-1.785-.954-.04-1.907-.069-2.85-.089-1.188-.03-2.373-.06-3.557-.07-1.926-.04-3.849-.05-5.752-.05a372.97 372.97 0 0 0 -38.375 1.982l-3.925 25.433c8.726-.74 17.65-1.255 26.547-1.535 1.976-.059 3.951-.11 5.926-.14 1.2-.039 2.418-.06 3.647-.07h.1c.939-.009 1.887-.019 2.835-.019q1.858-.014 3.72-.015z" fill="#2f3a5a"/><path d="m111.15 59.76c-.17.06-.34.12-.5.19a2.754 2.754 0 0 0 -.38.2.435.435 0 0 0 -.07.04 3.266 3.266 0 0 0 -.36.25l-.02.02c-.11.09-.22.19-.32.29a1.538 1.538 0 0 0 -.12.13 2.424 2.424 0 0 0 -.25.31 2.2 2.2 0 0 0 -.21.32.827.827 0 0 0 -.09.16.149.149 0 0 0 -.03.07 1.73 1.73 0 0 0 -.14.31.689.689 0 0 0 -.04.1 3.809 3.809 0 0 0 -.13.45l-1.11 4.9a3.467 3.467 0 0 0 -.1.85v14.59l-.04.1h-86.48l-.04-.1v-14.59a3.467 3.467 0 0 0 -.1-.85l-1.11-4.9a3.809 3.809 0 0 0 -.13-.45.689.689 0 0 0 -.04-.1 1.73 1.73 0 0 0 -.14-.31.149.149 0 0 0 -.03-.07.827.827 0 0 0 -.09-.16 2.2 2.2 0 0 0 -.21-.32 2.424 2.424 0 0 0 -.25-.31 1.538 1.538 0 0 0 -.12-.13c-.1-.1-.21-.2-.32-.29l-.02-.02a3.266 3.266 0 0 0 -.36-.25.435.435 0 0 0 -.07-.04 2.754 2.754 0 0 0 -.38-.2c-.16-.07-.33-.13-.5-.19l.71-5.12a7.383 7.383 0 0 1 5.93-6.24c12.74-2.42 40.43-2.24 40.51-2.24s27.77-.18 40.51 2.24a7.383 7.383 0 0 1 5.93 6.24z" fill="#f6ba5b"/><path d="m107.24 84.04h-86.48a1 1 0 0 1 -.929-.628l-.04-.1a1.012 1.012 0 0 1 -.071-.372v-14.59a2.492 2.492 0 0 0 -.07-.608l-1.115-4.921a3.086 3.086 0 0 0 -.1-.354 1.877 1.877 0 0 0 -.09-.214.978.978 0 0 1 -.076-.156c-.008-.016 0-.012 0-.012-.021-.031-.041-.063-.059-.1a1.36 1.36 0 0 0 -.113-.174.872.872 0 0 1 -.061-.085 1.518 1.518 0 0 0 -.152-.181l-.083-.091c-.078-.078-.163-.155-.248-.225l-.044-.039a2.446 2.446 0 0 0 -.225-.151.891.891 0 0 1 -.1-.059 1.8 1.8 0 0 0 -.248-.125c-.115-.05-.255-.1-.4-.149a1.02 1.02 0 0 1 -.675-1.086l.71-5.12a8.386 8.386 0 0 1 6.729-7.083c12.525-2.379 39.543-2.259 40.684-2.257 1.164-.007 28.181-.122 40.708 2.257a8.383 8.383 0 0 1 6.738 7.083l.711 5.122a1 1 0 0 1 -.658 1.08l-.017.006c-.141.05-.281.1-.414.157a1.669 1.669 0 0 0 -.23.117c-.03.02-.061.038-.093.055a.926.926 0 0 1 -.082.046c-.013.012-.08.056-.148.109l-.044.039c-.085.07-.17.147-.248.225-.011.014-.071.077-.083.091a1.518 1.518 0 0 0 -.152.181.872.872 0 0 1 -.061.085 1.36 1.36 0 0 0 -.113.174.891.891 0 0 1 -.057.093v.007a.963.963 0 0 1 -.079.165.814.814 0 0 0 -.058.139 1.182 1.182 0 0 1 -.048.11c-.02.075-.059.184-.081.293l-1.116 4.926a2.542 2.542 0 0 0 -.075.629v14.591a1.012 1.012 0 0 1 -.071.372l-.04.1a1 1 0 0 1 -.933.628zm-85.52-2h84.56v-13.69a4.457 4.457 0 0 1 .13-1.092l1.105-4.879a4.614 4.614 0 0 1 .157-.546 1.455 1.455 0 0 1 .066-.171 2.757 2.757 0 0 1 .156-.35.955.955 0 0 1 .085-.166.725.725 0 0 1 .1-.175 3.228 3.228 0 0 1 .242-.367 3.785 3.785 0 0 1 .318-.392 2.019 2.019 0 0 1 .157-.169 5.273 5.273 0 0 1 .392-.355 3.815 3.815 0 0 1 .492-.35c.017-.01.039-.024.064-.037a3.176 3.176 0 0 1 .312-.174l-.6-4.35a6.383 6.383 0 0 0 -5.126-5.4c-12.338-2.343-39.166-2.232-40.3-2.222-1.178-.01-28.007-.121-40.345 2.222a6.385 6.385 0 0 0 -5.127 5.4l-.6 4.348a2.986 2.986 0 0 1 .3.164c.037.02.072.041.1.059a3.83 3.83 0 0 1 .452.313 1.052 1.052 0 0 1 .092.085 3.584 3.584 0 0 1 .323.293 2.5 2.5 0 0 1 .192.21 3.324 3.324 0 0 1 .283.351 3.389 3.389 0 0 1 .243.368 1.64 1.64 0 0 1 .13.231.812.812 0 0 1 .082.167 2.946 2.946 0 0 1 .125.292 1.637 1.637 0 0 1 .068.176 4.794 4.794 0 0 1 .161.567l1.1 4.874a4.407 4.407 0 0 1 .125 1.071z" fill="#2f3a5a"/><path d="m102.018 83.04h-76.036c-.552-3.4-1.276-11.47-.543-16.7 1.1-7.76 2.83-10.87 10.9-12.94 8.051-2.06 27.584-2.32 27.66-2.31.076-.01 19.609.25 27.66 2.31 8.071 2.07 9.805 5.18 10.9 12.94.735 5.23.011 13.3-.541 16.7z" fill="#f6ba5b"/><path d="m102.018 84.04h-76.036a1 1 0 0 1 -.982-.84c-.514-3.159-1.323-11.469-.547-17 1.114-7.89 2.978-11.547 11.642-13.77 7.676-1.964 25.445-2.309 27.782-2.332h.127s.122 0 .127 0c2.335.023 20.105.368 27.782 2.332 8.664 2.223 10.528 5.88 11.642 13.769.776 5.532-.033 13.842-.547 17a1 1 0 0 1 -.99.841zm-75.175-2h74.314c.565-4.01 1.039-11.1.413-15.561-1.062-7.52-2.6-10.172-10.158-12.11-7.875-2.015-26.992-2.278-27.39-2.279h-.044c-.4 0-19.514.264-27.391 2.279-7.556 1.938-9.1 4.59-10.157 12.11-.63 4.459-.152 11.551.413 15.561z" fill="#2f3a5a"/><path d="m125.58 64.96v18.08h-18.3v-14.69a3.467 3.467 0 0 1 .1-.85l1.11-4.9a3.809 3.809 0 0 1 .13-.45.689.689 0 0 1 .04-.1 1.73 1.73 0 0 1 .14-.31.149.149 0 0 1 .03-.07.827.827 0 0 1 .09-.16 2.2 2.2 0 0 1 .21-.32 2.424 2.424 0 0 1 .25-.31 1.538 1.538 0 0 1 .12-.13c.1-.1.21-.2.32-.29l.02-.02a3.266 3.266 0 0 1 .36-.25.435.435 0 0 1 .07-.04 2.754 2.754 0 0 1 .38-.2c.16-.07.33-.13.5-.19a.109.109 0 0 0 .05-.01 1.525 1.525 0 0 1 .37-.08.772.772 0 0 1 .15-.02 2.81 2.81 0 0 1 .5-.04 4.182 4.182 0 0 1 .61.05l3.25.52 6.27.99a3.837 3.837 0 0 1 3.23 3.79z" fill="#f6ba5b"/><path d="m125.58 84.04h-18.3a1 1 0 0 1 -1-1v-14.69a4.457 4.457 0 0 1 .13-1.092l1.105-4.879a4.614 4.614 0 0 1 .157-.546 1.455 1.455 0 0 1 .066-.171 2.757 2.757 0 0 1 .156-.35.955.955 0 0 1 .085-.166.725.725 0 0 1 .1-.175 3.228 3.228 0 0 1 .242-.367 3.785 3.785 0 0 1 .318-.392 2.019 2.019 0 0 1 .157-.169 5.273 5.273 0 0 1 .392-.355 3.815 3.815 0 0 1 .492-.35c.017-.01.039-.024.064-.037a4.012 4.012 0 0 1 .489-.259c.195-.085.382-.152.57-.219a1.233 1.233 0 0 1 .13-.037 2.529 2.529 0 0 1 .5-.107c.061-.011.119-.019.177-.024a4.472 4.472 0 0 1 1.371.016l9.527 1.511a4.822 4.822 0 0 1 4.074 4.778v18.08a1 1 0 0 1 -1.002 1zm-17.3-2h16.3v-17.08a2.83 2.83 0 0 0 -2.389-2.8l-9.519-1.51a2.424 2.424 0 0 0 -.78-.012 1 1 0 0 1 -.172.015 1.26 1.26 0 0 0 -.2.048c-.029.01-.06.018-.091.026-.135.048-.258.092-.374.143a1.669 1.669 0 0 0 -.23.117.873.873 0 0 1 -.093.055.926.926 0 0 1 -.082.046c-.013.012-.08.056-.148.109l-.044.039c-.085.07-.17.147-.248.225-.011.014-.071.077-.083.091a1.518 1.518 0 0 0 -.152.181.872.872 0 0 1 -.061.085 1.36 1.36 0 0 0 -.113.174.891.891 0 0 1 -.057.093v.007a.963.963 0 0 1 -.079.165.814.814 0 0 0 -.058.139 1.182 1.182 0 0 1 -.048.11c-.02.075-.059.184-.081.293l-1.116 4.926a2.542 2.542 0 0 0 -.075.629z" fill="#2f3a5a"/><path d="m20.72 68.35v14.69h-18.3v-18.08a3.837 3.837 0 0 1 3.23-3.79l6.27-.99 3.25-.52a4.182 4.182 0 0 1 .61-.05 2.81 2.81 0 0 1 .5.04.772.772 0 0 1 .15.02 1.525 1.525 0 0 1 .37.08.109.109 0 0 0 .05.01c.17.06.34.12.5.19a2.754 2.754 0 0 1 .38.2.435.435 0 0 1 .07.04 3.266 3.266 0 0 1 .36.25l.02.02c.11.09.22.19.32.29a1.538 1.538 0 0 1 .12.13 2.424 2.424 0 0 1 .25.31 2.2 2.2 0 0 1 .21.32.827.827 0 0 1 .09.16.149.149 0 0 1 .03.07 1.73 1.73 0 0 1 .14.31.689.689 0 0 1 .04.1 3.809 3.809 0 0 1 .13.45l1.11 4.9a3.467 3.467 0 0 1 .1.85z" fill="#f6ba5b"/><path d="m20.72 84.04h-18.3a1 1 0 0 1 -1-1v-18.08a4.82 4.82 0 0 1 4.071-4.777l9.521-1.51a4.437 4.437 0 0 1 1.379-.018c.06 0 .119.013.179.024a2.449 2.449 0 0 1 .484.1q.066.015.129.036c.205.073.392.14.569.218a4.092 4.092 0 0 1 .49.256c.037.02.072.041.1.059a3.83 3.83 0 0 1 .452.313 1.052 1.052 0 0 1 .092.085 3.584 3.584 0 0 1 .323.293 2.5 2.5 0 0 1 .192.21 3.324 3.324 0 0 1 .283.351 3.389 3.389 0 0 1 .243.368 1.64 1.64 0 0 1 .13.231.812.812 0 0 1 .082.167 2.946 2.946 0 0 1 .125.292 1.637 1.637 0 0 1 .068.176 4.794 4.794 0 0 1 .161.567l1.1 4.874a4.407 4.407 0 0 1 .125 1.071v14.694a1 1 0 0 1 -.998 1zm-17.3-2h16.3v-13.69a2.492 2.492 0 0 0 -.07-.608l-1.115-4.921a3.086 3.086 0 0 0 -.1-.354 1.877 1.877 0 0 0 -.09-.214.978.978 0 0 1 -.076-.156c-.008-.016 0-.012 0-.012-.021-.031-.041-.063-.059-.1a1.36 1.36 0 0 0 -.113-.174.872.872 0 0 1 -.061-.085 1.518 1.518 0 0 0 -.152-.181l-.083-.091c-.078-.078-.163-.155-.248-.225l-.044-.039a2.446 2.446 0 0 0 -.225-.151.891.891 0 0 1 -.1-.059 1.8 1.8 0 0 0 -.248-.125c-.1-.046-.229-.09-.356-.135-.031-.008-.062-.016-.091-.026a.532.532 0 0 0 -.13-.031.816.816 0 0 1 -.112-.016.588.588 0 0 1 -.132-.016 2.4 2.4 0 0 0 -.789.014l-9.52 1.513a2.828 2.828 0 0 0 -2.386 2.8z" fill="#2f3a5a"/><path d="m126.054 83.036h-124.108a1.946 1.946 0 0 0 -1.946 1.946v8.643a4.838 4.838 0 0 0 4.839 4.839h118.322a4.838 4.838 0 0 0 4.839-4.839v-8.643a1.946 1.946 0 0 0 -1.946-1.946z" fill="#84879c"/><path d="m123.161 99.464h-118.322a5.845 5.845 0 0 1 -5.839-5.839v-8.643a2.95 2.95 0 0 1 2.946-2.946h124.108a2.95 2.95 0 0 1 2.946 2.946v8.643a5.845 5.845 0 0 1 -5.839 5.839zm-121.215-15.428a.947.947 0 0 0 -.946.946v8.643a3.843 3.843 0 0 0 3.839 3.839h118.322a3.843 3.843 0 0 0 3.839-3.839v-8.643a.947.947 0 0 0 -.946-.946z" fill="#2f3a5a"/><path d="m91.352 59.314a6 6 0 1 0 6 6 6 6 0 0 0 -6-6z" fill="#dbe2eb"/><path d="m91.352 72.315a7 7 0 1 1 7-7 7.009 7.009 0 0 1 -7 7zm0-12a5 5 0 1 0 5 5 5.006 5.006 0 0 0 -5-5.001z" fill="#2f3a5a"/><path d="m36.648 59.314a6 6 0 1 0 6 6 6 6 0 0 0 -6-6z" fill="#dbe2eb"/><path d="m36.648 72.315a7 7 0 1 1 7-7 7.009 7.009 0 0 1 -7 7zm0-12a5 5 0 1 0 5 5 5.006 5.006 0 0 0 -5-5.001z" fill="#2f3a5a"/><path d="m115.6 87.176a3.574 3.574 0 1 0 3.574 3.574 3.574 3.574 0 0 0 -3.574-3.574z" fill="#dbe2eb"/><path d="m115.6 95.324a4.574 4.574 0 1 1 4.574-4.574 4.579 4.579 0 0 1 -4.574 4.574zm0-7.148a2.574 2.574 0 1 0 2.574 2.574 2.576 2.576 0 0 0 -2.574-2.574z" fill="#2f3a5a"/><path d="m12.4 87.176a3.574 3.574 0 1 0 3.573 3.574 3.574 3.574 0 0 0 -3.573-3.574z" fill="#dbe2eb"/><path d="m12.4 95.324a4.574 4.574 0 1 1 4.574-4.574 4.579 4.579 0 0 1 -4.574 4.574zm0-7.148a2.574 2.574 0 1 0 2.574 2.574 2.576 2.576 0 0 0 -2.574-2.574z" fill="#2f3a5a"/><path d="m50.873 59.613a1.836 1.836 0 0 0 -1.837 1.836v15.26a1.837 1.837 0 0 0 3.673 0v-15.26a1.836 1.836 0 0 0 -1.836-1.836z" fill="#f6ba5b"/><path d="m50.873 79.544a2.839 2.839 0 0 1 -2.836-2.836v-15.259a2.836 2.836 0 1 1 5.671 0v15.259a2.838 2.838 0 0 1 -2.835 2.836zm0-18.931a.837.837 0 0 0 -.836.836v15.259a.836.836 0 1 0 1.671 0v-15.259a.837.837 0 0 0 -.835-.836z" fill="#2f3a5a"/><path d="m59.778 59.613a1.836 1.836 0 0 0 -1.836 1.836v15.26a1.836 1.836 0 1 0 3.672 0v-15.26a1.836 1.836 0 0 0 -1.836-1.836z" fill="#f6ba5b"/><path d="m59.778 79.544a2.839 2.839 0 0 1 -2.836-2.836v-15.259a2.836 2.836 0 0 1 5.672 0v15.259a2.839 2.839 0 0 1 -2.836 2.836zm0-18.931a.837.837 0 0 0 -.836.836v15.259a.836.836 0 0 0 1.672 0v-15.259a.837.837 0 0 0 -.836-.836z" fill="#2f3a5a"/><path d="m68.185 59.613a1.836 1.836 0 0 0 -1.837 1.836v15.26a1.837 1.837 0 0 0 3.673 0v-15.26a1.836 1.836 0 0 0 -1.836-1.836z" fill="#f6ba5b"/><path d="m68.185 79.544a2.84 2.84 0 0 1 -2.837-2.836v-15.259a2.837 2.837 0 0 1 5.673 0v15.259a2.839 2.839 0 0 1 -2.836 2.836zm0-18.931a.837.837 0 0 0 -.837.836v15.259a.837.837 0 0 0 1.673 0v-15.259a.837.837 0 0 0 -.836-.836z" fill="#2f3a5a"/><path d="m76.3 59.613a1.836 1.836 0 0 0 -1.836 1.836v15.26a1.836 1.836 0 1 0 3.672 0v-15.26a1.836 1.836 0 0 0 -1.836-1.836z" fill="#f6ba5b"/><path d="m76.3 79.544a2.839 2.839 0 0 1 -2.836-2.836v-15.259a2.836 2.836 0 0 1 5.672 0v15.259a2.839 2.839 0 0 1 -2.836 2.836zm0-18.931a.837.837 0 0 0 -.836.836v15.259a.836.836 0 0 0 1.672 0v-15.259a.837.837 0 0 0 -.836-.836z" fill="#2f3a5a"/><g fill="#fff" opacity=".25"><path d="m69.36 14.55-15.57 27.69q-2.955.045-5.91.14l15.68-27.88h.04c1.91 0 3.84.01 5.76.05z"/><path d="m75.79 14.71-15.43 27.44c-.98 0-1.96.01-2.93.02l15.5-27.55c.95.02 1.91.05 2.86.09z"/></g><path d="m107.9 45.02c-.028 0-.057 0-.085 0-15.87-1.357-31.83-1.983-47.448-1.867-.948 0-1.889.009-2.822.019h-.105c-1.213.01-2.415.03-3.617.07-1.983.03-3.948.08-5.913.139-9.29.292-18.611.843-27.7 1.637a1 1 0 0 1 -1.075-1.148l4.24-27.49a1 1 0 0 1 .937-.846l.2-.011a1.181 1.181 0 0 1 .119 0h.064a374.632 374.632 0 0 1 38.865-2.023c1.957 0 3.894.01 5.821.05 1.183.01 2.379.04 3.575.071.952.02 1.919.049 2.876.09 9.011.277 18.293.894 27.579 1.834l.323.017a1 1 0 0 1 .934.846l4.22 27.46a1 1 0 0 1 -.988 1.152zm-43.825-3.884c14.065 0 28.386.6 42.644 1.781l-3.907-25.423c-9.136-.914-18.22-1.513-27.053-1.785-.954-.04-1.907-.069-2.85-.089-1.188-.03-2.373-.06-3.557-.07-1.926-.04-3.849-.05-5.752-.05a372.97 372.97 0 0 0 -38.375 1.982l-3.925 25.433c8.726-.74 17.65-1.255 26.547-1.535 1.976-.059 3.951-.11 5.926-.14 1.2-.039 2.418-.06 3.647-.07h.1c.939-.009 1.887-.019 2.835-.019q1.858-.014 3.72-.015z" fill="#2f3a5a"/></g></svg>