<svg height="512" viewBox="0 0 128 128" width="512" xmlns="http://www.w3.org/2000/svg"><g id="icon"><path d="m91.108 40.781h31.346v65.181h-31.346z" fill="#c8cbd2"/><path d="m123.455 106.962h-33.347v-67.181h33.347zm-31.347-2h29.347v-63.181h-29.347z" fill="#2f3a5a"/><path d="m3.672 40.781h35.855v65.181h-35.855z" fill="#c8cbd2"/><path d="m40.527 106.962h-37.855v-67.181h37.855zm-35.855-2h33.855v-63.181h-33.855z" fill="#2f3a5a"/><path d="m91.108 102.621h31.346v13.046h-31.346z" fill="#8cc0f3"/><path d="m122.455 116.667h-31.347a1 1 0 0 1 -1-1v-13.046a1 1 0 0 1 1-1h31.347a1 1 0 0 1 1 1v13.046a1 1 0 0 1 -1 1zm-30.347-2h29.347v-11.046h-29.347z" fill="#2f3a5a"/><path d="m3.672 102.621h35.855v13.046h-35.855z" fill="#8cc0f3"/><path d="m39.527 116.667h-35.855a1 1 0 0 1 -1-1v-13.046a1 1 0 0 1 1-1h35.855a1 1 0 0 1 1 1v13.046a1 1 0 0 1 -1 1zm-34.855-2h33.855v-11.046h-33.855z" fill="#2f3a5a"/><path d="m127.906 47.852-3.357-9.333a1.568 1.568 0 0 0 -1.476-1.038h-118.146a1.568 1.568 0 0 0 -1.476 1.038l-3.357 9.333a1.569 1.569 0 0 0 1.476 2.1h124.86a1.569 1.569 0 0 0 1.476-2.1z" fill="#ef5361"/><path d="m126.43 50.952h-124.86a2.569 2.569 0 0 1 -2.417-3.438l3.357-9.333a2.574 2.574 0 0 1 2.417-1.7h118.146a2.575 2.575 0 0 1 2.417 1.7l3.357 9.334a2.569 2.569 0 0 1 -2.417 3.438zm-121.503-12.471a.57.57 0 0 0 -.535.377l-3.357 9.332a.558.558 0 0 0 .069.52.566.566 0 0 0 .466.242h124.86a.566.566 0 0 0 .466-.242.558.558 0 0 0 .069-.52l-3.357-9.333a.57.57 0 0 0 -.535-.376z" fill="#2f3a5a"/><path d="m27.895 14.938h70.336v83.745h-70.336z" fill="#dbe2eb"/><path d="m99.231 99.683h-72.331v-85.745h72.331zm-70.335-2h68.335v-81.745h-68.331z" fill="#2f3a5a"/><path d="m27.895 96.257h70.336v19.411h-70.336z" fill="#9bc6f1"/><path d="m99.231 116.667h-72.331v-21.41h72.331zm-70.335-2h68.335v-17.41h-68.331z" fill="#2f3a5a"/><path d="m100.62 15.637a.9.9 0 0 0 -.873-.7h-73.368a.894.894 0 0 0 -.872.7l-2.388 10.682a.894.894 0 0 0 .872 1.09h78.144a.9.9 0 0 0 .873-1.09z" fill="#ef5361"/><path d="m102.135 28.409h-78.144a1.894 1.894 0 0 1 -1.848-2.309l2.388-10.682a1.883 1.883 0 0 1 1.848-1.481h73.368a1.883 1.883 0 0 1 1.849 1.481l2.388 10.682a1.9 1.9 0 0 1 -1.849 2.308zm-78.011-2h77.876l-2.338-10.471h-73.2z" fill="#2f3a5a"/><path d="m56.61 78.921h12.907v18.671h-12.907z" fill="#707583"/><path d="m69.517 98.593h-12.907a1 1 0 0 1 -1-1v-18.672a1 1 0 0 1 1-1h12.907a1 1 0 0 1 1 1v18.672a1 1 0 0 1 -1 1zm-11.907-2h10.907v-16.672h-10.907z" fill="#d1ccec"/><path d="m50.222 96.257h25.682v4.853h-25.682z" fill="#dbe2eb"/><path d="m75.9 102.109h-25.677a1 1 0 0 1 -1-1v-4.852a1 1 0 0 1 1-1h25.677a1 1 0 0 1 1 1v4.852a1 1 0 0 1 -1 1zm-24.681-2h23.681v-2.852h-23.677z" fill="#2f3a5a"/><path d="m47.681 101.109h30.764v4.853h-30.764z" fill="#e1e6e9"/><path d="m78.445 106.962h-30.764a1 1 0 0 1 -1-1v-4.853a1 1 0 0 1 1-1h30.764a1 1 0 0 1 1 1v4.853a1 1 0 0 1 -1 1zm-29.764-2h28.764v-2.853h-28.764z" fill="#2f3a5a"/><path d="m44.913 105.962h36.3v4.853h-36.3z" fill="#dbe2eb"/><path d="m81.213 111.814h-36.3a1 1 0 0 1 -1-1v-4.852a1 1 0 0 1 1-1h36.3a1 1 0 0 1 1 1v4.852a1 1 0 0 1 -1 1zm-35.3-2h34.3v-2.852h-34.3z" fill="#2f3a5a"/><path d="m42.34 110.815h41.447v4.853h-41.447z" fill="#e1e6e9"/><path d="m83.787 116.667h-41.447a1 1 0 0 1 -1-1v-4.853a1 1 0 0 1 1-1h41.447a1 1 0 0 1 1 1v4.853a1 1 0 0 1 -1 1zm-40.447-2h39.447v-2.853h-39.447z" fill="#2f3a5a"/><path d="m35.819 31.6h13.042v15.377h-13.042z" fill="#6bb3d9"/><path d="m48.861 47.977h-13.042a1 1 0 0 1 -1-1v-15.377a1 1 0 0 1 1-1h13.042a1 1 0 0 1 1 1v15.377a1 1 0 0 1 -1 1zm-12.042-2h11.042v-13.377h-11.042z" fill="#d1ccec"/><path d="m42.34 47.977a1 1 0 0 1 -1-1v-15.377a1 1 0 1 1 2 0v15.377a1 1 0 0 1 -1 1z" fill="#d1ccec"/><path d="m56.542 31.6h13.042v15.377h-13.042z" fill="#6bb3d9"/><path d="m69.584 47.977h-13.042a1 1 0 0 1 -1-1v-15.377a1 1 0 0 1 1-1h13.042a1 1 0 0 1 1 1v15.377a1 1 0 0 1 -1 1zm-12.042-2h11.042v-13.377h-11.042z" fill="#d1ccec"/><path d="m63.063 47.977a1 1 0 0 1 -1-1v-15.377a1 1 0 0 1 2 0v15.377a1 1 0 0 1 -1 1z" fill="#d1ccec"/><path d="m77.266 31.6h13.042v15.377h-13.042z" fill="#6bb3d9"/><path d="m90.307 47.977h-13.041a1 1 0 0 1 -1-1v-15.377a1 1 0 0 1 1-1h13.041a1 1 0 0 1 1 1v15.377a1 1 0 0 1 -1 1zm-12.041-2h11.041v-13.377h-11.041z" fill="#d1ccec"/><path d="m83.787 47.977a1 1 0 0 1 -1-1v-15.377a1 1 0 1 1 2 0v15.377a1 1 0 0 1 -1 1z" fill="#d1ccec"/><path d="m35.819 54.048h13.042v15.377h-13.042z" fill="#6bb3d9"/><path d="m48.861 70.426h-13.042a1 1 0 0 1 -1-1v-15.378a1 1 0 0 1 1-1h13.042a1 1 0 0 1 1 1v15.378a1 1 0 0 1 -1 1zm-12.042-2h11.042v-13.378h-11.042z" fill="#d1ccec"/><path d="m42.34 70.426a1 1 0 0 1 -1-1v-15.378a1 1 0 0 1 2 0v15.378a1 1 0 0 1 -1 1z" fill="#d1ccec"/><path d="m56.542 54.048h13.042v15.377h-13.042z" fill="#6bb3d9"/><path d="m69.584 70.426h-13.042a1 1 0 0 1 -1-1v-15.378a1 1 0 0 1 1-1h13.042a1 1 0 0 1 1 1v15.378a1 1 0 0 1 -1 1zm-12.042-2h11.042v-13.378h-11.042z" fill="#d1ccec"/><path d="m63.063 70.426a1 1 0 0 1 -1-1v-15.378a1 1 0 0 1 2 0v15.378a1 1 0 0 1 -1 1z" fill="#d1ccec"/><path d="m77.266 54.048h13.042v15.377h-13.042z" fill="#6bb3d9"/><path d="m90.307 70.426h-13.041a1 1 0 0 1 -1-1v-15.378a1 1 0 0 1 1-1h13.041a1 1 0 0 1 1 1v15.378a1 1 0 0 1 -1 1zm-12.041-2h11.041v-13.378h-11.041z" fill="#d1ccec"/><path d="m83.787 70.426a1 1 0 0 1 -1-1v-15.378a1 1 0 0 1 2 0v15.378a1 1 0 0 1 -1 1z" fill="#d1ccec"/><path d="m35.819 76.496h13.042v15.377h-13.042z" fill="#6bb3d9"/><path d="m48.861 92.874h-13.042a1 1 0 0 1 -1-1v-15.374a1 1 0 0 1 1-1h13.042a1 1 0 0 1 1 1v15.374a1 1 0 0 1 -1 1zm-12.042-2h11.042v-13.374h-11.042z" fill="#d1ccec"/><path d="m42.34 92.874a1 1 0 0 1 -1-1v-15.374a1 1 0 0 1 2 0v15.374a1 1 0 0 1 -1 1z" fill="#d1ccec"/><path d="m77.266 76.496h13.042v15.377h-13.042z" fill="#6bb3d9"/><path d="m90.307 92.874h-13.041a1 1 0 0 1 -1-1v-15.374a1 1 0 0 1 1-1h13.041a1 1 0 0 1 1 1v15.374a1 1 0 0 1 -1 1zm-12.041-2h11.041v-13.374h-11.041z" fill="#d1ccec"/><path d="m83.787 92.874a1 1 0 0 1 -1-1v-15.374a1 1 0 0 1 2 0v15.374a1 1 0 0 1 -1 1z" fill="#d1ccec"/><path d="m106.046 58.579h8.303v11.595h-8.303z" fill="#6bb3d9"/><path d="m114.349 71.174h-8.3a1 1 0 0 1 -1-1v-11.6a1 1 0 0 1 1-1h8.3a1 1 0 0 1 1 1v11.6a1 1 0 0 1 -1 1zm-7.3-2h6.3v-9.6h-6.3z" fill="#dbe2eb"/><path d="m106.046 81.196h8.303v11.595h-8.303z" fill="#6bb3d9"/><path d="m114.349 93.791h-8.3a1 1 0 0 1 -1-1v-11.591a1 1 0 0 1 1-1h8.3a1 1 0 0 1 1 1v11.6a1 1 0 0 1 -1 .991zm-7.3-2h6.3v-9.591h-6.3z" fill="#dbe2eb"/><path d="m12.252 58.579h8.303v11.595h-8.303z" fill="#6bb3d9"/><path d="m20.555 71.174h-8.3a1 1 0 0 1 -1-1v-11.6a1 1 0 0 1 1-1h8.3a1 1 0 0 1 1 1v11.6a1 1 0 0 1 -1 1zm-7.3-2h6.3v-9.6h-6.3z" fill="#dbe2eb"/><path d="m12.252 81.196h8.303v11.595h-8.303z" fill="#6bb3d9"/><path d="m20.555 93.791h-8.3a1 1 0 0 1 -1-1v-11.591a1 1 0 0 1 1-1h8.3a1 1 0 0 1 1 1v11.6a1 1 0 0 1 -1 .991zm-7.3-2h6.3v-9.591h-6.3z" fill="#dbe2eb"/></g></svg>