<svg height="512" viewBox="0 0 128 128" width="512" xmlns="http://www.w3.org/2000/svg"><g id="icon"><circle cx="79.768" cy="20.809" fill="#dbe2eb" r="16.337"/><path d="m79.769 38.146a17.337 17.337 0 1 1 17.336-17.337 17.357 17.357 0 0 1 -17.336 17.337zm0-32.674a15.337 15.337 0 1 0 15.336 15.337 15.354 15.354 0 0 0 -15.336-15.337z" fill="#2f3a5a"/><path d="m77 21.954h-10.473a13.237 13.237 0 0 0 3.066 7.41z" fill="#de8c34"/><path d="m78 24.2-6.5 6.5a.373.373 0 0 0 .028.551 13.216 13.216 0 0 0 6.679 2.764.374.374 0 0 0 .412-.37v-9.193a.364.364 0 0 0 -.619-.252z" fill="#f7b521"/><path d="m81.422 24.8 6.142 6.142a12.735 12.735 0 0 1 -6.142 2.541z" fill="#f7b521"/><path d="m81.422 34.484a1 1 0 0 1 -1-1v-8.684a1 1 0 0 1 1.707-.707l6.142 6.142a1 1 0 0 1 -.1 1.5 13.753 13.753 0 0 1 -6.624 2.741 1.113 1.113 0 0 1 -.125.008zm1-7.269v5.076a11.76 11.76 0 0 0 3.59-1.486z" fill="#2f3a5a"/><path d="m83.759 19.158 6.141-6.144a12.785 12.785 0 0 1 2.542 6.144z" fill="#f7b521"/><path d="m92.446 20.158h-8.687a1 1 0 0 1 -.707-1.707l6.148-6.144a.988.988 0 0 1 .772-.291 1 1 0 0 1 .728.389 13.816 13.816 0 0 1 2.741 6.624 1 1 0 0 1 -.992 1.129zm-6.272-2h5.077a11.822 11.822 0 0 0 -1.486-3.591z" fill="#2f3a5a"/><path d="m81.426 8.128a12.752 12.752 0 0 1 6.139 2.546l-6.139 6.141z" fill="#f7b521"/><path d="m81.425 17.814a1 1 0 0 1 -1-1v-8.686a1 1 0 0 1 .34-.751.989.989 0 0 1 .788-.24 13.744 13.744 0 0 1 6.623 2.744 1 1 0 0 1 .1 1.5l-6.14 6.14a.994.994 0 0 1 -.711.293zm1-8.492v5.078l3.589-3.588a11.776 11.776 0 0 0 -3.589-1.49z" fill="#2f3a5a"/><path d="m83.76 22.461h8.686a12.772 12.772 0 0 1 -2.546 6.144z" fill="#f7b521"/><path d="m89.9 29.6a1 1 0 0 1 -.707-.292l-6.144-6.144a1 1 0 0 1 .707-1.707h8.686a1 1 0 0 1 .992 1.129 13.8 13.8 0 0 1 -2.734 6.628 1 1 0 0 1 -.727.389zm-3.73-6.143 3.592 3.591a11.8 11.8 0 0 0 1.485-3.591z" fill="#2f3a5a"/><path d="m67.094 19.158a12.768 12.768 0 0 1 2.541-6.144l6.144 6.144z" fill="#f7b521"/><path d="m75.779 20.158h-8.685a1 1 0 0 1 -.992-1.129 13.813 13.813 0 0 1 2.74-6.624 1 1 0 0 1 .728-.389.988.988 0 0 1 .772.291l6.144 6.144a1 1 0 0 1 -.707 1.707zm-7.49-2h5.076l-3.592-3.591a11.8 11.8 0 0 0 -1.484 3.591z" fill="#2f3a5a"/><path d="m71.969 10.67a12.765 12.765 0 0 1 6.144-2.541v8.685z" fill="#f7b521"/><path d="m78.113 17.814a1 1 0 0 1 -.707-.293l-6.144-6.145a1 1 0 0 1 .1-1.5 13.777 13.777 0 0 1 6.626-2.739 1 1 0 0 1 1.129.991v8.685a1 1 0 0 1 -1 1zm-4.592-7.006 3.592 3.592v-5.076a11.776 11.776 0 0 0 -3.592 1.484z" fill="#2f3a5a"/><path d="m49.408.577h5.215v89.654h-5.215z" fill="#bac2d3" transform="matrix(.979 -.206 .206 .979 -8.232 11.68)"/><path d="m58.69 90.807a1 1 0 0 1 -.977-.794l-18.455-87.733a1 1 0 0 1 .772-1.18l5.1-1.074a1 1 0 0 1 1.184.773l18.46 87.728a1 1 0 0 1 -.774 1.185l-5.1 1.073a.971.971 0 0 1 -.21.022zm-17.269-87.961 18.043 85.776 3.147-.661-18.044-85.776z" fill="#2f3a5a"/><path d="m78.641 125.6a1.4 1.4 0 0 1 -1.4 1.4h-40.19a1.4 1.4 0 0 1 -1.392-1.4 1.378 1.378 0 0 1 1.341-1.394c6.626-.2 11.7-3.831 14.369-6.26a6.534 6.534 0 0 0 2.1-4.847v-2.357a33.037 33.037 0 0 0 -.356-7.9 16.1 16.1 0 0 0 -8-11.086c-13-7.591-16.044-22.193-10.76-37.871 4.725-14.023 1.8-27.03.508-31.47a1.261 1.261 0 0 1 1.225-1.615h42.129a1.274 1.274 0 0 1 1.219 1.616c-.234.8-.528 1.89-.813 3.221a57.409 57.409 0 0 0 -1.148 8.251c-.071.986-.112 2.012-.122 3.069a51.053 51.053 0 0 0 2.591 16.933c5.284 15.678 2.236 30.28-10.781 37.871a16.123 16.123 0 0 0 -7.987 11.086 34.058 34.058 0 0 0 -.366 7.9v2.353a6.54 6.54 0 0 0 2.114 4.847c2.683 2.429 7.743 6.056 14.378 6.26a1.377 1.377 0 0 1 1.341 1.393z" fill="#c8cbd2"/><path d="m78.643 125.594a1.406 1.406 0 0 1 -1.406 1.406h-8.394c.455 0 .817-.629.817-1.406 0-.749-.335-1.379-.777-1.392-3.868-.2-6.814-3.829-8.366-6.252a9.162 9.162 0 0 1 -1.232-4.846v-2.361a58.047 58.047 0 0 1 .2-7.9c.482-4.726 2.249-8.675 4.658-11.085a2.816 2.816 0 0 0 .2-.214c7.4-7.644 9.13-22.129 6.078-37.658a81.433 81.433 0 0 1 -1.446-12.959 94.39 94.39 0 0 1 1.152-18.514c.133-.8-.228-1.606-.71-1.606h8.8a1.269 1.269 0 0 1 1.218 1.606c-1.285 4.445-4.23 17.457.509 31.473 5.285 15.678 2.233 30.284-10.779 37.874a16.136 16.136 0 0 0 -7.992 11.085 33.726 33.726 0 0 0 -.362 7.9v2.355a6.547 6.547 0 0 0 2.115 4.846c2.674 2.427 7.738 6.054 14.374 6.254a1.38 1.38 0 0 1 1.343 1.394z" fill="#bac2d3"/><path d="m67.812 89.444c-.441.255-.87.536-1.285.817a16.124 16.124 0 0 1 -18.768 0c-.415-.281-.844-.562-1.285-.817-11.3-6.6-14.793-19.237-9.586-34.7a52.626 52.626 0 0 0 2.651-13.816h35.221a52.619 52.619 0 0 0 2.64 13.817c5.219 15.462 1.725 28.099-9.588 34.699z" fill="#ffc943"/><path d="m67.812 89.444c-.441.255-.87.536-1.285.817a17.894 17.894 0 0 1 -2.182 1.285c7.4-7.644 9.13-22.129 6.078-37.658a81.433 81.433 0 0 1 -1.446-12.959h5.783a52.619 52.619 0 0 0 2.64 13.816c5.219 15.462 1.725 28.099-9.588 34.699z" fill="#f7b521"/><path d="m63.796 88.735-5.1 1.071-14.283-67.912h5.315z" fill="#bac2d3"/><path d="m63.796 88.735-5.1 1.071-10.281-48.877h5.314z" fill="#f7b521"/><g opacity=".35"><path d="m79.434 22.42c-.234.8-.528 1.89-.813 3.221a57.409 57.409 0 0 0 -1.148 8.251c-.071.986-.112 2.012-.122 3.069a16.342 16.342 0 0 1 -13.921-16.161h14.785a1.274 1.274 0 0 1 1.219 1.62z" fill="#dbe2eb"/><path d="m78.34 38.119-1.14-.169a17.43 17.43 0 0 1 -14.77-17.15v-1h15.785a2.274 2.274 0 0 1 2.185 2.885v.015c-.307 1.053-.567 2.084-.8 3.15a56.057 56.057 0 0 0 -1.128 8.108c-.07.966-.11 1.978-.12 3.013zm-13.877-16.319a15.442 15.442 0 0 0 11.912 13.962c.022-.663.055-1.313.1-1.942a58.075 58.075 0 0 1 1.169-8.389c.237-1.11.508-2.183.827-3.281a.271.271 0 0 0 -.049-.24.254.254 0 0 0 -.207-.106z" fill="#2f3a5a"/><path d="m69.634 28.605a12.735 12.735 0 0 1 -2.541-6.142h8.683z" fill="#f7b521"/><path d="m69.536 30.116-.7-.9a13.761 13.761 0 0 1 -2.74-6.624l-.146-1.128h12.24zm-1.249-6.653a11.775 11.775 0 0 0 1.484 3.589l3.59-3.589z" fill="#2f3a5a"/><path d="m77.007 33.285a12.686 12.686 0 0 1 -5.033-2.342l6.139-6.138v.782a57.661 57.661 0 0 0 -1.106 7.698z" fill="#f7b521"/><path d="m77.917 34.506-1.117-.244a13.736 13.736 0 0 1 -5.431-2.527l-.9-.694 8.651-8.649-.022 3.4a56.609 56.609 0 0 0 -1.098 7.568zm-4.39-3.7a11.791 11.791 0 0 0 2.586 1.205c.141-1.467.337-2.93.587-4.377z" fill="#2f3a5a"/></g><path d="m77.239 128h-40.188a2.4 2.4 0 0 1 -.064-4.794c6.4-.2 11.336-3.844 13.709-6a5.544 5.544 0 0 0 1.776-4.106v-2.358a32.409 32.409 0 0 0 -.341-7.721 15.11 15.11 0 0 0 -7.515-10.4c-12.749-7.446-16.937-22.046-11.2-39.055a53.162 53.162 0 0 0 .49-30.866 2.225 2.225 0 0 1 .352-1.978 2.288 2.288 0 0 1 1.828-.917h42.129a2.274 2.274 0 0 1 2.185 2.88c-.311 1.068-.571 2.1-.8 3.165a56.057 56.057 0 0 0 -1.128 8.108c-.07.966-.11 1.978-.12 3.013a49.908 49.908 0 0 0 2.539 16.6c5.733 17.012 1.537 31.613-11.225 39.055a15.142 15.142 0 0 0 -7.505 10.392 33.221 33.221 0 0 0 -.353 7.663v2.42a5.547 5.547 0 0 0 1.786 4.107c2.908 2.633 7.655 5.814 13.736 6a2.4 2.4 0 0 1 -.091 4.792zm-41.153-106.2a.272.272 0 0 0 -.223.111.236.236 0 0 0 -.039.217 55.223 55.223 0 0 1 -.518 32.077c-5.406 16.046-1.549 29.761 10.318 36.695a17.106 17.106 0 0 1 8.476 11.78 34.17 34.17 0 0 1 .368 8.128v2.292a7.555 7.555 0 0 1 -2.43 5.586c-2.578 2.342-7.954 6.3-15.011 6.52a.381.381 0 0 0 -.372.392.4.4 0 0 0 .392.4h40.192a.408.408 0 0 0 .4-.4.378.378 0 0 0 -.355-.392c-6.706-.2-11.877-3.658-15.037-6.518a7.561 7.561 0 0 1 -2.441-5.588v-2.358a34.956 34.956 0 0 1 .379-8.064 17.14 17.14 0 0 1 8.473-11.778c11.88-6.931 15.742-20.646 10.336-36.691a51.9 51.9 0 0 1 -2.643-17.26c.01-1.074.052-2.127.124-3.129a58.075 58.075 0 0 1 1.169-8.389c.237-1.113.509-2.19.83-3.291a.266.266 0 0 0 -.052-.23.254.254 0 0 0 -.207-.106z" fill="#2f3a5a"/></g></svg>