<svg height="512" viewBox="0 0 128 128" width="512" xmlns="http://www.w3.org/2000/svg"><g id="icon"><path d="m82.436 38.58a2.3 2.3 0 0 1 -2.3-2.3v-13.438a3.3 3.3 0 0 0 -3.524-3h-25.227a3.3 3.3 0 0 0 -3.524 3v13.441a2.3 2.3 0 0 1 -4.595 0v-13.441a7.88 7.88 0 0 1 8.119-7.6h25.23a7.88 7.88 0 0 1 8.119 7.6v13.441a2.3 2.3 0 0 1 -2.298 2.297z" fill="#bd8d5a"/><path d="m82.437 39.58a3.3 3.3 0 0 1 -3.3-3.3v-13.438a2.311 2.311 0 0 0 -2.524-2h-25.228a2.311 2.311 0 0 0 -2.524 2v13.441a3.3 3.3 0 1 1 -6.594 0v-13.441a8.879 8.879 0 0 1 9.118-8.6h25.23a8.879 8.879 0 0 1 9.118 8.6v13.441a3.3 3.3 0 0 1 -3.296 3.297zm-31.052-20.739h25.23a4.292 4.292 0 0 1 4.524 4v13.442a1.3 1.3 0 1 0 2.594 0v-13.441a6.88 6.88 0 0 0 -7.118-6.6h-25.23a6.88 6.88 0 0 0 -7.118 6.6v13.441a1.3 1.3 0 1 0 2.594 0v-13.441a4.292 4.292 0 0 1 4.524-4.001z" fill="#2f3a5a"/><rect fill="#bd8d5a" height="84.91" rx="10.608" width="126" x="1" y="29.391"/><path d="m116.392 115.3h-104.784a11.622 11.622 0 0 1 -11.608-11.607v-63.693a11.621 11.621 0 0 1 11.608-11.608h104.784a11.621 11.621 0 0 1 11.608 11.608v63.693a11.622 11.622 0 0 1 -11.608 11.607zm-104.784-84.908a9.619 9.619 0 0 0 -9.608 9.608v63.693a9.62 9.62 0 0 0 9.608 9.609h104.784a9.62 9.62 0 0 0 9.608-9.609v-63.693a9.619 9.619 0 0 0 -9.608-9.608z" fill="#2f3a5a"/><path d="m115.727 108.41h-4a1 1 0 0 1 0-2h4a1 1 0 0 1 0 2zm-8.006 0h-4a1 1 0 1 1 0-2h4a1 1 0 0 1 0 2zm-8.006 0h-4a1 1 0 0 1 0-2h4a1 1 0 0 1 0 2zm-8.006 0h-4a1 1 0 1 1 0-2h4a1 1 0 0 1 0 2zm-8.006 0h-4a1 1 0 0 1 0-2h4a1 1 0 0 1 0 2zm-8.006 0h-4a1 1 0 1 1 0-2h4a1 1 0 0 1 0 2zm-8.006 0h-4a1 1 0 0 1 0-2h4a1 1 0 0 1 0 2zm-8.005 0h-4a1 1 0 1 1 0-2h4a1 1 0 1 1 0 2zm-8.007 0h-4a1 1 0 0 1 0-2h4a1 1 0 0 1 0 2zm-8.006 0h-4a1 1 0 1 1 0-2h4a1 1 0 0 1 0 2zm-8.006 0h-4a1 1 0 1 1 0-2h4a1 1 0 0 1 0 2zm-8.005 0h-4a1 1 0 1 1 0-2h4a1 1 0 1 1 0 2zm-8.006 0h-4a1 1 0 0 1 0-2h4a1 1 0 1 1 0 2zm-8.007 0h-.041a4.718 4.718 0 0 1 -4.152-2.479 1 1 0 1 1 1.76-.952 2.717 2.717 0 0 0 2.392 1.431 1.017 1.017 0 0 1 1.02 1 .981.981 0 0 1 -.979 1zm107.648-1.4a1 1 0 0 1 -.782-1.623 2.694 2.694 0 0 0 .593-1.693v-1.5a1 1 0 0 1 2 0v1.5a4.736 4.736 0 0 1 -1.028 2.939 1 1 0 0 1 -.78.376zm-111.4-4.483a1 1 0 0 1 -1-1v-4a1 1 0 0 1 2 0v4a1 1 0 0 1 -1.005.999zm112.216-3.338a1 1 0 0 1 -1-1v-4a1 1 0 0 1 2 0v4a1 1 0 0 1 -1.005.999zm-112.221-4.668a1 1 0 0 1 -1-1v-4a1 1 0 0 1 2 0v4a1 1 0 0 1 -1 1zm112.216-3.338a1 1 0 0 1 -1-1v-4a1 1 0 0 1 2 0v4a1 1 0 0 1 -1 1zm-112.216-4.669a1 1 0 0 1 -1-1v-4a1 1 0 0 1 2 0v4a1 1 0 0 1 -1 1zm112.216-3.338a1 1 0 0 1 -1-1v-4a1 1 0 0 1 2 0v4a1 1 0 0 1 -1 1zm-112.216-4.668a1 1 0 0 1 -1-1v-4a1 1 0 0 1 2 0v4a1 1 0 0 1 -1 1zm112.216-3.338a1 1 0 0 1 -1-1v-4a1 1 0 0 1 2 0v4a1 1 0 0 1 -1 1zm-112.216-4.67a1 1 0 0 1 -1-1v-4a1 1 0 0 1 2 0v4a1 1 0 0 1 -1 1zm112.216-3.338a1 1 0 0 1 -1-1v-4a1 1 0 0 1 2 0v4a1 1 0 0 1 -1 1.002zm-112.216-4.662a1 1 0 0 1 -1-1v-4a1 1 0 1 1 2 0v4a1 1 0 0 1 -1 1zm112.216-3.338a1 1 0 0 1 -1-1v-4a1 1 0 0 1 2 0v4a1 1 0 0 1 -1 .996zm-112.216-4.672a1 1 0 0 1 -1-1v-4a1 1 0 1 1 2 0v4a1 1 0 0 1 -1 1zm112.216-3.338a1 1 0 0 1 -1-1v-4a1 1 0 0 1 2 0v4a1 1 0 0 1 -1 1zm-112.216-4.668a1 1 0 0 1 -1-1v-4a1 1 0 1 1 2 0v4a1 1 0 0 1 -1 1zm112.216-3.338a1 1 0 0 1 -1-1v-2.146a2.71 2.71 0 0 0 -.331-1.3 1 1 0 0 1 1.755-.959 4.708 4.708 0 0 1 .576 2.26v2.145a1 1 0 0 1 -1 1zm-111.393-4.477a1 1 0 0 1 -.777-1.628 4.7 4.7 0 0 1 3.67-1.758h.686a1 1 0 0 1 0 2h-.686a2.7 2.7 0 0 0 -2.114 1.017 1 1 0 0 1 -.779.369zm107.656-1.386h-4a1 1 0 0 1 0-2h4a1 1 0 0 1 0 2zm-8.006 0h-4a1 1 0 0 1 0-2h4a1 1 0 0 1 0 2zm-8.006 0h-4a1 1 0 0 1 0-2h4a1 1 0 0 1 0 2zm-8 0h-4a1 1 0 0 1 0-2h4a1 1 0 0 1 0 2zm-8.006 0h-4a1 1 0 0 1 0-2h4a1 1 0 0 1 0 2zm-8.007 0h-4a1 1 0 0 1 0-2h4a1 1 0 0 1 0 2zm-8.006 0h-4a1 1 0 0 1 0-2h4a1 1 0 0 1 0 2zm-8 0h-4a1 1 0 0 1 0-2h4a1 1 0 0 1 0 2zm-8.006 0h-4a1 1 0 0 1 0-2h4a1 1 0 0 1 0 2zm-8.006 0h-4a1 1 0 0 1 0-2h4a1 1 0 0 1 0 2zm-8.006 0h-4a1 1 0 1 1 0-2h4a1 1 0 0 1 0 2zm-8.006 0h-4a1 1 0 1 1 0-2h4a1 1 0 0 1 0 2zm-8.006 0h-4a1 1 0 1 1 0-2h4a1 1 0 0 1 0 2z" fill="#a87b51"/><path d="m52.653 13.7h22.447a1.14 1.14 0 0 1 1.14 1.14v5.57a1.139 1.139 0 0 1 -1.14 1.14h-22.447a1.139 1.139 0 0 1 -1.139-1.139v-5.573a1.139 1.139 0 0 1 1.139-1.138z" fill="#e1b378"/><path d="m76.246 14.84v5.572a1.143 1.143 0 0 1 -1.146 1.142h-22.45a1.134 1.134 0 0 1 -1.132-1.142v-1.24h21.017a1.142 1.142 0 0 0 1.141-1.142v-4.33h1.424a1.143 1.143 0 0 1 1.146 1.14z" fill="#bd8d5a"/><path d="m75.1 22.55h-22.447a2.142 2.142 0 0 1 -2.14-2.14v-5.572a2.142 2.142 0 0 1 2.14-2.14h22.447a2.142 2.142 0 0 1 2.139 2.14v5.572a2.142 2.142 0 0 1 -2.139 2.14zm-22.447-7.85a.14.14 0 0 0 -.14.14v5.57a.14.14 0 0 0 .14.14h22.447a.14.14 0 0 0 .139-.14v-5.572a.14.14 0 0 0 -.139-.14z" fill="#2f3a5a"/><path d="m101.882 79.15v35.15h-9.65v-35.15" fill="#d6a774"/><path d="m102.882 115.3h-11.65v-36.15h2v34.15h7.65v-34.15h2z" fill="#2f3a5a"/><path d="m92.232 66.73v-37.34h9.65v37.34" fill="#d6a774"/><path d="m102.882 66.73h-2v-36.34h-7.65v36.34h-2v-38.34h11.65z" fill="#2f3a5a"/><path d="m105.962 63h-17.81a1.261 1.261 0 0 0 -1.26 1.26v17.36a1.268 1.268 0 0 0 1.26 1.26h17.81a1.261 1.261 0 0 0 1.26-1.26v-17.36a1.255 1.255 0 0 0 -1.26-1.26z" fill="#84879c"/><path d="m105.962 83.88h-17.81a2.262 2.262 0 0 1 -2.259-2.26v-17.36a2.262 2.262 0 0 1 2.259-2.26h17.81a2.263 2.263 0 0 1 2.26 2.26v17.36a2.263 2.263 0 0 1 -2.26 2.26zm-17.81-19.88a.259.259 0 0 0 -.259.26v17.36a.266.266 0 0 0 .259.26h17.81a.26.26 0 0 0 .26-.26v-17.36a.254.254 0 0 0 -.26-.26z" fill="#2f3a5a"/><path d="m90.672 66.73h12.77v12.42h-12.77z" fill="#d6a774"/><path d="m103.442 80.15h-12.77a1 1 0 0 1 -1-1v-12.42a1 1 0 0 1 1-1h12.77a1 1 0 0 1 1 1v12.42a1 1 0 0 1 -1 1zm-11.77-2h10.77v-10.42h-10.77z" fill="#2f3a5a"/><path d="m97.06 73.4a1 1 0 0 1 -1-1v-6.68a1 1 0 0 1 2 0v6.68a1 1 0 0 1 -1 1z" fill="#2f3a5a"/><path d="m35.768 79.15v35.15h-9.65v-35.15" fill="#d6a774"/><path d="m36.768 115.3h-11.65v-36.15h2v34.15h7.65v-34.15h2z" fill="#2f3a5a"/><path d="m26.118 66.73v-37.34h9.65v37.34" fill="#d6a774"/><path d="m36.768 66.73h-2v-36.34h-7.65v36.34h-2v-38.34h11.65z" fill="#2f3a5a"/><path d="m39.848 63h-17.81a1.261 1.261 0 0 0 -1.26 1.26v17.36a1.268 1.268 0 0 0 1.26 1.26h17.81a1.261 1.261 0 0 0 1.26-1.26v-17.36a1.255 1.255 0 0 0 -1.26-1.26z" fill="#84879c"/><path d="m39.848 83.88h-17.81a2.263 2.263 0 0 1 -2.26-2.26v-17.36a2.263 2.263 0 0 1 2.26-2.26h17.81a2.262 2.262 0 0 1 2.259 2.26v17.36a2.262 2.262 0 0 1 -2.259 2.26zm-17.81-19.88a.26.26 0 0 0 -.26.26v17.36a.266.266 0 0 0 .26.26h17.81a.259.259 0 0 0 .259-.26v-17.36a.253.253 0 0 0 -.259-.26z" fill="#2f3a5a"/><path d="m24.558 66.73h12.77v12.42h-12.77z" fill="#d6a774"/><g fill="#2f3a5a"><path d="m37.328 80.15h-12.77a1 1 0 0 1 -1-1v-12.42a1 1 0 0 1 1-1h12.77a1 1 0 0 1 1 1v12.42a1 1 0 0 1 -1 1zm-11.77-2h10.77v-10.42h-10.77z"/><path d="m30.945 73.4a1 1 0 0 1 -1-1v-6.68a1 1 0 0 1 2 0v6.68a1 1 0 0 1 -1 1z"/></g></g></svg>