<?xml version="1.0" encoding="UTF-8"?>
<svg xmlns="http://www.w3.org/2000/svg" viewBox="0 0 128 128" width="512" height="512"><g id="icon"><path d="M83.829,60.825,71.2,67.923a2.643,2.643,0,0,1-.334.157,3.462,3.462,0,0,1-1.435.305H29.838a3.51,3.51,0,0,1-1.455-.305,3.6,3.6,0,0,1-1.878-4.67L28.157,59.4l9.211-22.345A3.611,3.611,0,0,1,40.7,34.832H69.81a3.6,3.6,0,0,1,3.038,1.661l9.634,15.13,2.625,4.129A3.592,3.592,0,0,1,83.829,60.825Z" fill="#dbe2eb"/><g opacity="0.5"><path d="M83.829,60.826,71.2,67.924a2.511,2.511,0,0,1-.334.157H28.383a3.6,3.6,0,0,1-1.878-4.67L28.157,59.4l37.888-.826a2.428,2.428,0,0,0,1.248-.373l8.5-5.515a2.47,2.47,0,0,1,1.013-.374l5.672-.688,2.625,4.129A3.592,3.592,0,0,1,83.829,60.826Z" fill="#c1cdd3"/></g><path d="M69.427,69.386H29.838a4.5,4.5,0,0,1-1.868-.394,4.58,4.58,0,0,1-2.39-5.961L36.443,36.674A4.6,4.6,0,0,1,40.7,33.833H69.81a4.578,4.578,0,0,1,3.88,2.123L85.95,55.217a4.629,4.629,0,0,1,.579,3.611A4.529,4.529,0,0,1,84.317,61.7l-12.63,7.1a3.788,3.788,0,0,1-.483.225A4.371,4.371,0,0,1,69.427,69.386ZM40.7,35.833a2.6,2.6,0,0,0-2.41,1.606L27.43,63.792a2.6,2.6,0,0,0,1.357,3.375,2.53,2.53,0,0,0,1.051.219H69.427a2.463,2.463,0,0,0,1.02-.215,2.111,2.111,0,0,0,.274-.127l12.623-7.093a2.55,2.55,0,0,0,1.247-1.617,2.591,2.591,0,0,0-.328-2.045L72,37.031a2.59,2.59,0,0,0-2.194-1.2Z" fill="#2f3a5a"/><rect x="42.377" y="41.436" width="25.953" height="10.173" rx="1.531" fill="#6bb3d9"/><path d="M66.8,52.608H43.907a2.532,2.532,0,0,1-2.53-2.53V42.966a2.532,2.532,0,0,1,2.53-2.53H66.8a2.533,2.533,0,0,1,2.531,2.53v7.112A2.533,2.533,0,0,1,66.8,52.608ZM43.907,42.436a.531.531,0,0,0-.53.53v7.112a.531.531,0,0,0,.53.53H66.8a.531.531,0,0,0,.531-.53V42.966a.531.531,0,0,0-.531-.53Z" fill="#2f3a5a"/><path d="M14.979,57.518H6.5a1.923,1.923,0,0,0-1.923,1.923v7.151H16.9V59.441A1.923,1.923,0,0,0,14.979,57.518Z" fill="#c1cdd3"/><path d="M17.9,67.592H3.577V59.44A2.926,2.926,0,0,1,6.5,56.518h8.479A2.925,2.925,0,0,1,17.9,59.44Zm-12.324-2H15.9V59.44a.923.923,0,0,0-.922-.922H6.5a.924.924,0,0,0-.923.922Z" fill="#2f3a5a"/><path d="M124.328,49.887,76.805,55.663a2.369,2.369,0,0,0-1.007.365l-8.507,5.515a2.383,2.383,0,0,1-1.242.382L3.331,63.285A2.379,2.379,0,0,0,1.443,67.04l9.644,13.589a2.378,2.378,0,0,0,1.94,1H106.2a2.377,2.377,0,0,0,1.965-1.039l18.413-27.005A2.379,2.379,0,0,0,124.328,49.887Z" fill="#967169"/><path d="M4.558,71.429H114.416l12.165-17.841a2.379,2.379,0,0,0-2.253-3.7L76.805,55.663a2.369,2.369,0,0,0-1.007.365l-8.507,5.515a2.383,2.383,0,0,1-1.242.382L3.331,63.285A2.379,2.379,0,0,0,1.443,67.04Z" fill="#a67f74"/><path d="M106.2,82.632H13.027a3.386,3.386,0,0,1-2.756-1.424L.627,67.619A3.379,3.379,0,0,1,3.31,62.285l62.717-1.36a1.373,1.373,0,0,0,.719-.221l8.508-5.515a3.369,3.369,0,0,1,1.433-.519l47.52-5.776h0a3.377,3.377,0,0,1,3.2,5.256L109,81.156A3.38,3.38,0,0,1,106.2,82.632Zm18.426-31.764a1.372,1.372,0,0,0-.18.012L76.927,56.656a1.38,1.38,0,0,0-.584.211l-8.508,5.515a3.376,3.376,0,0,1-1.764.543L3.353,64.285a1.379,1.379,0,0,0-1.1,2.177L11.9,80.05a1.384,1.384,0,0,0,1.125.582H106.2a1.382,1.382,0,0,0,1.14-.6l18.412-27a1.38,1.38,0,0,0-1.126-2.156Z" fill="#2f3a5a"/><path d="M120.1,77.591a8.555,8.555,0,0,0-6.786-.833l-12.964,3.855A8.551,8.551,0,0,1,93.77,79.9l-4.192-2.3a8.549,8.549,0,0,0-7.108-.54l-8.58,3.168a8.555,8.555,0,0,1-7.348-.675l-2.815-1.665a8.554,8.554,0,0,0-7.633-.564l-6,2.459a8.581,8.581,0,0,1-8.471-1.127,8.579,8.579,0,0,0-8.393-1.158l-6.109,2.435a8.57,8.57,0,0,1-8.1-.945l-.724-.5A8.569,8.569,0,0,0,9.88,77.67L1,81.632V88.82H127V81.632Z" fill="#6bb3d9"/><path d="M1,82.632a1,1,0,0,1-.408-1.913l8.88-3.962a9.54,9.54,0,0,1,9.4.9l.724.5A7.6,7.6,0,0,0,26.753,79l6.108-2.435a9.561,9.561,0,0,1,9.367,1.29,7.563,7.563,0,0,0,7.489,1l6-2.459a9.509,9.509,0,0,1,8.521.628l2.815,1.666a7.566,7.566,0,0,0,6.492.6l8.58-3.168a9.577,9.577,0,0,1,7.937.6l4.192,2.3a7.525,7.525,0,0,0,5.812.633L113.027,75.8a9.506,9.506,0,0,1,7.577.929l6.9,4.041A1,1,0,1,1,126.5,82.5l-6.9-4.041a7.513,7.513,0,0,0-6-.738l-12.963,3.856a9.522,9.522,0,0,1-7.346-.8l-4.192-2.3a7.579,7.579,0,0,0-6.281-.477l-8.58,3.168a9.556,9.556,0,0,1-8.2-.754l-2.814-1.665a7.549,7.549,0,0,0-6.746-.5l-6,2.459a9.538,9.538,0,0,1-9.454-1.253,7.576,7.576,0,0,0-7.42-1.028l-6.109,2.435A9.59,9.59,0,0,1,18.454,79.8l-.724-.5a7.555,7.555,0,0,0-7.443-.717l-8.88,3.962A.993.993,0,0,1,1,82.632Z" fill="#2f3a5a"/><path d="M120.1,83.8a8.559,8.559,0,0,0-6.786-.833l-12.964,3.856a8.551,8.551,0,0,1-6.579-.716l-4.192-2.3a8.549,8.549,0,0,0-7.108-.539L73.89,86.43a8.558,8.558,0,0,1-7.348-.676L63.727,84.09a8.557,8.557,0,0,0-7.633-.565l-6,2.459a8.579,8.579,0,0,1-8.471-1.126A8.582,8.582,0,0,0,33.232,83.7l-6.109,2.435a8.567,8.567,0,0,1-8.1-.945l-.724-.5a8.571,8.571,0,0,0-8.421-.808L1,87.84v7.188H127V87.84Z" fill="#4fa4d1"/><path d="M120.1,90.008a8.555,8.555,0,0,0-6.786-.833L100.349,93.03a8.551,8.551,0,0,1-6.579-.716l-4.192-2.3a8.549,8.549,0,0,0-7.108-.54l-8.58,3.168a8.555,8.555,0,0,1-7.348-.675L63.727,90.3a8.554,8.554,0,0,0-7.633-.564l-6,2.459a8.581,8.581,0,0,1-8.471-1.127,8.579,8.579,0,0,0-8.393-1.158l-6.109,2.435a8.57,8.57,0,0,1-8.1-.945l-.724-.5a8.569,8.569,0,0,0-8.421-.809L1,94.048v7.188H127V94.048Z" fill="#6bb3d9"/></g></svg>
