<svg height="512" viewBox="0 0 128 128" width="512" xmlns="http://www.w3.org/2000/svg"><g id="icon"><path d="m58.388 90.684a222.229 222.229 0 0 0 30.817 13.684c4.245 1.505 8.668 2.968 11.99 6 .118.106.236.224.354.342 1.523 1.451 3.014 3.163 5.077 3.284 2.469.156 4.382-2.019 5.808-4.035 1.825-2.587 3.616-5.633 2.965-8.724a7.279 7.279 0 0 0 -2.269-3.785 10.131 10.131 0 0 0 -1.949-1.43 24.873 24.873 0 0 0 -6.538-2.188c-1.6-.368-3.206-.737-4.81-1.117a28.465 28.465 0 0 1 -6.59-2.106c-1.466-.757-2.786-1.759-4.211-2.6-4.02-2.393-8.67-3.462-13.239-4.49a33.908 33.908 0 0 0 -6.705-1.033z" fill="#a67f74"/><path d="m58.388 90.684a222.229 222.229 0 0 0 30.817 13.684c4.245 1.505 8.668 2.968 11.99 6 .118.106.236.224.354.342 1.523 1.451 3.014 3.163 5.077 3.284 2.469.156 4.382-2.019 5.808-4.035a17.075 17.075 0 0 0 2.855-5.561c-.353.58-.729 1.138-1.117 1.686-1.427 2.016-3.34 4.191-5.809 4.035-2.062-.121-3.553-1.832-5.076-3.284-.118-.117-.237-.235-.354-.342-3.322-3.035-7.745-4.5-11.99-6a220.7 220.7 0 0 1 -28.843-12.648z" fill="#967169"/><path d="m101.165 108.878a11.864 11.864 0 0 0 .384 1.835c1.523 1.451 3.014 3.163 5.077 3.284 2.469.156 4.382-2.019 5.808-4.035 1.825-2.587 3.616-5.633 2.965-8.724a7.279 7.279 0 0 0 -2.269-3.785c-.093-.063-.2-.114-.29-.165a19.264 19.264 0 0 0 -4.2-1.53 2.754 2.754 0 0 0 -1.345-.146 2.676 2.676 0 0 0 -.994.567c-.973.757-1.944 1.548-2.881 2.359a5.063 5.063 0 0 0 -1.193 1.3 5.317 5.317 0 0 0 -.5 1.621 23.561 23.561 0 0 0 -.562 7.419z" fill="#967169"/><path d="m106.887 115.005c-.107 0-.215 0-.324-.01-2.184-.128-3.769-1.674-5.166-3.038l-.733-.706-.075-.26a12.792 12.792 0 0 1 -.416-1.987 24.351 24.351 0 0 1 .568-7.738 6.262 6.262 0 0 1 .612-1.919 5.92 5.92 0 0 1 1.42-1.573c.878-.76 1.861-1.565 2.913-2.384a3.557 3.557 0 0 1 1.38-.751 3.673 3.673 0 0 1 1.848.157 20.349 20.349 0 0 1 4.409 1.616c.16.087.267.146.365.212l.12.094a8.257 8.257 0 0 1 2.57 4.313c.725 3.445-1.174 6.74-3.126 9.507-1.484 2.097-3.536 4.467-6.365 4.467zm-4.447-4.822.353.342c1.259 1.229 2.448 2.389 3.892 2.474 2.016.126 3.694-1.865 4.933-3.615 1.7-2.414 3.369-5.247 2.8-7.94a6.233 6.233 0 0 0 -1.9-3.194l-.082-.044a18.488 18.488 0 0 0 -4.065-1.484 2.177 2.177 0 0 0 -.854-.135 2.139 2.139 0 0 0 -.6.376c-1.03.8-1.986 1.585-2.846 2.331a4.25 4.25 0 0 0 -.978 1.034 4.456 4.456 0 0 0 -.391 1.317 22.642 22.642 0 0 0 -.548 7.106 10.5 10.5 0 0 0 .286 1.432z" fill="#2f3a5a"/><path d="m106.887 115.005c-.107 0-.215 0-.324-.01-2.184-.128-3.769-1.674-5.166-3.038l-.538-.52c-.123-.124-.229-.229-.335-.325-3.007-2.747-7.072-4.183-11-5.572l-.649-.229a224.06 224.06 0 0 1 -30.961-13.746l-1.364-.733 12.208-9.347.349.007a34.676 34.676 0 0 1 6.9 1.057c4.366.982 9.314 2.1 13.533 4.606.587.346 1.16.72 1.732 1.095a27.721 27.721 0 0 0 2.428 1.474 27.432 27.432 0 0 0 6.245 1.995l.114.026q2.406.568 4.806 1.116a25.566 25.566 0 0 1 6.8 2.288 11.135 11.135 0 0 1 2.146 1.576 8.24 8.24 0 0 1 2.564 4.306c.725 3.445-1.174 6.74-3.126 9.507-1.481 2.097-3.533 4.467-6.362 4.467zm-46.658-24.471a222.25 222.25 0 0 0 29.312 12.892l.646.228c4.12 1.456 8.379 2.961 11.683 5.979.126.114.256.243.386.373l.537.519c1.259 1.229 2.448 2.389 3.892 2.474 2.016.126 3.694-1.865 4.933-3.615 1.7-2.414 3.369-5.247 2.8-7.94a6.263 6.263 0 0 0 -1.97-3.256 9.1 9.1 0 0 0 -1.763-1.3 24.027 24.027 0 0 0 -6.273-2.083c-1.6-.37-3.207-.739-4.812-1.118l-.111-.026a28.868 28.868 0 0 1 -6.703-2.161 29.862 29.862 0 0 1 -2.605-1.578c-.546-.358-1.093-.716-1.656-1.048-3.949-2.348-8.525-3.374-12.952-4.374a35.1 35.1 0 0 0 -6.159-1z" fill="#2f3a5a"/><path d="m68.887 89.059a222.514 222.514 0 0 1 -30.023 15.349c-4.156 1.735-8.492 3.437-11.644 6.65-.111.112-.223.236-.335.36-1.441 1.533-2.836 3.323-4.889 3.557-2.456.291-4.486-1.777-6.02-3.712-1.964-2.483-3.918-5.426-3.438-8.548a7.279 7.279 0 0 1 2.059-3.9 10.13 10.13 0 0 1 1.868-1.535 24.815 24.815 0 0 1 6.409-2.542q2.37-.682 4.741-1.378a28.492 28.492 0 0 0 6.465-2.464c1.422-.836 2.686-1.908 4.062-2.823 3.883-2.61 8.468-3.931 12.974-5.208a33.9 33.9 0 0 1 6.638-1.4z" fill="#a67f74"/><path d="m68.887 89.059a222.514 222.514 0 0 1 -30.023 15.349c-4.156 1.735-8.492 3.437-11.644 6.65-.111.112-.223.236-.335.36-1.441 1.533-2.836 3.323-4.889 3.557-2.456.291-4.486-1.777-6.02-3.712a17.053 17.053 0 0 1 -3.155-5.4c.384.559.79 1.1 1.208 1.622 1.535 1.935 3.564 4 6.02 3.711 2.053-.234 3.448-2.024 4.89-3.557.111-.124.223-.248.335-.36 3.151-3.213 7.487-4.915 11.643-6.65a220.6 220.6 0 0 0 28.109-14.202z" fill="#967169"/><path d="m27.169 109.565a11.637 11.637 0 0 1 -.284 1.853c-1.441 1.533-2.836 3.323-4.889 3.557-2.456.291-4.486-1.777-6.02-3.712-1.964-2.483-3.918-5.426-3.438-8.548a7.279 7.279 0 0 1 2.059-3.9c.09-.068.19-.125.28-.181a19.347 19.347 0 0 1 4.111-1.758 2.768 2.768 0 0 1 1.335-.219 2.678 2.678 0 0 1 1.024.512c1.013.7 2.026 1.439 3.006 2.2a5.053 5.053 0 0 1 1.262 1.229 5.334 5.334 0 0 1 .591 1.591 23.559 23.559 0 0 1 .963 7.376z" fill="#967169"/><path d="m21.513 116c-2.69 0-4.778-2.174-6.321-4.119-2.1-2.658-4.177-5.844-3.642-9.323a8.256 8.256 0 0 1 2.329-4.447l.116-.1c.09-.068.187-.129.282-.187a20.384 20.384 0 0 1 4.391-1.9 3.686 3.686 0 0 1 1.822-.258 3.592 3.592 0 0 1 1.433.681c1.08.749 2.105 1.5 3.042 2.224a5.986 5.986 0 0 1 1.492 1.479 6.323 6.323 0 0 1 .719 1.89 24.38 24.38 0 0 1 .991 7.7 12.77 12.77 0 0 1 -.308 2.008l-.061.261-.689.742c-1.322 1.44-2.82 3.073-5 3.32a5.053 5.053 0 0 1 -.596.029zm-6.263-16.425a6.235 6.235 0 0 0 -1.724 3.292c-.418 2.719 1.4 5.457 3.234 7.777 1.331 1.677 3.114 3.568 5.118 3.337 1.443-.164 2.567-1.388 3.758-2.685l.331-.358a10.508 10.508 0 0 0 .2-1.441 22.63 22.63 0 0 0 -.935-7.065 4.486 4.486 0 0 0 -.465-1.3 4.267 4.267 0 0 0 -1.02-.965c-.92-.713-1.917-1.441-2.975-2.176a2.135 2.135 0 0 0 -.627-.348 2.264 2.264 0 0 0 -.834.179 18.494 18.494 0 0 0 -3.908 1.661l-.088.054z" fill="#2f3a5a"/><path d="m21.513 116c-2.69 0-4.778-2.174-6.321-4.119-2.1-2.658-4.177-5.844-3.642-9.323a8.256 8.256 0 0 1 2.329-4.447 11.02 11.02 0 0 1 2.048-1.68 25.566 25.566 0 0 1 6.666-2.66q2.373-.684 4.739-1.378l.111-.032a27.366 27.366 0 0 0 6.132-2.336 27.036 27.036 0 0 0 2.339-1.6c.552-.406 1.1-.811 1.674-1.191 4.07-2.734 8.95-4.117 13.256-5.336a34.6 34.6 0 0 1 6.837-1.433l.348-.027 12.7 8.664-1.321.808a223.8 223.8 0 0 1 -30.158 15.42l-.641.267c-3.848 1.6-7.827 3.257-10.674 6.161-.106.106-.206.218-.307.33l-.519.56c-1.322 1.44-2.82 3.073-5 3.32a5.053 5.053 0 0 1 -.596.032zm35.971-33.51a35.113 35.113 0 0 0 -6.1 1.335c-4.361 1.236-8.874 2.514-12.684 5.075-.549.365-1.075.752-1.6 1.139a29.551 29.551 0 0 1 -2.512 1.717 28.834 28.834 0 0 1 -6.582 2.529l-.109.032c-1.58.467-3.163.923-4.745 1.38a24.036 24.036 0 0 0 -6.152 2.425 9.058 9.058 0 0 0 -1.679 1.38 6.273 6.273 0 0 0 -1.795 3.365c-.418 2.719 1.4 5.457 3.234 7.777 1.331 1.677 3.114 3.568 5.118 3.337 1.443-.164 2.567-1.388 3.758-2.685l.521-.563c.109-.121.232-.257.355-.38 3.127-3.189 7.3-4.924 11.329-6.6l.638-.266a221.7 221.7 0 0 0 28.561-14.478z" fill="#2f3a5a"/><path d="m72.539 69.589a222.438 222.438 0 0 1 -1.163 33.7c-.5 4.476-1.119 9.093.159 13.407.044.153.1.311.152.469.64 2 1.528 4.093.735 6-.939 2.289-3.732 3.058-6.168 3.46-3.124.511-6.646.79-9.142-1.146a7.271 7.271 0 0 1 -2.412-3.7 10.078 10.078 0 0 1 -.435-2.378 24.816 24.816 0 0 1 .89-6.836q.555-2.4 1.1-4.815a28.455 28.455 0 0 0 .986-6.848c-.041-1.649-.364-3.274-.5-4.922-.4-4.661.676-9.311 1.749-13.87a33.922 33.922 0 0 1 2-6.482z" fill="#a67f74"/><path d="m72.539 69.589a222.438 222.438 0 0 1 -1.163 33.7c-.5 4.476-1.119 9.093.159 13.407.044.153.1.311.152.469.64 2 1.528 4.093.735 6-.939 2.289-3.732 3.058-6.168 3.46a17.07 17.07 0 0 1 -6.249.138c.675-.064 1.342-.159 2-.269 2.436-.4 5.229-1.171 6.167-3.46.793-1.908-.094-4-.734-6-.054-.158-.108-.316-.153-.468-1.277-4.315-.66-8.932-.158-13.408a220.637 220.637 0 0 0 1.231-31.471z" fill="#967169"/><path d="m70.205 116.016a11.6 11.6 0 0 1 1.482 1.148c.64 2 1.528 4.093.735 6-.939 2.289-3.732 3.058-6.168 3.46-3.124.511-6.646.79-9.142-1.146a7.271 7.271 0 0 1 -2.412-3.7c-.016-.111-.017-.227-.023-.332a19.355 19.355 0 0 1 .46-4.448 2.757 2.757 0 0 1 .457-1.273 2.673 2.673 0 0 1 .945-.646c1.106-.544 2.242-1.073 3.381-1.56a5.047 5.047 0 0 1 1.687-.507 5.3 5.3 0 0 1 1.678.257 23.524 23.524 0 0 1 6.92 2.747z" fill="#967169"/><path d="m62.373 128a9.322 9.322 0 0 1 -5.874-1.728 8.248 8.248 0 0 1 -2.757-4.2l-.032-.145a3.461 3.461 0 0 1 -.028-.35 20.487 20.487 0 0 1 .471-4.754 3.662 3.662 0 0 1 .661-1.719 3.559 3.559 0 0 1 1.292-.921c1.178-.579 2.332-1.113 3.42-1.579a5.98 5.98 0 0 1 2.016-.585 6.268 6.268 0 0 1 2 .289 24.325 24.325 0 0 1 7.206 2.87 12.846 12.846 0 0 1 1.606 1.243l.2.181.315.966c.616 1.855 1.314 3.955.472 5.981-1.138 2.776-4.3 3.63-6.928 4.062a25.31 25.31 0 0 1 -4.04.389zm-6.689-6.416a6.223 6.223 0 0 0 2.041 3.107c2.174 1.687 5.451 1.428 8.368.95 2.113-.348 4.638-.988 5.4-2.853.556-1.34.032-2.916-.522-4.586l-.154-.467a10.6 10.6 0 0 0 -1.16-.878 22.664 22.664 0 0 0 -6.631-2.614 4.524 4.524 0 0 0 -1.363-.224 4.261 4.261 0 0 0 -1.339.423c-1.068.458-2.189.975-3.345 1.543a2.127 2.127 0 0 0 -.61.38 2.15 2.15 0 0 0 -.248.816 18.58 18.58 0 0 0 -.446 4.221c.005.087.007.14.009.179z" fill="#2f3a5a"/><path d="m62.373 128a9.322 9.322 0 0 1 -5.874-1.728 8.248 8.248 0 0 1 -2.757-4.2 11.041 11.041 0 0 1 -.475-2.605 25.566 25.566 0 0 1 .913-7.119c.369-1.605.738-3.2 1.1-4.812l.025-.109a27.368 27.368 0 0 0 .937-6.5 27.631 27.631 0 0 0 -.265-2.825c-.087-.678-.173-1.358-.227-2.04-.414-4.885.747-9.823 1.771-14.178a34.76 34.76 0 0 1 2.067-6.673l.147-.317 13.739-6.894.064 1.547a223.972 223.972 0 0 1 -1.168 33.853l-.078.69c-.469 4.141-.954 8.424.2 12.323.041.144.09.285.138.426l.241.731c.616 1.855 1.314 3.955.472 5.981-1.138 2.776-4.3 3.63-6.928 4.062a25.31 25.31 0 0 1 -4.042.387zm-1.114-51.63a35.19 35.19 0 0 0 -1.794 5.978c-1.039 4.412-2.113 8.979-1.725 13.552.052.656.135 1.3.218 1.951a29.637 29.637 0 0 1 .28 3.031 28.827 28.827 0 0 1 -.986 6.987l-.024.106q-.539 2.41-1.1 4.818a24.067 24.067 0 0 0 -.866 6.556 9.033 9.033 0 0 0 .39 2.136 6.274 6.274 0 0 0 2.071 3.2c2.174 1.687 5.451 1.428 8.368.95 2.113-.348 4.638-.988 5.4-2.853.557-1.34.032-2.916-.522-4.586l-.241-.732c-.052-.152-.111-.326-.16-.494-1.268-4.283-.761-8.771-.269-13.111l.077-.685a221.9 221.9 0 0 0 1.216-32z" fill="#2f3a5a"/><path d="m98.514 50.551c-5.477-6.519-3.391-13.039-3.391-13.039-5.984 2.509-7.963 8.582-8.59 11.573.26-2.984-.026-9.913-5.493-21.223-7.563-15.648 1.826-26.862 1.826-26.862-40.685 9.128-35.729 41.728-35.729 41.728-2.869-.783-4.434-9.911-4.434-9.911-16.169 21.125-10.693 38.6-10.693 38.6 8.9 25.779 32.264 24.6 32.264 24.6 38.853-2.073 39.716-38.945 34.24-45.466z" fill="#ef5361"/><path d="m63.94 97.017c-3.142 0-24.472-.923-32.875-25.276-.239-.761-5.453-18.241 10.844-39.531a1 1 0 0 1 1.779.438 28.115 28.115 0 0 0 2.289 7.494c-.116-8.199 2.523-32.456 36.67-40.118a1 1 0 0 1 .987 1.617c-.09.107-8.87 10.939-1.693 25.786a55.534 55.534 0 0 1 5.379 16.322 14.606 14.606 0 0 1 7.417-7.159 1 1 0 0 1 1.339 1.226c-.076.244-1.827 6.1 3.2 12.092 2.883 3.432 4.388 14.54-.434 25.649-3.975 9.16-13.19 20.318-34.517 21.454-.014 0-.148.006-.385.006zm-21.767-61.8c-14.054 19.67-9.26 35.737-9.209 35.9 3.572 10.35 9.907 17.529 18.82 21.308a31.511 31.511 0 0 0 12.441 2.589c20.3-1.081 29.035-11.61 32.786-20.252 4.269-9.839 3.288-20.53.737-23.566a15.975 15.975 0 0 1 -3.962-11.866c-4.15 2.61-5.7 7.238-6.274 9.961a1 1 0 0 1 -1.975-.291c.263-3.018-.089-9.72-5.4-20.7a27.4 27.4 0 0 1 -1.979-20.019 25.958 25.958 0 0 1 2.445-5.7c-36.6 9.512-32.667 38.736-32.478 40a1 1 0 0 1 -1.251 1.114c-2.488-.681-3.989-5.453-4.701-8.481z" fill="#2f3a5a"/><path d="m64 93.959c-3.325 0-20.263-1.021-27.216-21.172-.025-.088-3.916-13.449 7.091-30.109.856 2.811 2.256 5.78 4.431 6.374l2.789.761-.435-2.857c-.161-1.09-3.43-25.792 26.759-34.8-2.119 4.576-4.119 12.567.607 22.344 4.74 9.807 5.06 15.721 4.83 18.373l1.344 4.081 2.365-3.533a14.1 14.1 0 0 1 3.778-7.288 15.824 15.824 0 0 0 3.868 9.449c1.806 2.15 3.154 11.329-.82 20.484-3.307 7.634-11.038 16.934-29.062 17.888-.012 0-.129.005-.329.005z" fill="#f26176"/><path d="m44.245 65.526a9.714 9.714 0 0 0 2.274-8.746c4.013 1.684 5.341 5.756 5.761 7.762-.174-2 .018-6.648 3.684-14.233 5.072-10.495-1.225-18.016-1.225-18.016 27.286 6.122 23.961 27.986 23.961 27.986 1.924-.525 2.973-6.647 2.973-6.647 10.846 14.168 7.173 25.887 7.173 25.887-5.965 17.288-21.638 16.495-21.638 16.495-26.057-1.387-26.636-26.114-22.963-30.488z" fill="#ffc943"/><path d="m67.54 97.021c-.223 0-.354-.006-.382-.007-6.542-.349-18.282-2.707-23.437-14.586-3.008-6.928-2.541-14.808-.242-17.546a8.728 8.728 0 0 0 2.087-7.8 1 1 0 0 1 1.339-1.227 9.884 9.884 0 0 1 4.673 4.109 39.523 39.523 0 0 1 3.485-10.094c4.737-9.8-1.032-16.868-1.09-16.938a1 1 0 0 1 .985-1.618c21.245 4.767 24.493 19.047 24.82 25.67a22.051 22.051 0 0 0 .912-3.524 1 1 0 0 1 1.779-.439c11.031 14.417 7.488 26.298 7.331 26.796-3.21 9.307-9.178 13.483-13.622 15.354a23.161 23.161 0 0 1 -8.638 1.85zm-22.529-30.852c-1.419 1.688-2.483 8.488.545 15.463 2.478 5.71 8.256 12.668 21.705 13.384.6.036 15 .516 20.64-15.824.024-.08 3.058-10.429-5.723-23.169-.558 2.112-1.574 4.773-3.213 5.22a1 1 0 0 1 -1.252-1.113c.123-.829 2.65-19.752-20.78-26.258 1.632 3.107 3.627 9.226-.069 16.872-3.526 7.3-3.761 11.722-3.588 13.711a1 1 0 0 1 -1.975.292 10.309 10.309 0 0 0 -3.52-6.095 11.15 11.15 0 0 1 -2.77 7.517z" fill="#2f3a5a"/><path d="m51.621 75.85a6.427 6.427 0 0 0 1.5-5.785 6.95 6.95 0 0 1 3.81 5.134c-.115-1.324.012-4.4 2.437-9.414a11.25 11.25 0 0 0 -.81-11.916c18.048 4.049 15.85 18.51 15.85 18.51 1.272-.347 1.966-4.4 1.966-4.4 7.173 9.371 4.744 17.122 4.744 17.122-3.942 11.44-14.309 10.915-14.309 10.915-17.235-.916-17.618-17.274-15.188-20.166z" fill="#f7b521"/><g fill="#967169"><path d="m27.205 98.545a1 1 0 0 1 -.552-1.835 12.891 12.891 0 0 1 5.178-1.978 1 1 0 0 1 .291 1.979 10.836 10.836 0 0 0 -4.367 1.669 1 1 0 0 1 -.55.165z"/><path d="m36.436 94.9a1 1 0 0 1 -.364-1.931 4.433 4.433 0 0 0 1.1-.76c.14-.118.281-.235.424-.348a9.332 9.332 0 0 1 2.052-1.228 2.506 2.506 0 0 1 1.608-.23 1 1 0 0 1 -.455 1.948 1.084 1.084 0 0 0 -.353.115 7.346 7.346 0 0 0 -1.614.966c-.128.1-.252.2-.377.309a5.993 5.993 0 0 1 -1.66 1.091.985.985 0 0 1 -.361.068z"/><path d="m32.719 99.753a1 1 0 0 1 0-2 2.091 2.091 0 0 0 .813-.38 31.618 31.618 0 0 1 3.759-2 1 1 0 1 1 .809 1.827 29.131 29.131 0 0 0 -3.5 1.858 3.561 3.561 0 0 1 -1.878.691z"/><path d="m41.227 97.876a1 1 0 0 1 -.353-1.936l.65-.247a8.531 8.531 0 0 0 3.521-2.015 1 1 0 1 1 1.521 1.3 10.189 10.189 0 0 1 -4.332 2.586l-.654.249a1.013 1.013 0 0 1 -.353.063z"/><path d="m30.43 104.938a1 1 0 0 1 -.589-1.808 16.89 16.89 0 0 1 3.289-1.867 1 1 0 0 1 .787 1.84 14.853 14.853 0 0 0 -2.9 1.644 1 1 0 0 1 -.587.191z"/><path d="m61.04 106.006h-.052a1 1 0 0 1 -.947-1.05 17.381 17.381 0 0 0 -.253-3.255l-.365-2.6a1 1 0 0 1 1.98-.278l.365 2.6a19.056 19.056 0 0 1 .27 3.634 1 1 0 0 1 -.998.949z"/><path d="m66.492 106.069a1 1 0 0 1 -1-.93l-.162-2.316a16.284 16.284 0 0 1 0-3.362 1 1 0 1 1 1.981.269 14.823 14.823 0 0 0 .012 2.955l.168 2.315a1 1 0 0 1 -.929 1.067z"/><path d="m64.14 110.907a1 1 0 0 1 -.972-.765 11.157 11.157 0 0 1 -.307-2.79 1.045 1.045 0 0 1 1.016-.984 1 1 0 0 1 .984 1.017 9.134 9.134 0 0 0 .252 2.288 1 1 0 0 1 -.738 1.207 1.06 1.06 0 0 1 -.235.027z"/><path d="m91.737 94.032a1.044 1.044 0 0 1 -.253-.032 2.875 2.875 0 0 0 -.707-.049 5.4 5.4 0 0 1 -1-.065c-.053-.01-.107-.021-.16-.033l-.023-.007c-.185-.045-.366-.1-.547-.162l-.233-.076a.934.934 0 0 1 -.187-.078 9.7 9.7 0 0 1 -2.206-1.017 1 1 0 0 1 1.38-1.443 20.976 20.976 0 0 0 2.308.842l.03.006a3.634 3.634 0 0 0 .635.032 4.352 4.352 0 0 1 1.214.113 1 1 0 0 1 -.252 1.968z"/><path d="m94.872 99.959a.989.989 0 0 1 -.422-.094l-2.263-1.053a2.183 2.183 0 0 0 -.969-.3 1 1 0 1 1 -.241-1.987 3.831 3.831 0 0 1 2.054.475l2.263 1.054a1 1 0 0 1 -.422 1.906z"/><path d="m101.463 98.179a.994.994 0 0 1 -.375-.074l-3.22-1.3a3.438 3.438 0 0 1 -1.58-1.069 1 1 0 0 1 1.612-1.189 1.986 1.986 0 0 0 .719.4l3.221 1.3a1 1 0 0 1 -.376 1.927z"/><path d="m85.1 97.2a1.1 1.1 0 0 1 -.188-.017 10.745 10.745 0 0 1 -3.577-1.375 1 1 0 1 1 1.041-1.708 8.753 8.753 0 0 0 2.914 1.119 1 1 0 0 1 -.19 1.981z"/></g></g></svg>