<?xml version="1.0" encoding="UTF-8"?>
<svg xmlns="http://www.w3.org/2000/svg" viewBox="0 0 128 128" width="512" height="512"><g id="icon"><path d="M121.366,44.275c0,.028-.007.057-.007.085-.4,4.635-.879,9.567-1.389,14.627-.433,4.316-.893,8.716-1.326,13.1-.5,4.961-.963,9.893-1.353,14.627-.312,3.777-.567,7.427-.751,10.878-.043.744-.078,1.488-.114,2.218-.276,5.336-.574,10.375-1.771,14.627-2.2,7.838-7.42,13.018-21.1,12.536-11.587-.411-16.335-5.676-17.937-12.536-1.056-4.493-.758-9.674-.156-14.627.234-1.921.511-3.806.78-5.6a63.91,63.91,0,0,0,1.41-7.5,80.259,80.259,0,0,0,.645-14.627,63.1,63.1,0,0,0-2.013-13.1l-.042-.149c-1.091-4-2.53-9.042-3.777-14.478a118.977,118.977,0,0,1-2.346-13.1,51.727,51.727,0,0,1,.092-14.634C71.688,8.2,76.351,1.9,86.9,1.1c13.33-1.013,22.472,6.116,27.993,15.534a49.185,49.185,0,0,1,5.541,14.634A45.639,45.639,0,0,1,121.366,44.275Z" fill="#f6ba5b"/><path d="M95.313,128q-.879,0-1.8-.033c-10.551-.374-16.9-4.852-18.875-13.308-1.166-4.961-.706-10.609-.175-14.975.243-2,.532-3.953.783-5.626l.024-.115a63.786,63.786,0,0,0,1.384-7.368,78.6,78.6,0,0,0,.637-14.442,62.176,62.176,0,0,0-1.979-12.886l-.633-2.3c-1.012-3.677-2.159-7.843-3.2-12.364a118.71,118.71,0,0,1-2.364-13.207,52.608,52.608,0,0,1,.1-14.921C71,6.354,76.918.851,86.821.1c12.061-.915,22.335,4.775,28.93,16.025a50.27,50.27,0,0,1,5.658,14.935,46.6,46.6,0,0,1,.957,13.259l-.012.128c-.425,4.974-.941,10.193-1.389,14.642q-.275,2.731-.559,5.5c-.258,2.523-.517,5.06-.766,7.591-.577,5.765-1.006,10.407-1.352,14.61-.319,3.857-.571,7.508-.75,10.85-.037.639-.067,1.276-.1,1.9l-.015.309c-.251,4.843-.535,10.33-1.808,14.85C113.053,123.853,106.758,128,95.313,128ZM77.218,94.411c-.247,1.648-.529,3.564-.767,5.516-.511,4.2-.957,9.621.137,14.277,1.768,7.574,7.328,11.422,17,11.766,11.655.4,17.671-3.12,20.106-11.807,1.212-4.307,1.491-9.674,1.736-14.409l.014-.306c.031-.633.062-1.275.1-1.917.18-3.357.433-7.027.753-10.9.347-4.215.778-8.868,1.355-14.645.25-2.531.51-5.07.768-7.595.187-1.843.375-3.68.558-5.5.448-4.443.963-9.652,1.387-14.613l.008-.086a44.556,44.556,0,0,0-.918-12.72,48.283,48.283,0,0,0-5.426-14.334C109.649,9.668,101.4,1,86.972,2.093c-9,.683-14.161,5.5-15.78,14.71a50.661,50.661,0,0,0-.084,14.345,116.729,116.729,0,0,0,2.327,12.987c1.028,4.481,2.169,8.626,3.175,12.282l.632,2.3a64.168,64.168,0,0,1,2.05,13.316,80.766,80.766,0,0,1-.652,14.814A65.806,65.806,0,0,1,77.218,94.411Z" fill="#2f3a5a"/><path d="M120.43,31.264H70.115a51.727,51.727,0,0,1,.092-14.634h44.682A49.185,49.185,0,0,1,120.43,31.264Z" fill="#dbe2eb"/><path d="M121.661,32.264H69.224l-.1-.885a52.621,52.621,0,0,1,.1-14.923l.146-.826h46.094l.289.495a50.253,50.253,0,0,1,5.658,14.934Zm-50.65-2h48.173a48.138,48.138,0,0,0-4.873-12.634H71.058A51.052,51.052,0,0,0,71.011,30.264Z" fill="#2f3a5a"/><path d="M121.359,44.36c-.4,4.635-.879,9.567-1.389,14.627H76.28l-.042-.149c-1.091-4-2.53-9.042-3.777-14.478Z" fill="#dbe2eb"/><path d="M120.874,59.987H75.525l-.843-3.039c-1.012-3.677-2.159-7.843-3.2-12.364l-.28-1.224h51.242l-.093,1.085c-.426,4.975-.942,10.194-1.39,14.643Zm-43.832-2h42.023c.393-3.906.827-8.331,1.2-12.627H73.721c.95,4.012,1.975,7.736,2.889,11.057Z" fill="#2f3a5a"/><path d="M118.644,72.083c-.5,4.961-.963,9.893-1.353,14.627H77.648a80.259,80.259,0,0,0,.645-14.627Z" fill="#dbe2eb"/><path d="M118.212,87.71H76.5l.153-1.134a78.6,78.6,0,0,0,.637-14.442l-.053-1.051H119.75l-.11,1.1c-.577,5.764-1.007,10.406-1.352,14.609Zm-39.427-2h37.586c.31-3.7.686-7.76,1.169-12.627h-38.2A80.723,80.723,0,0,1,78.785,85.71Z" fill="#2f3a5a"/><path d="M116.426,99.806c-.276,5.336-.574,10.375-1.771,14.627H75.614c-1.056-4.493-.758-9.674-.156-14.627Z" fill="#dbe2eb"/><path d="M115.412,115.433H74.822l-.181-.772c-1.166-4.962-.706-10.61-.175-14.976l.107-.879h42.906l-.054,1.051c-.251,4.84-.535,10.327-1.808,14.847Zm-38.99-2h37.464a69.063,69.063,0,0,0,1.487-12.627H76.348A42.8,42.8,0,0,0,76.422,113.433Z" fill="#2f3a5a"/><path d="M118.7,60.563C116.047,43.2,93.11,27.2,93.11,27.2l-.092-3.842c-.356-.839-2.275-.839-2.876,0L89.957,27.2S75.972,36.4,72.823,59.471c-2.137,15.65,2.623,30.913,8.993,37.736a1.4,1.4,0,0,0,2.426-.814,21.47,21.47,0,0,0-.727-8.7c-1.721-4.932-9.206-11.042-8.059-17.936,1.136-6.823,7.781-25.632,15.816-33.744,12.407,8.112,22.667,26.921,24.421,33.744,1.771,6.894-4.429,13.833-7.086,18.765-1.766,3.278-1.42,7.219-.988,9.494a1.412,1.412,0,0,0,2.163.919C119.6,92.668,121.222,77.013,118.7,60.563Z" fill="#4fa4d1"/><path d="M109,100.166a2.4,2.4,0,0,1-2.365-1.961c-.426-2.247-.85-6.555,1.091-10.155.606-1.125,1.379-2.334,2.2-3.613,2.845-4.446,6.069-9.484,4.8-14.429-1.583-6.16-11.349-24.428-23.31-32.694C83.73,45.635,77.465,63.777,76.442,69.923,75.764,74,78.561,78,81.028,81.529a26.394,26.394,0,0,1,3.431,5.837,22.424,22.424,0,0,1,.779,9.122,2.4,2.4,0,0,1-4.153,1.4c-6.293-6.743-11.493-22.15-9.253-38.555,2.9-21.265,14.705-30.884,17.15-32.669l.175-3.647.172-.241a2.98,2.98,0,0,1,2.727-1.024,2.188,2.188,0,0,1,1.882,1.217l.075.175L94.1,26.68a96.419,96.419,0,0,1,11.527,9.992c8.2,8.341,12.934,16.328,14.068,23.739,1.739,11.36,2.833,31.579-9.372,39.368A2.451,2.451,0,0,1,109,100.166ZM91.137,34.73l.683.448c12.457,8.145,22.945,26.952,24.842,34.332,1.487,5.789-2.139,11.453-5.052,16-.8,1.247-1.552,2.424-2.123,3.484-1.648,3.058-1.262,6.847-.886,8.833a.4.4,0,0,0,.236.3.42.42,0,0,0,.406-.038c11.251-7.18,10.138-26.5,8.473-37.38-2.563-16.743-24.953-32.533-25.179-32.691l-.415-.29-.095-3.978a2.227,2.227,0,0,0-.574-.007,1.32,1.32,0,0,0-.333.089l-.188,3.921-.424.28c-.136.09-13.65,9.266-16.695,31.568-2.155,15.787,2.763,30.522,8.734,36.918a.389.389,0,0,0,.432.109.377.377,0,0,0,.268-.336,20.491,20.491,0,0,0-.676-8.273,25.246,25.246,0,0,0-3.182-5.348c-2.687-3.842-5.732-8.2-4.919-13.081,1.224-7.359,8.015-26.13,16.092-34.284Z" fill="#2f3a5a"/><path d="M6.634,44.275c0,.028.007.057.007.085.4,4.635.879,9.567,1.389,14.627.433,4.316.893,8.716,1.326,13.1.5,4.961.963,9.893,1.353,14.627.312,3.777.567,7.427.751,10.878.043.744.078,1.488.114,2.218.276,5.336.574,10.375,1.771,14.627,2.2,7.838,7.42,13.018,21.1,12.536,11.587-.411,16.335-5.676,17.937-12.536,1.056-4.493.758-9.674.156-14.627-.234-1.921-.511-3.806-.78-5.6a63.91,63.91,0,0,1-1.41-7.5,80.259,80.259,0,0,1-.645-14.627,63.1,63.1,0,0,1,2.013-13.1l.042-.149c1.091-4,2.53-9.042,3.777-14.478a118.977,118.977,0,0,0,2.346-13.1,51.727,51.727,0,0,0-.092-14.634C56.312,8.2,51.649,1.9,41.1,1.1,27.774.083,18.632,7.212,13.111,16.63A49.185,49.185,0,0,0,7.57,31.264,45.639,45.639,0,0,0,6.634,44.275Z" fill="#f6ba5b"/><path d="M32.687,128c-11.447,0-17.74-4.148-20.3-13.3-1.272-4.518-1.556-10-1.807-14.845l-.015-.312c-.031-.627-.061-1.264-.1-1.9-.179-3.345-.431-7-.75-10.853-.346-4.2-.775-8.845-1.352-14.609-.249-2.532-.508-5.069-.766-7.592q-.282-2.767-.559-5.5c-.448-4.448-.964-9.667-1.39-14.642l-.007-.084a46.539,46.539,0,0,1,.953-13.3,50.253,50.253,0,0,1,5.658-14.934C18.843,4.873,29.123-.822,41.179.1c9.9.752,15.824,6.255,17.6,16.358a52.613,52.613,0,0,1,.1,14.922,118.662,118.662,0,0,1-2.365,13.207c-1.036,4.519-2.183,8.685-3.195,12.362l-.636,2.313a62.115,62.115,0,0,0-1.976,12.875,78.581,78.581,0,0,0,.637,14.44,63.786,63.786,0,0,0,1.384,7.368l.024.115c.251,1.673.54,3.626.783,5.626.531,4.366.991,10.014-.175,14.976-1.974,8.455-8.324,12.933-18.874,13.307Q33.566,128,32.687,128ZM7.633,44.213l.009.147c.42,4.876.935,10.085,1.383,14.527q.274,2.731.558,5.5c.258,2.525.518,5.064.768,7.6.577,5.776,1.008,10.429,1.355,14.644.32,3.876.573,7.546.753,10.906.037.639.068,1.281.1,1.914l.015.309c.244,4.732.523,10.1,1.735,14.4,2.435,8.689,8.46,12.208,20.106,11.809,9.67-.344,15.23-4.192,17-11.765,1.094-4.657.648-10.077.137-14.278-.238-1.952-.52-3.868-.767-5.516a65.806,65.806,0,0,1-1.422-7.567,80.745,80.745,0,0,1-.652-14.811,64.174,64.174,0,0,1,2.046-13.306l.636-2.31c1.006-3.656,2.147-7.8,3.174-12.28A116.43,116.43,0,0,0,56.891,31.15,50.633,50.633,0,0,0,56.808,16.8C55.189,7.588,50.027,2.776,41.028,2.093,26.6,1,18.352,9.668,13.974,17.136A48.238,48.238,0,0,0,8.549,31.469a44.522,44.522,0,0,0-.919,12.72Z" fill="#2f3a5a"/><path d="M7.57,31.264H57.885a51.727,51.727,0,0,0-.092-14.634H13.111A49.185,49.185,0,0,0,7.57,31.264Z" fill="#dbe2eb"/><path d="M58.776,32.264H6.339l.252-1.205a50.253,50.253,0,0,1,5.658-14.934l.289-.495H58.632l.146.826a52.621,52.621,0,0,1,.1,14.923Zm-49.96-2H56.989a51.052,51.052,0,0,0-.047-12.634H13.689A48.138,48.138,0,0,0,8.816,30.264Z" fill="#2f3a5a"/><path d="M6.641,44.36c.4,4.635.879,9.567,1.389,14.627H51.72l.042-.149c1.091-4,2.53-9.042,3.777-14.478Z" fill="#dbe2eb"/><path d="M52.475,59.987H7.126l-.091-.9c-.448-4.449-.964-9.668-1.39-14.643L5.552,43.36H56.794l-.28,1.224c-1.037,4.521-2.184,8.687-3.2,12.364Zm-43.54-2H50.958l.432-1.57c.914-3.321,1.939-7.045,2.889-11.057H7.732C8.108,49.656,8.542,54.081,8.935,57.987Z" fill="#2f3a5a"/><path d="M9.356,72.083c.5,4.961.963,9.893,1.353,14.627H50.352a80.259,80.259,0,0,1-.645-14.627Z" fill="#dbe2eb"/><path d="M51.5,87.71H9.788l-.076-.918c-.345-4.2-.775-8.845-1.352-14.609l-.11-1.1H50.759l-.053,1.051a78.6,78.6,0,0,0,.637,14.442Zm-39.867-2H49.215a80.723,80.723,0,0,1-.552-12.627H10.46C10.943,77.95,11.319,82.012,11.629,85.71Z" fill="#2f3a5a"/><path d="M11.574,99.806c.276,5.336.574,10.375,1.771,14.627H52.386c1.056-4.493.758-9.674.156-14.627Z" fill="#dbe2eb"/><path d="M53.178,115.433H12.588l-.205-.729c-1.273-4.52-1.557-10.007-1.808-14.847l-.054-1.051H53.427l.107.879c.531,4.366.991,10.014-.175,14.976Zm-39.064-2H51.578a42.8,42.8,0,0,0,.074-12.627H12.627A69.063,69.063,0,0,0,14.114,113.433Z" fill="#2f3a5a"/><path d="M9.3,60.563C11.953,43.2,34.89,27.2,34.89,27.2l.092-3.842c.356-.839,2.275-.839,2.876,0l.185,3.843s13.985,9.2,17.134,32.267c2.137,15.65-2.623,30.913-8.993,37.736a1.4,1.4,0,0,1-2.426-.814,21.47,21.47,0,0,1,.727-8.7c1.721-4.932,9.206-11.042,8.059-17.936-1.136-6.823-7.781-25.632-15.816-33.744C24.321,44.127,14.061,62.936,12.307,69.759c-1.771,6.894,4.429,13.833,7.086,18.765,1.766,3.278,1.42,7.219.988,9.494a1.412,1.412,0,0,1-2.163.919C8.4,92.668,6.778,77.013,9.3,60.563Z" fill="#4fa4d1"/><path d="M19,100.166a2.451,2.451,0,0,1-1.319-.387C5.475,91.99,6.569,71.771,8.308,60.411l.988.151-.988-.151C9.442,53,14.175,45.013,22.376,36.672A96.419,96.419,0,0,1,33.9,26.68l.084-3.534.075-.175a2.188,2.188,0,0,1,1.882-1.217,2.98,2.98,0,0,1,2.727,1.024l.172.241.175,3.647c2.445,1.785,14.247,11.4,17.15,32.669,2.24,16.4-2.96,31.812-9.253,38.555a2.4,2.4,0,0,1-4.153-1.4,22.424,22.424,0,0,1,.779-9.122,26.394,26.394,0,0,1,3.431-5.837C49.439,78,52.236,74,51.558,69.923c-1.023-6.146-7.288-24.288-14.972-32.609C24.625,45.58,14.859,63.848,13.276,70.008c-1.271,4.945,1.953,9.983,4.8,14.429.82,1.279,1.593,2.488,2.2,3.613,1.941,3.6,1.517,7.908,1.091,10.155A2.4,2.4,0,0,1,19,100.166ZM35.973,23.779l-.095,3.954-.415.29c-.226.158-22.618,15.959-25.179,32.691-1.665,10.878-2.778,30.2,8.472,37.38a.425.425,0,0,0,.407.038.4.4,0,0,0,.236-.3c.376-1.986.762-5.775-.886-8.833-.571-1.06-1.325-2.237-2.123-3.484-2.913-4.552-6.539-10.216-5.052-16,1.9-7.38,12.385-26.187,24.842-34.332l.683-.448.575.581C45.515,43.465,52.306,62.236,53.53,69.6c.813,4.884-2.232,9.239-4.919,13.081a25.246,25.246,0,0,0-3.182,5.348,20.491,20.491,0,0,0-.676,8.273.377.377,0,0,0,.268.336.389.389,0,0,0,.432-.109c5.971-6.4,10.889-21.131,8.734-36.918C51.134,37.245,37.629,28.128,37.493,28.039l-.425-.28-.188-3.922a1.32,1.32,0,0,0-.333-.089A1.417,1.417,0,0,0,35.973,23.779Z" fill="#2f3a5a"/></g></svg>
