<svg height="512" viewBox="0 0 128 128" width="512" xmlns="http://www.w3.org/2000/svg"><g id="icon"><path d="m21.419 81.434a1 1 0 0 1 -1-1v-7.216c-.252-1.72-3.143-23.577 9.382-40.534 7.356-9.961 18.544-16.112 33.253-18.284a1 1 0 0 1 .291 1.979c-14.162 2.089-24.907 7.973-31.936 17.49-12.278 16.626-9.036 38.9-9 39.121a.964.964 0 0 1 .012.152v7.29a1 1 0 0 1 -1.002 1.002z" fill="#2f3a5a"/><path d="m106.077 81.434a1 1 0 0 1 -1-1v-7.29a.964.964 0 0 1 .012-.152c.034-.222 3.263-22.527-9.013-39.134-7.028-9.508-17.769-15.389-31.925-17.477a1 1 0 0 1 .291-1.979c14.708 2.17 25.9 8.321 33.252 18.281 12.526 16.959 9.634 38.817 9.383 40.535v7.216a1 1 0 0 1 -1 1z" fill="#2f3a5a"/><path d="m57.024 26.611a1 1 0 0 1 -.8-1.593 53.412 53.412 0 0 1 8.005-8.667 1 1 0 0 1 -.8-.819 26.088 26.088 0 0 1 -.505-7.577 9.474 9.474 0 0 1 3.923-6.907 6.224 6.224 0 0 1 7.983.865c2.042 2.444 1.336 5.947-.183 8.167a19.32 19.32 0 0 1 -4.957 4.53c-.29.209-.579.417-.865.627a51.5 51.5 0 0 0 -10.995 10.968 1 1 0 0 1 -.806.406zm13.448-24.611a4.752 4.752 0 0 0 -2.539.725 7.5 7.5 0 0 0 -3.027 5.479 24.594 24.594 0 0 0 .493 7 1.044 1.044 0 0 1 .014.147q1.089-.893 2.227-1.727c.292-.214.586-.425.881-.638a17.513 17.513 0 0 0 4.473-4.037c1.144-1.669 1.613-4.181.3-5.755a3.606 3.606 0 0 0 -2.822-1.194z" fill="#2f3a5a"/><path d="m75.083 26.611a1 1 0 0 1 -.806-.406 51.477 51.477 0 0 0 -10.993-10.968c-.287-.212-.578-.421-.869-.63a19.288 19.288 0 0 1 -4.952-4.527c-1.52-2.22-2.226-5.723-.184-8.167a6.225 6.225 0 0 1 7.984-.865 9.478 9.478 0 0 1 3.923 6.907 26.088 26.088 0 0 1 -.505 7.577 1 1 0 0 1 -.8.819 53.5 53.5 0 0 1 8 8.667 1 1 0 0 1 -.8 1.593zm-13.447-24.611a3.608 3.608 0 0 0 -2.822 1.193c-1.314 1.574-.844 4.086.3 5.755a17.552 17.552 0 0 0 4.469 4.034q.446.319.886.641 1.137.835 2.226 1.727a1.044 1.044 0 0 1 .014-.147 24.558 24.558 0 0 0 .493-7 7.5 7.5 0 0 0 -3.026-5.479 4.757 4.757 0 0 0 -2.54-.724z" fill="#2f3a5a"/><path d="m115.17 92.683a41.852 41.852 0 0 0 -8.752-19.541c-26.9 4.745-35.5 22.012-38.217 33.55-.031.132-.062.263-.092.393a4.217 4.217 0 0 1 -8.219.017c-2.618-11.544-11.1-29.163-38.313-33.96a41.084 41.084 0 0 0 -9.185 27c.03 1.024.118 2.068.246 3.121a24.965 24.965 0 0 0 .995 4.529 28.3 28.3 0 0 0 6.615 11.174 26.541 26.541 0 0 0 5.976 4.705c.01.01.01.01.01 0a24.529 24.529 0 0 0 15.456 3.131 28.586 28.586 0 0 0 7.078-1.772v-.01q1.229-.466 2.475-1.057a22.372 22.372 0 0 1 9.6-2.064h6.473a22.061 22.061 0 0 1 9.47 2.082 28.615 28.615 0 0 0 14.294 2.959 24.444 24.444 0 0 0 6.9-1.477 27.821 27.821 0 0 0 17.376-22.2 37.682 37.682 0 0 0 -.186-10.58z" fill="#ef5361"/><g opacity=".5"><path d="m115.354 103.266a27.825 27.825 0 0 1 -17.376 22.2 24.451 24.451 0 0 1 -6.9 1.477 28.684 28.684 0 0 1 -14.3-2.964 22.1 22.1 0 0 0 -9.47-2.077h-6.464a22.266 22.266 0 0 0 -9.6 2.067c-.836.394-1.654.739-2.481 1.054v.01a28.575 28.575 0 0 1 -7.078 1.772 24.53 24.53 0 0 1 -15.456-3.131c0 .01 0 .01-.01 0a26.541 26.541 0 0 1 -5.976-4.705 28.327 28.327 0 0 1 -6.614-11.169 25.05 25.05 0 0 1 -.995-4.529c-.127-1.053-.216-2.1-.246-3.121a41.09 41.09 0 0 1 9.185-27c.138.029.276.049.414.078a43.375 43.375 0 0 0 -5.316 22.172c.029 1.024.108 2.068.226 3.121a26.633 26.633 0 0 0 .906 4.529 29.072 29.072 0 0 0 6.074 11.173 24.689 24.689 0 0 0 5.474 4.706c.01.01.01.01.01 0a20.979 20.979 0 0 0 14.176 3.131 24.508 24.508 0 0 0 6.5-1.772v-.01c.748-.305 1.507-.66 2.265-1.054a19.137 19.137 0 0 1 8.811-2.067h5.936a18.783 18.783 0 0 1 8.683 2.087 24.314 24.314 0 0 0 13.1 2.953 20.791 20.791 0 0 0 6.33-1.476c8.811-3.564 14.875-12.828 15.939-22.2a41.39 41.39 0 0 0 -.168-10.583 43.661 43.661 0 0 0 -1.742-7.344 44.447 44.447 0 0 0 -3.191-7.374c.138-.029.276-.059.414-.078a41.852 41.852 0 0 1 8.752 19.541 37.719 37.719 0 0 1 .188 10.583z" fill="#da2a47"/></g><g fill="#dbe2eb"><circle cx="97.159" cy="84.776" r="3.878"/><circle cx="109.572" cy="108.738" r="3.878"/><path d="m115.17 92.683a3.876 3.876 0 1 1 -1.9-7.344 39.874 39.874 0 0 1 1.9 7.344z"/><circle cx="95.18" cy="104.86" r="3.878"/><path d="m70.805 110.892a3.88 3.88 0 0 1 -7.723-.528h.918a4.218 4.218 0 0 0 4.111-3.279c.03-.13.061-.261.092-.393a3.869 3.869 0 0 1 2.602 4.2z"/><circle cx="47.082" cy="107.833" r="3.878"/><circle cx="41.03" cy="90.529" r="3.878"/><circle cx="30.12" cy="104.86" r="3.878"/><path d="m27.572 120.75a3.858 3.858 0 0 1 -1.338 2.924c0 .01 0 .01-.01 0a26.541 26.541 0 0 1 -5.976-4.705 3.878 3.878 0 0 1 7.324 1.781z"/><circle cx="22.365" cy="86.652" r="3.878"/><path d="m16.98 103.955a3.877 3.877 0 0 1 -3.347 3.84 24.965 24.965 0 0 1 -.995-4.529c-.128-1.053-.216-2.1-.246-3.121a3.345 3.345 0 0 1 .709-.068 3.88 3.88 0 0 1 3.879 3.878z"/><circle cx="79.808" cy="116.133" r="3.878"/><circle cx="82.558" cy="94.407" r="3.878"/><path d="m98.07 124.629a3.9 3.9 0 0 1 -.089.837 24.444 24.444 0 0 1 -6.9 1.477 3.878 3.878 0 1 1 6.99-2.314z"/><path d="m48.788 124.629c0 .138-.01.266-.02.394v.01a28.586 28.586 0 0 1 -7.078 1.772 3.882 3.882 0 1 1 7.1-2.176z"/></g><path d="m89.37 128a30.262 30.262 0 0 1 -13.013-3.112 21.18 21.18 0 0 0 -9.042-1.986h-6.471a21.225 21.225 0 0 0 -9.172 1.967c-.812.385-1.625.734-2.421 1.039a.951.951 0 0 1 -.125.059 29.741 29.741 0 0 1 -7.326 1.833 25.681 25.681 0 0 1 -15.98-3.208 1.153 1.153 0 0 1 -.12-.064 27.474 27.474 0 0 1 -6.178-4.869 29.258 29.258 0 0 1 -6.845-11.567 25.974 25.974 0 0 1 -1.032-4.7c-.141-1.152-.224-2.2-.254-3.212a41.7 41.7 0 0 1 9.441-27.7.992.992 0 0 1 .918-.317c28.311 4.989 36.658 23.9 39.114 34.725a3.218 3.218 0 0 0 6.27-.022l.082-.351c2.528-10.733 10.944-29.4 39.027-34.352a.993.993 0 0 1 .918.317 42.8 42.8 0 0 1 8.995 20.052 38.815 38.815 0 0 1 .193 10.864 28.8 28.8 0 0 1 -18.02 23.004 25.374 25.374 0 0 1 -7.184 1.537q-.885.063-1.775.063zm-28.526-7.1h6.471a23.2 23.2 0 0 1 9.9 2.179 27.618 27.618 0 0 0 13.8 2.863 23.384 23.384 0 0 0 6.622-1.416 26.756 26.756 0 0 0 16.73-21.385 36.825 36.825 0 0 0 -.182-10.3 39.045 39.045 0 0 0 -1.853-7.16 40.579 40.579 0 0 0 -6.3-11.45c-25.171 4.647-33.935 20.316-36.85 32.693l-.09.383a5.218 5.218 0 0 1 -10.171.019c-2.851-12.543-11.576-28.414-36.949-33.097-1.72 2.131-9.145 12.171-8.581 25.871.028.958.107 1.95.24 3.041a24.064 24.064 0 0 0 .955 4.347 27.264 27.264 0 0 0 6.383 10.783 25.433 25.433 0 0 0 5.677 4.488.672.672 0 0 1 .088.046 23.678 23.678 0 0 0 14.833 3 27.683 27.683 0 0 0 6.717-1.665.948.948 0 0 1 .129-.06c.787-.3 1.6-.643 2.4-1.025a23.207 23.207 0 0 1 10.031-2.155z" fill="#2f3a5a"/></g></svg>