<svg height="512" viewBox="0 0 128 128" width="512" xmlns="http://www.w3.org/2000/svg"><g id="icon"><path d="m52.139 15.919h23.723v17.416h-23.723z" fill="#dbe2eb"/><path d="m69.53 15.915h6.33v17.42h-6.33z" fill="#c1cdd3"/><path d="m76.861 34.335h-25.722v-19.417h25.722zm-23.722-2h21.722v-15.417h-21.722z" fill="#2f3a5a"/><path d="m84.152 122.319h-40.304l.949-13.282 1.12-12.928 1.017-11.774 1.109-12.939 1.017-11.774 1.12-12.939 1.166-13.534h25.308l1.166 13.534 1.12 12.939 1.017 11.774 1.109 12.939 1.017 11.774 1.12 12.928z" fill="#dbe2eb"/><path d="m84.152 122.319h-40.304l.949-13.282 1.12-12.928 1.017-11.774 1.109-12.939 1.017-11.774 1.12-12.939 1.166-13.534h25.308l1.166 13.534 1.12 12.939 1.017 11.774 1.109 12.939 1.017 11.774 1.12 12.928z" fill="#dbe2eb"/><path d="m84.15 122.315h-8.29l-.95-13.28-1.12-12.93-1.01-11.77-1.11-12.94-1.02-11.77-1.12-12.94-1.17-13.54h8.29l1.17 13.54 1.12 12.94 1.02 11.77 1.11 12.94 1.01 11.77 1.12 12.93z" fill="#d1ccec"/><path d="m79.764 16.455-15.164-15.167a.98.98 0 0 0 -1.385 0l-15.169 15.167a.979.979 0 0 0 .693 1.672h30.333a.979.979 0 0 0 .692-1.672z" fill="#e95a6a"/><path d="m79.07 18.125h-9.04c.35 0 .53-1.05.28-1.67l-6.13-15.17c-.08-.18-.17-.28-.27-.29a.978.978 0 0 1 .69.29l15.16 15.17a.977.977 0 0 1 -.69 1.67z" fill="#da2a47"/><path d="m78.94 59.622h-29.88l1.12-12.939h27.64z" fill="#ef5361"/><path d="m81.066 84.335h-34.132l1.109-12.939h31.914z" fill="#ef5361"/><path d="m83.203 109.037h-38.406l1.12-12.928h36.166z" fill="#ef5361"/><path d="m78.94 59.625h-8.29l-1.12-12.94h8.29z" fill="#da2a47"/><path d="m81.07 84.335h-8.29l-1.11-12.94h8.29z" fill="#da2a47"/><path d="m83.2 109.035h-8.29l-1.12-12.93h8.29z" fill="#da2a47"/><path d="m85.227 123.319h-42.454l1.027-14.354 6.63-76.816h27.141l6.629 76.8zm-40.306-2h38.157l-.872-12.211-6.47-74.959h-23.472l-6.472 74.973z" fill="#2f3a5a"/><path d="m77.247 31.1h-26.494a2.839 2.839 0 0 0 -2.839 2.839 2.839 2.839 0 0 0 2.839 2.839h26.494a2.839 2.839 0 0 0 2.839-2.839 2.839 2.839 0 0 0 -2.839-2.839z" fill="#ef5361"/><path d="m80.09 33.945a2.851 2.851 0 0 1 -2.84 2.84h-6.76a2.84 2.84 0 1 0 0-5.68h6.76a2.834 2.834 0 0 1 2.84 2.84z" fill="#da2a47"/><path d="m77.247 37.781h-26.494a3.839 3.839 0 0 1 0-7.678h26.494a3.839 3.839 0 0 1 0 7.678zm-26.494-5.681a1.839 1.839 0 0 0 0 3.678h26.494a1.839 1.839 0 0 0 0-3.678z" fill="#2f3a5a"/><rect fill="#bac2d3" height="9.713" rx="1.835" width="62.165" x="32.918" y="117.289"/><rect fill="#c1cdd3" height="9.713" rx="1.835" width="62.165" x="32.918" y="117.289"/><path d="m95.08 119.125v6.04a1.839 1.839 0 0 1 -1.83 1.84h-11.89a1.842 1.842 0 0 0 1.84-1.84v-6.04a1.842 1.842 0 0 0 -1.84-1.84h11.89a1.839 1.839 0 0 1 1.83 1.84z" fill="#bac2d3"/><path d="m93.247 128h-58.494a2.838 2.838 0 0 1 -2.836-2.835v-6.042a2.84 2.84 0 0 1 2.836-2.836h58.494a2.84 2.84 0 0 1 2.836 2.836v6.042a2.838 2.838 0 0 1 -2.836 2.835zm-58.494-9.713a.837.837 0 0 0 -.836.836v6.042a.837.837 0 0 0 .836.835h58.494a.837.837 0 0 0 .836-.835v-6.042a.837.837 0 0 0 -.836-.836z" fill="#2f3a5a"/><path d="m79.072 19.127h-30.333a1.979 1.979 0 0 1 -1.4-3.379l15.166-15.167a2.027 2.027 0 0 1 2.8 0l15.166 15.166a1.979 1.979 0 0 1 -1.4 3.38zm-15.181-17.127-15.138 15.162 30.269-.035z" fill="#2f3a5a"/><path d="m64.014 24.152a2.959 2.959 0 0 0 -2.959 2.959v2.958h5.918v-2.958a2.959 2.959 0 0 0 -2.959-2.959z" fill="#43567c"/><g fill="#2f3a5a"><path d="m88.477 25.627h-4.8a1 1 0 0 1 0-2h4.8a1 1 0 0 1 0 2z"/><path d="m98.224 25.627h-4.8a1 1 0 0 1 0-2h4.8a1 1 0 0 1 0 2z"/><path d="m107.971 25.627h-4.8a1 1 0 0 1 0-2h4.8a1 1 0 0 1 0 2z"/><path d="m88.182 31.47a1.015 1.015 0 0 1 -.345-.06l-4.5-1.651a1 1 0 0 1 .688-1.879l4.5 1.651a1 1 0 0 1 -.344 1.939z"/><path d="m97.334 34.824a1.015 1.015 0 0 1 -.344-.061l-4.5-1.65a1 1 0 0 1 .687-1.879l4.506 1.65a1 1 0 0 1 -.344 1.94z"/><path d="m106.486 38.177a1.009 1.009 0 0 1 -.344-.06l-4.5-1.651a1 1 0 0 1 .687-1.879l4.506 1.651a1 1 0 0 1 -.344 1.939z"/><path d="m83.677 21.434a1 1 0 0 1 -.344-1.939l4.5-1.651a1 1 0 0 1 .689 1.879l-4.5 1.65a1.015 1.015 0 0 1 -.345.061z"/><path d="m92.829 18.08a1 1 0 0 1 -.344-1.939l4.5-1.65a1 1 0 0 1 .688 1.879l-4.506 1.65a1 1 0 0 1 -.338.06z"/><path d="m101.98 14.727a1 1 0 0 1 -.343-1.94l4.5-1.65a1 1 0 0 1 .688 1.879l-4.506 1.65a1.007 1.007 0 0 1 -.339.061z"/><path d="m44.321 25.627h-4.8a1 1 0 0 1 0-2h4.8a1 1 0 0 1 0 2z"/><path d="m34.574 25.627h-4.8a1 1 0 0 1 0-2h4.8a1 1 0 0 1 0 2z"/><path d="m24.827 25.627h-4.8a1 1 0 0 1 0-2h4.8a1 1 0 0 1 0 2z"/><path d="m39.818 31.47a1 1 0 0 1 -.344-1.939l4.505-1.651a1 1 0 0 1 .688 1.879l-4.5 1.651a1.015 1.015 0 0 1 -.349.06z"/><path d="m30.666 34.824a1 1 0 0 1 -.344-1.94l4.506-1.65a1 1 0 0 1 .687 1.879l-4.5 1.65a1.015 1.015 0 0 1 -.349.061z"/><path d="m21.514 38.177a1 1 0 0 1 -.344-1.939l4.506-1.651a1 1 0 0 1 .687 1.879l-4.5 1.651a1.009 1.009 0 0 1 -.349.06z"/><path d="m44.323 21.434a1.015 1.015 0 0 1 -.344-.061l-4.505-1.65a1 1 0 0 1 .689-1.879l4.5 1.651a1 1 0 0 1 -.344 1.939z"/><path d="m35.171 18.08a1 1 0 0 1 -.343-.06l-4.506-1.65a1 1 0 0 1 .688-1.879l4.5 1.65a1 1 0 0 1 -.344 1.939z"/><path d="m26.02 14.727a1.007 1.007 0 0 1 -.344-.061l-4.506-1.65a1 1 0 0 1 .688-1.879l4.5 1.65a1 1 0 0 1 -.343 1.94z"/></g></g></svg>