<svg height="512" viewBox="0 0 128 128" width="512" xmlns="http://www.w3.org/2000/svg"><g id="icon"><path d="m107.08 48.373v77.71h-86.16v-77.71a27.275 27.275 0 0 0 3.78-2.98 30.321 30.321 0 0 0 6.76-9.6 46.108 46.108 0 0 0 3.58-13.35 67.362 67.362 0 0 0 .47-9.6 70.812 70.812 0 0 0 -1.18-11.843h11.31c0 4.359-.01 8.289.13 11.84a57.06 57.06 0 0 0 1.01 9.6 27.841 27.841 0 0 0 .69 2.761 16.577 16.577 0 0 0 9.35 10.589 18.373 18.373 0 0 0 14.36 0 16.577 16.577 0 0 0 9.35-10.59 27.841 27.841 0 0 0 .69-2.761 57.06 57.06 0 0 0 1.01-9.6c.14-3.551.13-7.481.13-11.84h11.3a70.812 70.812 0 0 0 -1.18 11.84 68.864 68.864 0 0 0 .47 9.6 45.815 45.815 0 0 0 3.59 13.35 30.162 30.162 0 0 0 6.76 9.6 26.544 26.544 0 0 0 3.78 2.984z" fill="#a0ca8b"/><path d="m107.08 48.373v77.71h-5v-77.71a26.544 26.544 0 0 1 -3.78-2.98 30.162 30.162 0 0 1 -6.76-9.6 45.815 45.815 0 0 1 -3.59-13.35 68.864 68.864 0 0 1 -.47-9.6 70.812 70.812 0 0 1 1.18-11.843h5a70.812 70.812 0 0 0 -1.18 11.84 68.864 68.864 0 0 0 .47 9.6 45.815 45.815 0 0 0 3.59 13.35 30.162 30.162 0 0 0 6.76 9.6 26.544 26.544 0 0 0 3.78 2.983z" fill="#86be7a"/><path d="m107.08 127.083h-86.16a1 1 0 0 1 -1-1v-77.71a1 1 0 0 1 .449-.835 26.555 26.555 0 0 0 3.644-2.872 29.386 29.386 0 0 0 6.538-9.289 44.992 44.992 0 0 0 3.5-13.056 66.18 66.18 0 0 0 .462-9.456 70.8 70.8 0 0 0 -1.161-11.657 1 1 0 0 1 .978-1.208h11.31a1 1 0 0 1 1 1v.8c0 3.953 0 7.687.129 11a55.716 55.716 0 0 0 .99 9.432 26.993 26.993 0 0 0 .667 2.674 15.644 15.644 0 0 0 8.792 9.964 16.949 16.949 0 0 0 6.7 1.378h.147a16.968 16.968 0 0 0 6.712-1.377 15.646 15.646 0 0 0 8.793-9.966 26.712 26.712 0 0 0 .664-2.66 55.542 55.542 0 0 0 .992-9.442c.131-3.316.131-7.052.13-11.007v-.796a1 1 0 0 1 1-1h11.3a1 1 0 0 1 .979 1.205 70.656 70.656 0 0 0 -1.16 11.657 68.131 68.131 0 0 0 .463 9.456 44.73 44.73 0 0 0 3.507 13.056 29.172 29.172 0 0 0 6.535 9.286 25.77 25.77 0 0 0 3.643 2.873 1 1 0 0 1 .453.837v77.71a1 1 0 0 1 -.996 1.003zm-85.16-2h84.16v-76.174a28.034 28.034 0 0 1 -3.468-2.789 31.168 31.168 0 0 1 -6.982-9.913 46.7 46.7 0 0 1 -3.672-13.64 70 70 0 0 1 -.479-9.739 76.053 76.053 0 0 1 .981-10.828h-9.1c0 3.9 0 7.585-.131 10.881a57.454 57.454 0 0 1 -1.029 9.77 28.43 28.43 0 0 1 -.712 2.845 17.618 17.618 0 0 1 -9.909 11.215 19.383 19.383 0 0 1 -7.579 1.542h-.082a18.958 18.958 0 0 1 -7.492-1.543 17.616 17.616 0 0 1 -9.912-11.21 28.659 28.659 0 0 1 -.715-2.86 57.512 57.512 0 0 1 -1.028-9.756c-.13-3.297-.132-6.984-.131-10.884h-9.11a75.917 75.917 0 0 1 .98 10.821 68.146 68.146 0 0 1 -.478 9.743 46.954 46.954 0 0 1 -3.662 13.64 31.362 31.362 0 0 1 -6.985 9.915 28.371 28.371 0 0 1 -3.465 2.784z" fill="#2f3a5a"/><path d="m20.92 104.643h86.16v9.6h-86.16z" fill="#dbe2eb"/><path d="m107.08 115.244h-86.16a1 1 0 0 1 -1-1v-9.6a1 1 0 0 1 1-1h86.16a1 1 0 0 1 1 1v9.6a1 1 0 0 1 -1 1zm-85.16-2h84.16v-7.6h-84.16z" fill="#2f3a5a"/><path d="m20.92 81.693h86.16v9.6h-86.16z" fill="#dbe2eb"/><path d="m107.08 92.293h-86.16a1 1 0 0 1 -1-1v-9.6a1 1 0 0 1 1-1h86.16a1 1 0 0 1 1 1v9.6a1 1 0 0 1 -1 1zm-85.16-2h84.16v-7.6h-84.16z" fill="#2f3a5a"/><path d="m20.92 58.744h86.16v9.6h-86.16z" fill="#dbe2eb"/><path d="m107.08 69.344h-86.16a1 1 0 0 1 -1-1v-9.6a1 1 0 0 1 1-1h86.16a1 1 0 0 1 1 1v9.6a1 1 0 0 1 -1 1zm-85.16-2h84.16v-7.6h-84.16z" fill="#2f3a5a"/><path d="m103.3 45.393h-78.6a30.321 30.321 0 0 0 6.76-9.6h25.36a18.373 18.373 0 0 0 14.36 0h25.36a30.162 30.162 0 0 0 6.76 9.6z" fill="#dbe2eb"/><path d="m103.3 46.393h-78.6a1 1 0 0 1 -.684-1.73 29.379 29.379 0 0 0 6.535-9.286 1 1 0 0 1 .909-.584h25.36a1.015 1.015 0 0 1 .4.083 16.309 16.309 0 0 0 6.78 1.377h.073a16.968 16.968 0 0 0 6.712-1.377 1.015 1.015 0 0 1 .4-.083h25.355a1 1 0 0 1 .91.586 29.167 29.167 0 0 0 6.534 9.284 1 1 0 0 1 -.684 1.73zm-76.226-2h73.85a31.725 31.725 0 0 1 -5.022-7.6h-24.518a18.5 18.5 0 0 1 -7.384 1.46h-.082a19 19 0 0 1 -7.3-1.46h-24.518a31.957 31.957 0 0 1 -5.026 7.6z" fill="#2f3a5a"/><path d="m45.77 12.844a57.06 57.06 0 0 0 1.01 9.6h-11.74a67.362 67.362 0 0 0 .47-9.6z" fill="#dbe2eb"/><path d="m46.78 23.444h-11.74a1 1 0 0 1 -.992-1.123 66.18 66.18 0 0 0 .462-9.456 1 1 0 0 1 1-1.021h10.26a1 1 0 0 1 1 .963 55.713 55.713 0 0 0 .99 9.43 1 1 0 0 1 -.979 1.207zm-10.619-2h9.407a59.761 59.761 0 0 1 -.758-7.6h-8.287a68.123 68.123 0 0 1 -.362 7.6z" fill="#2f3a5a"/><path d="m92.95 22.443h-11.73a57.06 57.06 0 0 0 1.01-9.6h10.25a68.864 68.864 0 0 0 .47 9.6z" fill="#dbe2eb"/><path d="m92.95 23.444h-11.73a1 1 0 0 1 -.979-1.207 55.565 55.565 0 0 0 .989-9.429 1 1 0 0 1 1-.964h10.25a1 1 0 0 1 1 1.017 68.159 68.159 0 0 0 .463 9.46 1 1 0 0 1 -.992 1.123zm-10.518-2h9.4a70.176 70.176 0 0 1 -.361-7.6h-8.28a59.491 59.491 0 0 1 -.759 7.6z" fill="#2f3a5a"/></g></svg>