<svg height="512" viewBox="0 0 128 128" width="512" xmlns="http://www.w3.org/2000/svg"><g id="icon"><path d="m45.952 32.355c-4.79-3.048-8.181-4.9-17.658 1.5-12.163 8.219-25.206 25.078-25.206 25.078l2.237 4.892s17.39-23.689 26.617-27.078c7.079-2.6 9.017-.935 13.495 2 1.2.787 2.285-.035 2.422-1.818a5.363 5.363 0 0 0 -1.907-4.574z" fill="#f9c87e"/><path d="m5.124 65.788-3.196-6.988.369-.478c.537-.694 13.281-17.08 25.437-25.292 9.565-6.46 13.467-4.884 18.755-1.518a6.363 6.363 0 0 1 2.367 5.5 3.248 3.248 0 0 1 -1.57 2.819 2.385 2.385 0 0 1 -2.4-.241l-.658-.433c-3.909-2.585-5.692-3.764-11.943-1.469-8.84 3.245-25.985 26.494-26.154 26.728zm-.873-6.716 1.282 2.8c3.9-5.156 17.859-23.053 26.064-26.067 7.2-2.646 9.658-1.019 13.736 1.677l.652.43c.085.056.294.179.418.118s.4-.4.459-1.176a4.41 4.41 0 0 0 -1.446-3.654c-4.452-2.833-7.393-4.7-16.561 1.488-10.764 7.268-22.394 21.601-24.604 24.384z" fill="#2f3a5a"/><path d="m82.091 32.355c4.79-3.048 8.181-4.9 17.658 1.5 12.164 8.216 25.206 25.075 25.206 25.075l-2.237 4.892s-17.39-23.686-26.618-27.075c-7.078-2.6-9.017-.935-13.494 2-1.2.787-2.286-.035-2.423-1.818a5.366 5.366 0 0 1 1.908-4.574z" fill="#f9c87e"/><path d="m122.92 65.788-1.008-1.372c-.172-.234-17.316-23.484-26.155-26.731-6.25-2.3-8.034-1.116-11.943 1.468l-.659.434a2.391 2.391 0 0 1 -2.4.241 3.247 3.247 0 0 1 -1.571-2.819 6.363 6.363 0 0 1 2.367-5.5c5.289-3.365 9.191-4.941 18.755 1.518 12.156 8.212 24.9 24.6 25.437 25.292l.37.478zm-32.668-31.325a18.218 18.218 0 0 1 6.194 1.345c8.2 3.014 22.167 20.911 26.064 26.067l1.282-2.8c-2.209-2.783-13.844-17.119-24.6-24.386-9.168-6.195-12.11-4.323-16.562-1.488a4.41 4.41 0 0 0 -1.446 3.658c.06.781.327 1.11.46 1.176s.333-.063.417-.118l.653-.43c2.616-1.734 4.568-3.024 7.538-3.024z" fill="#2f3a5a"/><path d="m88.589 49.743h-50.941c-.929 0-1.682 1.232-1.682 2.753s.753 2.752 1.682 2.752h50.941c.93 0 1.683-1.232 1.683-2.752s-.753-2.753-1.683-2.753z" fill="#f9c87e"/><path d="m88.589 56.248h-50.941c-1.5 0-2.682-1.648-2.682-3.752s1.178-3.753 2.682-3.753h50.941c1.5 0 2.683 1.648 2.683 3.753s-1.178 3.752-2.683 3.752zm-50.941-5.5c-.17 0-.682.622-.682 1.753s.512 1.752.682 1.752h50.941c.17 0 .683-.622.683-1.752s-.513-1.753-.683-1.753z" fill="#2f3a5a"/><path d="m71.381 72.079c-4.3-6.066-11.261-6.066-15.556 0l-2.4-3.388c5.621-7.936 14.735-7.936 20.356 0z" fill="#f9c87e"/><path d="m71.381 73.81-.816-1.152c-1.885-2.658-4.357-4.128-6.965-4.128s-5.074 1.47-6.959 4.128l-.816 1.152-3.625-5.118.409-.578c2.912-4.114 6.816-6.375 10.991-6.375s8.086 2.261 11 6.375l.409.578zm-7.781-7.28a10.191 10.191 0 0 1 7.739 3.875l1.2-1.7c-2.469-3.208-5.623-4.965-8.944-4.965s-6.467 1.76-8.936 4.96l1.2 1.7a10.191 10.191 0 0 1 7.741-3.87z" fill="#2f3a5a"/><path d="m68.189 64.505s-.632-15.175 20.866-14.754c18.985.373 32.218 5.837 35.052 7.11a1.887 1.887 0 0 1 .893.839 16.711 16.711 0 0 1 2 6.9 1.976 1.976 0 0 1 -.516 1.4c-.739.82-2.018 3.019-2.018 8.413 0 7.588-7.8 24.028-23.606 24.028s-32.039-13.281-32.671-33.936z" fill="#f9c87e"/><path d="m127 64.6a1.952 1.952 0 0 1 -.521 1.4c-.739.817-2.018 3.012-2.018 8.406 0 7.59-7.8 24.029-23.6 24.029a32.531 32.531 0 0 1 -25.285-12.854 29.621 29.621 0 0 0 9.253 1.506c15.809 0 23.605-16.439 23.605-24.029 0-5.394 1.28-7.589 2.018-8.416a1.975 1.975 0 0 0 .522-1.4q-.015-.355-.059-.709a77.9 77.9 0 0 1 13.19 4.321 1.9 1.9 0 0 1 .9.837 16.853 16.853 0 0 1 1.995 6.909z" fill="#f9c87e"/><path d="m100.858 99.439a33.185 33.185 0 0 1 -22.72-9.5 36.543 36.543 0 0 1 -10.949-25.4 14.759 14.759 0 0 1 4.205-10.166c3.8-3.886 9.767-5.773 17.681-5.623 19.32.379 32.913 6.062 35.442 7.2a2.876 2.876 0 0 1 1.366 1.274 17.575 17.575 0 0 1 2.117 7.34 2.972 2.972 0 0 1 -.772 2.1c-.531.589-1.762 2.517-1.762 7.746 0 3.8-1.881 10.055-6.085 15.472-3.381 4.361-9.344 9.557-18.523 9.557zm-12.683-48.7c-6.923 0-12.085 1.69-15.352 5.03a12.836 12.836 0 0 0 -3.635 8.69v.012c.486 15.853 12.732 32.964 31.67 32.964 15.655 0 22.606-16.686 22.606-23.027 0-5.423 1.238-7.933 2.275-9.083a.979.979 0 0 0 .26-.691 15.828 15.828 0 0 0 -1.878-6.469.9.9 0 0 0 -.423-.4c-2.467-1.108-15.73-6.651-34.662-7.022q-.436.001-.861 0z" fill="#2f3a5a"/><path d="m59.811 64.505s.632-15.175-20.866-14.754c-18.985.373-32.218 5.837-35.052 7.11a1.887 1.887 0 0 0 -.893.839 16.711 16.711 0 0 0 -2 6.9 1.976 1.976 0 0 0 .518 1.4c.739.82 2.018 3.019 2.018 8.413 0 7.588 7.8 24.327 23.606 24.028 17.181-.328 32.245-13.33 32.669-33.936z" fill="#f9c87e"/><path d="m26.735 99.443a21.869 21.869 0 0 1 -15.546-6.543c-5.681-5.577-8.653-13.522-8.653-18.488 0-5.229-1.231-7.157-1.761-7.744a2.977 2.977 0 0 1 -.775-2.104 17.564 17.564 0 0 1 2.115-7.34 2.871 2.871 0 0 1 1.367-1.275c2.528-1.136 16.121-6.819 35.441-7.2 7.916-.163 13.879 1.737 17.681 5.623a14.754 14.754 0 0 1 4.2 10.161c-.467 22.5-17.281 34.593-33.65 34.9-.135.009-.278.01-.419.01zm13.09-48.7q-.426 0-.861.008c-18.932.371-32.195 5.914-34.664 7.022a.892.892 0 0 0 -.424.4 15.817 15.817 0 0 0 -1.876 6.465.979.979 0 0 0 .261.692c1.036 1.149 2.274 3.659 2.274 9.082 0 4.437 2.822 11.924 8.054 17.057a19.617 19.617 0 0 0 14.533 5.97c15.416-.293 31.251-11.706 31.688-32.954v-.02a12.958 12.958 0 0 0 -3.661-8.718c-3.266-3.322-8.42-5.004-15.324-5.004z" fill="#2f3a5a"/><path d="m50.568 79.163c-3.652 6.093-12.639 15.651-23.4 14.558a19.346 19.346 0 0 1 -8.554-2.805 14.73 14.73 0 0 1 -1.27-.886 16.4 16.4 0 0 1 -2.234-2.047 19.589 19.589 0 0 1 -2.4-3.269c-2.71-4.577-3.692-10.03-4.036-14.322-.65-8.062 12.816-17.679 30.171-15.769 1.1.118 2.234.285 3.366.5.423.078.827.167 1.221.255a28.836 28.836 0 0 1 3.228.9 15.211 15.211 0 0 1 1.506.611c3.8 1.722 4.981 4.144 5.611 7.343.823 4.191-.984 11.239-3.209 14.931z" fill="#84879c"/><g fill="#fff" opacity=".2"><path d="m42.876 55.38-28.321 32.6a19.639 19.639 0 0 1 -2.4-3.269l26.133-30.088c1.1.118 2.235.285 3.367.5.423.077.827.169 1.221.257z"/><path d="m47.61 56.887-29.55 34.029a14.73 14.73 0 0 1 -1.27-.886l29.31-33.754a15.211 15.211 0 0 1 1.51.611z"/></g><path d="m28.885 94.808a18 18 0 0 1 -1.816-.092 20.459 20.459 0 0 1 -8.986-2.954 15.7 15.7 0 0 1 -1.353-.944 17.429 17.429 0 0 1 -2.359-2.163 20.724 20.724 0 0 1 -2.522-3.433 34.276 34.276 0 0 1 -4.172-14.75c-.242-3.01 1.244-6.242 4.187-9.1 4.794-4.658 14.43-9.133 27.09-7.744 1.148.123 2.308.3 3.445.514.432.081.848.171 1.253.263a29.658 29.658 0 0 1 3.333.924 17.133 17.133 0 0 1 1.6.651c4.422 2 5.579 5.057 6.169 8.057.886 4.489-1.046 11.846-3.333 15.642-3.475 5.803-11.959 15.129-22.536 15.129zm5.825-39.408c-7.077 0-15.772 1.885-21.453 7.4-2.507 2.435-3.78 5.1-3.587 7.5a32.332 32.332 0 0 0 3.9 13.893 18.62 18.62 0 0 0 2.28 3.1 15.391 15.391 0 0 0 2.1 1.924 13.465 13.465 0 0 0 1.194.835 18.514 18.514 0 0 0 8.124 2.658c10.415 1.063 19.009-8.351 22.441-14.077 2.095-3.476 3.859-10.3 3.084-14.223-.594-3.018-1.609-5.07-5.043-6.626a14.606 14.606 0 0 0 -1.42-.576 27.415 27.415 0 0 0 -3.114-.863c-.389-.088-.781-.174-1.192-.25-1.088-.209-2.193-.374-3.289-.491a36.96 36.96 0 0 0 -4.025-.204z" fill="#2f3a5a"/><path d="m77.194 79.163c3.652 6.093 12.639 15.651 23.4 14.558a19.35 19.35 0 0 0 8.554-2.805 14.73 14.73 0 0 0 1.27-.886 16.4 16.4 0 0 0 2.234-2.047 19.589 19.589 0 0 0 2.4-3.269c2.707-4.577 3.692-10.03 4.036-14.322.65-8.062-12.816-17.679-30.171-15.769-1.1.118-2.234.285-3.366.5-.423.078-.827.167-1.221.255a28.917 28.917 0 0 0 -3.229.9 15.412 15.412 0 0 0 -1.506.611c-3.8 1.722-4.98 4.144-5.61 7.343-.827 4.191.984 11.239 3.209 14.931z" fill="#84879c"/><g fill="#fff" opacity=".2"><path d="m84.886 55.38 28.321 32.6a19.639 19.639 0 0 0 2.4-3.269l-26.133-30.088c-1.1.118-2.235.285-3.367.5-.423.077-.827.169-1.221.257z"/><path d="m80.152 56.887 29.548 34.029a14.73 14.73 0 0 0 1.27-.886l-29.312-33.754a15.211 15.211 0 0 0 -1.506.611z"/></g><path d="m98.875 94.808c-10.575 0-19.059-9.326-22.538-15.129-2.287-3.796-4.219-11.153-3.337-15.642.591-3 1.749-6.053 6.179-8.062.512-.238 1.051-.457 1.592-.645a29.866 29.866 0 0 1 3.344-.927c.4-.09.813-.18 1.249-.262 1.133-.217 2.293-.39 3.444-.513 12.664-1.392 22.293 3.087 27.087 7.743 2.942 2.859 4.429 6.091 4.186 9.1a34.251 34.251 0 0 1 -4.171 14.751 20.7 20.7 0 0 1 -2.524 3.434 17.541 17.541 0 0 1 -2.368 2.17 16.133 16.133 0 0 1 -1.346.938 20.473 20.473 0 0 1 -8.984 2.951 17.7 17.7 0 0 1 -1.813.093zm-5.823-39.408a36.9 36.9 0 0 0 -4.025.214c-1.1.118-2.2.282-3.288.49-.415.077-.806.163-1.189.249a27.452 27.452 0 0 0 -3.124.866c-.473.164-.948.357-1.408.57-3.442 1.561-4.458 3.613-5.053 6.631-.774 3.927.991 10.748 3.085 14.223 3.432 5.725 12.026 15.139 22.44 14.077a18.515 18.515 0 0 0 8.122-2.655 13.928 13.928 0 0 0 1.187-.829 15.512 15.512 0 0 0 2.11-1.931 18.7 18.7 0 0 0 2.281-3.105 32.3 32.3 0 0 0 3.9-13.894c.194-2.405-1.08-5.07-3.587-7.5-5.68-5.518-14.376-7.406-21.451-7.406z" fill="#2f3a5a"/></g></svg>