<svg height="512" viewBox="0 0 128 128" width="512" xmlns="http://www.w3.org/2000/svg"><g id="icon"><g fill="#c1cdd3"><path d="m103.158 108.664a1 1 0 0 1 -1-1v-43.027a1 1 0 0 1 2 0v43.027a1 1 0 0 1 -1 1z"/><path d="m124.672 87.151h-43.027a1 1 0 0 1 0-2h43.027a1 1 0 0 1 0 2z"/><path d="m87.945 102.363a1 1 0 0 1 -.707-1.707l30.425-30.425a1 1 0 1 1 1.414 1.414l-30.425 30.425a1 1 0 0 1 -.707.293z"/><path d="m118.37 102.363a1 1 0 0 1 -.707-.293l-30.425-30.425a1 1 0 1 1 1.414-1.414l30.425 30.425a1 1 0 0 1 -.707 1.707z"/></g><path d="m103.158 109.479a23.328 23.328 0 1 1 23.328-23.328 23.355 23.355 0 0 1 -23.328 23.328zm0-41.842a18.514 18.514 0 1 0 18.514 18.514 18.535 18.535 0 0 0 -18.514-18.514z" fill="#84879c"/><path d="m103.158 110.479a24.328 24.328 0 1 1 24.328-24.328 24.355 24.355 0 0 1 -24.328 24.328zm0-46.656a22.328 22.328 0 1 0 22.328 22.328 22.354 22.354 0 0 0 -22.328-22.328zm0 41.841a19.514 19.514 0 1 1 19.514-19.513 19.534 19.534 0 0 1 -19.514 19.513zm0-37.027a17.514 17.514 0 1 0 17.514 17.514 17.533 17.533 0 0 0 -17.514-17.514z" fill="#2f3a5a"/><path d="m24.842 108.664a1 1 0 0 1 -1-1v-43.027a1 1 0 0 1 2 0v43.027a1 1 0 0 1 -1 1z" fill="#c1cdd3"/><path d="m46.355 87.151h-43.027a1 1 0 0 1 0-2h43.027a1 1 0 1 1 0 2z" fill="#c1cdd3"/><path d="m9.63 102.363a1 1 0 0 1 -.707-1.707l30.425-30.425a1 1 0 1 1 1.414 1.414l-30.425 30.425a1 1 0 0 1 -.707.293z" fill="#c1cdd3"/><path d="m40.055 102.363a1 1 0 0 1 -.707-.293l-30.425-30.425a1 1 0 1 1 1.414-1.414l30.425 30.425a1 1 0 0 1 -.707 1.707z" fill="#c1cdd3"/><path d="m24.842 109.835a23.684 23.684 0 1 1 23.684-23.684 23.711 23.711 0 0 1 -23.684 23.684zm0-42.2a18.514 18.514 0 1 0 18.513 18.516 18.536 18.536 0 0 0 -18.513-18.514z" fill="#84879c"/><path d="m24.842 110.835a24.685 24.685 0 1 1 24.684-24.684 24.712 24.712 0 0 1 -24.684 24.684zm0-47.369a22.685 22.685 0 1 0 22.684 22.685 22.71 22.71 0 0 0 -22.684-22.685zm0 42.2a19.514 19.514 0 1 1 19.513-19.515 19.535 19.535 0 0 1 -19.513 19.513zm0-37.027a17.514 17.514 0 1 0 17.513 17.512 17.534 17.534 0 0 0 -17.513-17.514z" fill="#2f3a5a"/><path d="m103.158 88.151c-.056 0-.113 0-.17-.007l-39.713-3.39a2 2 0 0 1 -1.527-.935l-27.6-44.285a2 2 0 0 1 2-3.036l48.429 7.381a2 2 0 0 1 1.509 1.129l18.883 40.292a2 2 0 0 1 -1.811 2.849zm-38.545-7.3 35.264 3.01-16.965-36.188-43.074-6.564z" fill="#4fa4d1"/><path d="m103.158 89.151c-.085 0-.171 0-.256-.011l-39.712-3.39a3.012 3.012 0 0 1 -2.291-1.4l-27.605-44.287a3 3 0 0 1 2.991-4.554l48.437 7.382a2.99 2.99 0 0 1 2.263 1.693l18.889 40.293a3 3 0 0 1 -2.716 4.274zm-67.316-51.675a1 1 0 0 0 -.851 1.524l27.609 44.289a1 1 0 0 0 .763.469l39.8 3.393a1 1 0 0 0 .905-1.424l-18.893-40.294a1 1 0 0 0 -.754-.565l-48.43-7.381a1.09 1.09 0 0 0 -.149-.011zm65.676 47.531-37.489-3.2-26.19-42.015 45.752 6.973zm-36.318-5.107 33.039 2.82-16-34.139-40.4-6.156z" fill="#2f3a5a"/><path d="m63.443 84.761a2 2 0 0 1 -1.728-3l27.885-48.139a2 2 0 0 1 3.461 2.006l-27.885 48.136a2 2 0 0 1 -1.733.997z" fill="#4fa4d1"/><path d="m63.443 85.761a3 3 0 0 1 -2.593-4.5l27.883-48.14a3 3 0 0 1 5.192 3.008l-27.884 48.136a3.011 3.011 0 0 1 -2.598 1.496zm27.889-52.135a1 1 0 0 0 -.868.5l-27.884 48.133a1 1 0 0 0 .364 1.367 1.025 1.025 0 0 0 1.367-.364l27.883-48.135a1 1 0 0 0 -.364-1.367.986.986 0 0 0 -.498-.134z" fill="#2f3a5a"/><path d="m78.62 27.021s16.741-4.881 24.611.376-2.27 12.016-11.957 9.012-18.817-6.667-12.654-9.388z" fill="#84879c"/><path d="m91.272 36.406c-8.78-2.72-17.11-5.98-13.99-8.59a105.768 105.768 0 0 0 11.9 3.83c6.6 1.79 13.38.11 15.86-2.66 4.058 4.914-5.042 10.13-13.77 7.42z" fill="#707583"/><path d="m96.138 38.143a17.446 17.446 0 0 1 -5.159-.779c-10.765-3.338-15.215-5.727-15.361-8.244-.069-1.208.805-2.222 2.6-3.014l.124-.045c.7-.2 17.282-4.948 25.446.5 4.142 2.766 3.352 5.661 2.82 6.777-1.298 2.726-5.554 4.805-10.47 4.805zm-17.175-10.18c-1.083.489-1.357.893-1.348 1.041.03.507 1.122 2.47 13.955 6.45 5.8 1.8 11.872-.121 13.231-2.972.846-1.777-.689-3.294-2.126-4.253-7.161-4.784-22.599-.579-23.712-.266z" fill="#2f3a5a"/><path d="m63.161 73.547a9.71 9.71 0 1 0 0 19.419c5.362 0 43.852 2.448 43.852-8.183 0-9.546-38.49-11.236-43.852-11.236z" fill="#6bb3d9"/><path d="m75.908 94.2c-3.347 0-6.7-.069-9.929-.165-1.269-.037-2.239-.067-2.818-.067a10.71 10.71 0 1 1 0-21.419c.448 0 44.852.719 44.852 12.236a5.36 5.36 0 0 1 -1.768 3.934c-4.586 4.45-17.388 5.481-30.337 5.481zm-12.747-19.653a8.71 8.71 0 1 0 0 17.419c.592 0 1.582.03 2.877.068 8.137.245 32.91.98 38.815-4.751a3.4 3.4 0 0 0 1.16-2.5c0-1.949-2.478-5.606-19.071-8.21a187.261 187.261 0 0 0 -23.781-2.026z" fill="#2f3a5a"/><path d="m63.483 77.474a6.106 6.106 0 1 0 6.016 6.1 6.062 6.062 0 0 0 -6.016-6.1z" fill="#4fa4d1"/><path d="m63.483 90.684a7.106 7.106 0 1 1 7.017-7.105 7.069 7.069 0 0 1 -7.017 7.105zm0-12.21a5.106 5.106 0 1 0 5.016 5.1 5.066 5.066 0 0 0 -5.016-5.1z" fill="#2f3a5a"/><path d="m63.445 82.41a1.421 1.421 0 0 0 -1.421 1.421v16.516a1.422 1.422 0 0 0 2.843 0v-16.516a1.422 1.422 0 0 0 -1.422-1.421z" fill="#c1cdd3"/><path d="m63.445 102.768a2.425 2.425 0 0 1 -2.422-2.422v-16.515a2.422 2.422 0 0 1 4.843 0v16.515a2.425 2.425 0 0 1 -2.421 2.422zm0-19.357a.422.422 0 0 0 -.422.42v16.515a.422.422 0 1 0 .843 0v-16.515a.42.42 0 0 0 -.421-.42z" fill="#2f3a5a"/><rect fill="#43567c" height="3.685" rx=".533" width="11.684" x="57.815" y="98.629"/><path d="m68.966 103.314h-10.618a1.535 1.535 0 0 1 -1.533-1.533v-2.619a1.535 1.535 0 0 1 1.533-1.533h10.618a1.534 1.534 0 0 1 1.534 1.533v2.619a1.534 1.534 0 0 1 -1.534 1.533zm-10.151-2h9.685v-1.685h-9.685z" fill="#2f3a5a"/><path d="m23.679 88.151a2 2 0 0 1 -1.779-2.914c13.316-25.929 11.9-56.408 11.884-56.714 0-.034 0-.069 0-.1v-6.933a2 2 0 0 1 1.355-1.89c.451-.151 11.094-3.678 16.413 1.839a2 2 0 1 1 -2.879 2.777c-2.525-2.618-7.869-1.972-10.892-1.219v5.377c.094 1.911 1.328 32.113-12.321 58.7a2 2 0 0 1 -1.781 1.077z" fill="#4fa4d1"/><path d="m23.679 89.151a3 3 0 0 1 -2.667-4.371c13.168-25.643 11.788-55.904 11.773-56.206v-.155-6.929a3 3 0 0 1 2.036-2.842c1.2-.4 11.829-3.743 17.454 2.092a3 3 0 1 1 -4.318 4.166c-1.821-1.89-5.8-1.838-9.172-1.119v4.582c.063 1.254 1.407 32.2-12.431 59.153a2.991 2.991 0 0 1 -2.675 1.629zm19.2-69.807a25.905 25.905 0 0 0 -7.426 1.2 1 1 0 0 0 -.676.947v6.929c.018.361 1.421 31.158-11.99 57.275a1 1 0 0 0 .433 1.346 1.017 1.017 0 0 0 1.346-.432c13.6-26.48 12.276-56.908 12.212-58.191v-6.208l.758-.189c1.969-.49 8.644-1.833 11.854 1.5a1 1 0 1 0 1.438-1.39c-2.076-2.16-5.116-2.787-7.945-2.787z" fill="#2f3a5a"/></g></svg>