<svg height="512" viewBox="0 0 128 128" width="512" xmlns="http://www.w3.org/2000/svg"><g id="icon"><path d="m73.594 2.394a6.452 6.452 0 0 0 -3.994-1.394h-6.084a2.426 2.426 0 0 0 -2.456 2.111 2.341 2.341 0 0 0 2.329 2.57h6.011a19.54 19.54 0 0 1 8.238 17.219c-.369 9.96-14.172 12.214-19.329 12.708a2.12 2.12 0 0 0 -1.917 2.116v6.788h14.286v-4.582s12.109-5.43 12.522-16.795a24.894 24.894 0 0 0 -9.606-20.741z" fill="#84879c"/><path d="m71.678 45.509h-16.286v-7.788a3.109 3.109 0 0 1 2.822-3.11c16.294-1.565 18.313-8.74 18.424-11.751a18.734 18.734 0 0 0 -7.538-16.179h-5.7a3.341 3.341 0 0 1 -3.326-3.663 3.435 3.435 0 0 1 3.443-3.018h6.083a7.491 7.491 0 0 1 4.612 1.609 25.716 25.716 0 0 1 9.988 21.562c-.384 10.5-9.99 16.091-12.523 17.385zm-14.286-2h12.286v-4.225l.59-.266c.115-.052 11.547-5.328 11.932-15.918a23.764 23.764 0 0 0 -9.227-19.92 5.481 5.481 0 0 0 -3.373-1.18h-6.083a1.423 1.423 0 0 0 -1.462 1.2 1.341 1.341 0 0 0 1.335 1.481h6.286l.239.146c.375.227 9.18 5.726 8.722 18.107-.394 10.62-14.28 13.1-20.232 13.667a1.119 1.119 0 0 0 -1.013 1.12z" fill="#2f3a5a"/><path d="m74.749 43.035h-21.5a1.11 1.11 0 0 0 -1.11 1.11v4.589h23.72v-4.589a1.11 1.11 0 0 0 -1.11-1.11z" fill="#84879c"/><path d="m76.859 49.734h-25.718v-5.589a2.111 2.111 0 0 1 2.11-2.109h21.5a2.111 2.111 0 0 1 2.11 2.109zm-23.718-2h21.718v-3.589a.109.109 0 0 0 -.11-.109h-21.5a.109.109 0 0 0 -.11.109z" fill="#2f3a5a"/><path d="m101.69 53.46a8.238 8.238 0 0 0 -7.908-6.027h-59.564a8.238 8.238 0 0 0 -7.908 6.027c-6.6 23.256-7.417 45.952-.215 67.87a8.223 8.223 0 0 0 7.805 5.67h60.2a8.223 8.223 0 0 0 7.806-5.667c7.201-21.921 6.381-44.617-.216-67.873z" fill="#dbe2eb"/><g opacity=".5"><path d="m101.907 121.328a8.239 8.239 0 0 1 -7.807 5.672h-60.2a8.221 8.221 0 0 1 -7.8-5.672c-.247-.751-.485-1.5-.706-2.252h57.254a8.222 8.222 0 0 0 7.809-5.672c7.006-21.318 6.423-43.377.319-65.967h3a8.233 8.233 0 0 1 7.907 6.025c6.602 23.252 7.424 45.948.224 67.866z" fill="#c1cdd3"/></g><path d="m99.85 85.083h-71.7a126.606 126.606 0 0 1 4.96-29.689 1.163 1.163 0 0 1 1.11-.89h59.56a1.163 1.163 0 0 1 1.11.89 126.606 126.606 0 0 1 4.96 29.689z" fill="#6bb3d9"/><path d="m97.142 100.988h-66.284a2.7 2.7 0 0 0 0 5.409h66.284a2.7 2.7 0 0 0 0-5.409z" fill="#4fa4d1"/><path d="m94.1 128h-60.2a9.206 9.206 0 0 1 -8.756-6.353c-6.939-21.121-6.873-43.513.2-68.455a9.282 9.282 0 0 1 8.87-6.755h59.568a9.282 9.282 0 0 1 8.87 6.754c7.076 24.942 7.143 47.334.2 68.455a9.206 9.206 0 0 1 -8.752 6.354zm-59.882-79.567a7.276 7.276 0 0 0 -6.946 5.3c-6.964 24.546-7.038 46.555-.227 67.284a7.209 7.209 0 0 0 6.855 4.983h60.2a7.209 7.209 0 0 0 6.856-4.978c6.811-20.73 6.737-42.738-.227-67.285a7.276 7.276 0 0 0 -6.946-5.3z" fill="#2f3a5a"/><g fill="#fff" opacity=".25"><path d="m73 54.504-15.91 30.579h-6.45l15.92-30.579z"/><path d="m79.07 54.504-15.92 30.579h-3.22l15.92-30.579z"/></g><path d="m100.89 86.083h-73.78l.041-1.039a128.393 128.393 0 0 1 5-29.923 2.154 2.154 0 0 1 2.069-1.621h59.56a2.159 2.159 0 0 1 2.074 1.622 128.425 128.425 0 0 1 5 29.919zm-71.695-2h69.61a127.374 127.374 0 0 0 -4.877-28.416c-.028-.1-.086-.164-.148-.164h-59.56c-.062 0-.12.063-.147.159a127.41 127.41 0 0 0 -4.873 28.421z" fill="#2f3a5a"/></g></svg>