<svg height="512" viewBox="0 0 128 128" width="512" xmlns="http://www.w3.org/2000/svg"><g id="icon"><path d="m66.712 74.06v-61.5a11.56 11.56 0 0 0 -11.56-11.56 11.56 11.56 0 0 0 -11.56 11.559v61.5a27.743 27.743 0 1 0 23.12 0z" fill="#dbe2eb"/><path d="m55.152 120.322q-.59 0-1.185-.033a21.349 21.349 0 0 1 -19.879-20.806 21.1 21.1 0 0 1 12.293-19.354l3.89-1.788v-65.782a4.881 4.881 0 1 1 9.762 0v65.782l3.89 1.788a21.052 21.052 0 0 1 -8.771 40.193z" fill="#ef5361"/><path d="m76.215 99.255a21.074 21.074 0 0 1 -21.06 21.07c-.4 0-.79-.011-1.191-.033a20.928 20.928 0 0 1 -13.757-6.345 20.138 20.138 0 0 0 7.78 2.026c.39.022.79.033 1.18.033a21.04 21.04 0 0 0 15.115-35.706 21.119 21.119 0 0 1 11.933 18.955z" fill="#da2a47"/><g fill="#2f3a5a"><path d="m55.169 128c-.537 0-1.076-.014-1.618-.045a28.728 28.728 0 0 1 -10.959-54.527v-60.869a12.56 12.56 0 0 1 25.119 0v60.869a28.823 28.823 0 0 1 16.189 25.828 28.746 28.746 0 0 1 -28.731 28.744zm-.017-126a10.571 10.571 0 0 0 -10.56 10.559v61.5a1 1 0 0 1 -.582.908 26.733 26.733 0 1 0 29.529 43.707 26.5 26.5 0 0 0 8.361-19.418 26.82 26.82 0 0 0 -15.6-24.287 1 1 0 0 1 -.583-.908v-61.5a10.571 10.571 0 0 0 -10.565-10.561z"/><path d="m55.152 121.322q-.615 0-1.238-.034a22.363 22.363 0 0 1 -20.826-21.788 22.1 22.1 0 0 1 12.876-20.279l3.307-1.52v-65.142a5.881 5.881 0 1 1 11.762 0v65.141l3.307 1.52a22.052 22.052 0 0 1 -9.188 42.1zm0-112.644a3.885 3.885 0 0 0 -3.881 3.881v65.782a1 1 0 0 1 -.583.908l-3.888 1.788a20.1 20.1 0 0 0 -11.712 18.436 20.334 20.334 0 0 0 18.933 19.818 20.052 20.052 0 0 0 9.484-38.254l-3.889-1.788a1 1 0 0 1 -.583-.908v-65.782a3.885 3.885 0 0 0 -3.881-3.881z"/><path d="m81.886 66.666h-9.275a1 1 0 1 1 0-2h9.275a1 1 0 0 1 0 2z"/><path d="m78.9 58.026h-6.289a1 1 0 0 1 0-2h6.289a1 1 0 0 1 0 2z"/><path d="m81.886 50.04h-9.275a1 1 0 0 1 0-2h9.275a1 1 0 0 1 0 2z"/><path d="m78.9 41.4h-6.289a1 1 0 0 1 0-2h6.289a1 1 0 0 1 0 2z"/><path d="m81.886 33.414h-9.275a1 1 0 0 1 0-2h9.275a1 1 0 0 1 0 2z"/><path d="m78.9 24.773h-6.289a1 1 0 0 1 0-2h6.289a1 1 0 0 1 0 2z"/><path d="m81.886 16.787h-9.275a1 1 0 0 1 0-2h9.275a1 1 0 1 1 0 2z"/></g></g></svg>