<svg height="512" viewBox="0 0 128 128" width="512" xmlns="http://www.w3.org/2000/svg"><g id="icon"><path d="m127 41.952v38.868a2.675 2.675 0 0 1 -2.68 2.68h-109.066a13.953 13.953 0 0 1 -12.011-21.2 15.469 15.469 0 0 1 2.007-2.7l13.9-14.987.8-.858a14.067 14.067 0 0 1 10.29-4.479h94.08a2.676 2.676 0 0 1 2.68 2.676z" fill="#dbe2eb"/><path d="m1.234 69.922a14.034 14.034 0 0 0 14.02 13.578h109.066a2.675 2.675 0 0 0 2.68-2.68v-10.9z" fill="#a0ca8b"/><path d="m1.234 69.922a14.034 14.034 0 0 0 14.02 13.578h109.066a2.675 2.675 0 0 0 2.68-2.68v-10.9z" fill="#a0ca8b"/><path d="m127 77.961v2.854a2.674 2.674 0 0 1 -2.677 2.678h-109.065a14.041 14.041 0 0 1 -14.027-13.574h.6a14.017 14.017 0 0 0 12.687 8.042z" fill="#86be7a"/><g fill="#9297ab"><path d="m36.459 48.156v10.6a3.541 3.541 0 0 1 -3.543 3.544h-29.677a15.3 15.3 0 0 1 2.008-2.7l13.9-14.991h13.769a3.54 3.54 0 0 1 3.543 3.547z"/><rect height="17.688" rx="2.362" width="29.736" x="46.106" y="44.613"/><path d="m73.479 62.8h-25.011a2.866 2.866 0 0 1 -2.863-2.863v-12.962a2.866 2.866 0 0 1 2.863-2.862h25.011a2.865 2.865 0 0 1 2.862 2.862v12.963a2.866 2.866 0 0 1 -2.862 2.862zm-25.011-17.687a1.864 1.864 0 0 0 -1.863 1.862v12.963a1.865 1.865 0 0 0 1.863 1.862h25.011a1.865 1.865 0 0 0 1.862-1.863v-12.962a1.864 1.864 0 0 0 -1.862-1.862z"/><path d="m117.142 46.975v12.963a2.363 2.363 0 0 1 -2.362 2.362h-25.021a2.355 2.355 0 0 1 -2.352-2.363v-12.962a2.361 2.361 0 0 1 2.352-2.362h25.021a2.369 2.369 0 0 1 2.362 2.362z"/><path d="m114.78 62.8h-25.021a2.861 2.861 0 0 1 -2.852-2.863v-12.962a2.861 2.861 0 0 1 2.852-2.862h25.021a2.866 2.866 0 0 1 2.863 2.862v12.963a2.866 2.866 0 0 1 -2.863 2.862zm-25.021-17.687a1.859 1.859 0 0 0 -1.852 1.862v12.963a1.86 1.86 0 0 0 1.852 1.862h25.021a1.865 1.865 0 0 0 1.863-1.863v-12.962a1.864 1.864 0 0 0 -1.863-1.862z"/></g><path d="m1.005 83.495h125.99v5.229h-125.99z" fill="#84879c"/><path d="m127 89.724h-126a1 1 0 0 1 -1-1v-5.224a1 1 0 0 1 1-1h126a1 1 0 0 1 1 1v5.228a1 1 0 0 1 -1 .996zm-124.99-2h123.99v-3.224h-123.995z" fill="#2f3a5a"/><path d="m124.329 84.5h-109.065a14.952 14.952 0 0 1 -12.864-22.713 16.389 16.389 0 0 1 2.132-2.864l14.7-15.845a15.1 15.1 0 0 1 11.025-4.8h94.08a3.681 3.681 0 0 1 3.676 3.676v38.866a3.681 3.681 0 0 1 -3.684 3.68zm-94.08-44.22a13.1 13.1 0 0 0 -9.561 4.164l-14.695 15.84a14.5 14.5 0 0 0 -1.878 2.521 12.955 12.955 0 0 0 11.149 19.695h109.065a1.678 1.678 0 0 0 1.676-1.676v-38.872a1.678 1.678 0 0 0 -1.676-1.676z" fill="#2f3a5a"/><path d="m32.916 63.3h-31.422l.883-1.5a16.418 16.418 0 0 1 2.138-2.872l14.194-15.31h14.207a4.548 4.548 0 0 1 4.543 4.544v10.6a4.548 4.548 0 0 1 -4.543 4.538zm-27.8-2h27.8a2.546 2.546 0 0 0 2.543-2.544v-10.6a2.546 2.546 0 0 0 -2.543-2.544h-13.334l-13.602 14.672q-.453.489-.862 1.016z" fill="#2f3a5a"/><g fill="#fff" opacity=".25"><path d="m67.731 44.613-10.218 17.688h-4.114l10.207-17.688z"/><path d="m71.815 44.613-10.217 17.688h-1.486l10.207-17.688z"/></g><g fill="#fff" opacity=".25"><path d="m106.886 44.613-10.217 17.688h-4.114l10.207-17.688z"/><path d="m110.971 44.613-10.217 17.688h-1.486l10.207-17.688z"/></g><path d="m73.479 63.3h-25.011a3.367 3.367 0 0 1 -3.363-3.363v-12.962a3.366 3.366 0 0 1 3.363-3.362h25.011a3.366 3.366 0 0 1 3.362 3.362v12.963a3.367 3.367 0 0 1 -3.362 3.362zm-25.011-17.687a1.364 1.364 0 0 0 -1.363 1.362v12.963a1.365 1.365 0 0 0 1.363 1.362h25.011a1.364 1.364 0 0 0 1.362-1.363v-12.962a1.364 1.364 0 0 0 -1.362-1.362z" fill="#2f3a5a"/><path d="m114.78 63.3h-25.021a3.362 3.362 0 0 1 -3.352-3.363v-12.962a3.361 3.361 0 0 1 3.352-3.362h25.021a3.366 3.366 0 0 1 3.363 3.362v12.963a3.367 3.367 0 0 1 -3.363 3.362zm-25.021-17.687a1.359 1.359 0 0 0 -1.352 1.362v12.963a1.359 1.359 0 0 0 1.352 1.362h25.021a1.365 1.365 0 0 0 1.363-1.363v-12.962a1.364 1.364 0 0 0 -1.363-1.362z" fill="#2f3a5a"/><path d="m1.226 68.627h125.77v2h-125.77z" fill="#2f3a5a"/></g></svg>