<?xml version="1.0" encoding="UTF-8"?>
<svg xmlns="http://www.w3.org/2000/svg" viewBox="0 0 128 128" width="512" height="512"><g id="icon"><circle cx="66.686" cy="64" r="43.516" transform="translate(-17.962 101.118) rotate(-67.5)" fill="#e49fc6"/><path d="M110.206,64A43.511,43.511,0,0,1,39.883,98.269,43.511,43.511,0,0,0,90.391,27.513,43.429,43.429,0,0,1,110.206,64Z" fill="#d686b5"/><path d="M66.686,108.516A44.516,44.516,0,1,1,111.2,64,44.567,44.567,0,0,1,66.686,108.516Zm0-87.032A42.516,42.516,0,1,0,109.2,64,42.564,42.564,0,0,0,66.686,21.484Z" fill="#2f3a5a"/><circle cx="66.686" cy="64" r="35.823" transform="translate(-17.962 101.118) rotate(-67.5)" fill="#dbe2eb"/><g opacity="0.25"><path d="M102.508,64A35.825,35.825,0,0,1,35.916,82.352a35.826,35.826,0,0,0,55.361-44.4A35.725,35.725,0,0,1,102.508,64Z" fill="#c1cdd3"/></g><path d="M66.686,100.824A36.824,36.824,0,1,1,103.509,64,36.865,36.865,0,0,1,66.686,100.824Zm0-71.648A34.824,34.824,0,1,0,101.509,64,34.863,34.863,0,0,0,66.686,29.176Z" fill="#2f3a5a"/><path d="M125,17.431a1.886,1.886,0,0,0-3.052-1.438c-3.455,2.676-8.634,9-8.269,22.746.381,14.355.228,24.174.1,28.773a5.052,5.052,0,0,0,2.518,4.507l.339.2a5.067,5.067,0,0,1,2.513,4.615l-1.435,30.719a4.646,4.646,0,1,0,9.285.113Z" fill="#dbe2eb"/><path d="M127,107.66a4.644,4.644,0,1,1-9.282-.108l.01-.3a4.175,4.175,0,0,0,1.171.158,4.647,4.647,0,0,0,4.646-4.754l-1.909-86.408c.108-.089.206-.177.315-.256A1.886,1.886,0,0,1,125,17.433Z" fill="#c1cdd3"/><path d="M122.354,113.412a5.649,5.649,0,0,1-5.64-5.91l1.435-30.717a4.054,4.054,0,0,0-2.017-3.7l-.34-.2a6.051,6.051,0,0,1-3.013-5.4c.125-4.568.278-14.371-.1-28.719-.382-14.371,5.26-20.932,8.657-23.563A2.884,2.884,0,0,1,126,17.409l2,90.232a5.647,5.647,0,0,1-5.644,5.771Zm.757-96.823a.9.9,0,0,0-.554.2c-3.1,2.4-8.24,8.44-7.882,21.929.382,14.394.229,24.24.1,28.826a4.055,4.055,0,0,0,2.021,3.616l.339.2a6.045,6.045,0,0,1,3.009,5.526L118.712,107.6a3.646,3.646,0,1,0,7.287.09l-2-90.232h0a.855.855,0,0,0-.5-.775A.908.908,0,0,0,123.111,16.589Z" fill="#2f3a5a"/><path d="M24.649,38.239,22.141,17.793c-.125-.9-1.142-1.632-1.93-1.981a.763.763,0,0,0-1.041.722V37.623H15.064l-.7-20.407a1.515,1.515,0,0,0-3.029,0l-.7,20.407H6.592V16.534a.763.763,0,0,0-1.041-.722c-.787.349-1.872,1.081-2,1.981L1.035,38.206a3.874,3.874,0,0,0,.572,2.607l6.918,10.91-1.7,52.945a5.961,5.961,0,0,0,5.246,6.2,5.811,5.811,0,0,0,6.346-5.95l-1.682-52.1L24.121,40.8A3.876,3.876,0,0,0,24.649,38.239Z" fill="#dbe2eb"/><path d="M17.7,107.877a5.781,5.781,0,0,1-5.63,2.992,5.963,5.963,0,0,1-5.247-6.2l1.7-52.948L1.611,40.812A3.8,3.8,0,0,1,1.04,38.2L3.55,17.8c.128-.905,1.211-1.634,2-1.988a.764.764,0,0,1,1.044.719v.009L4.249,35.506a3.932,3.932,0,0,0,.571,2.609l6.92,10.907-1.7,52.949a5.963,5.963,0,0,0,5.247,6.2A5.576,5.576,0,0,0,17.7,107.877Z" fill="#c1cdd3"/><path d="M12.6,111.9c-.205,0-.412-.01-.619-.028a6.923,6.923,0,0,1-6.155-7.232L7.516,52,.762,41.348a4.878,4.878,0,0,1-.718-3.274l2.517-20.4c.224-1.612,2.036-2.53,2.585-2.773a1.707,1.707,0,0,1,1.632.138,1.783,1.783,0,0,1,.814,1.5V36.622H9.659l.671-19.441a2.516,2.516,0,0,1,5.029,0l.671,19.442h2.14V16.534a1.786,1.786,0,0,1,.814-1.5,1.707,1.707,0,0,1,1.631-.139,4.03,4.03,0,0,1,2.516,2.759L25.64,38.1a4.9,4.9,0,0,1-.662,3.211L17.739,53.09l1.673,51.8A6.811,6.811,0,0,1,12.6,111.9Zm-7-94.987c-.566.32-1.009.74-1.048,1.022l-2.516,20.4a2.894,2.894,0,0,0,.42,1.945L9.37,51.188a1,1,0,0,1,.154.567L7.82,104.7a4.984,4.984,0,0,0,4.335,5.174,4.813,4.813,0,0,0,5.258-4.925l-1.683-52.1a1.009,1.009,0,0,1,.147-.556l7.392-12.021a2.883,2.883,0,0,0,.39-1.893l0-.024L21.148,17.915c-.04-.286-.445-.694-.978-1v20.71a1,1,0,0,1-1,1H15.064a1,1,0,0,1-1-.965l-.7-20.408a.516.516,0,0,0-1.031,0l-.7,20.407a1,1,0,0,1-1,.965H6.592a1,1,0,0,1-1-1Z" fill="#2f3a5a"/></g></svg>
