<svg height="512" viewBox="0 0 128 128" width="512" xmlns="http://www.w3.org/2000/svg"><g id="icon"><path d="m89.708 55.876a.832.832 0 0 0 -.168-1.642l-22.869.551.527 5.169z" fill="#c1cdd3"/><path d="m67.2 60.954a1 1 0 0 1 -.995-.9l-.527-5.169a1 1 0 0 1 .97-1.1l22.87-.551a1.831 1.831 0 0 1 .419 3.614l-.049.011-22.511 4.08a.983.983 0 0 1 -.177.015zm.577-5.195.308 3.019 19.265-3.491z" fill="#2f3a5a"/><path d="m38.292 55.876a.832.832 0 0 1 .168-1.642l22.869.551-.529 5.169z" fill="#c1cdd3"/><path d="m60.8 60.954a.983.983 0 0 1 -.179-.015l-22.507-4.079-.049-.011a1.831 1.831 0 0 1 .369-3.614l22.92.551a1 1 0 0 1 .97 1.1l-.524 5.17a1 1 0 0 1 -.995.9zm-20.14-5.666 19.257 3.49.308-3.019z" fill="#2f3a5a"/><path d="m64.961 29.631a.968.968 0 0 0 -1.921 0l-2.062 26.545h6.047z" fill="#c1cdd3"/><path d="m67.025 57.176h-6.047a1 1 0 0 1 -1-1.077l2.063-26.545a1.96 1.96 0 0 1 1.959-1.767 1.949 1.949 0 0 1 1.953 1.713v.051l2.069 26.549a1 1 0 0 1 -1 1.077zm-4.969-2h3.888l-1.977-25.43z" fill="#2f3a5a"/><path d="m78.364 72.49 48.636-5.913v-3.48l-48.319 1.879-.461.674" fill="#dbe2eb"/><path d="m127 63.097v3.482l-48.636 5.911-.034-1.728 45.698-5.58v-1.981z" fill="#c1cdd3"/><path d="m78.363 73.49a1 1 0 0 1 -.12-1.994l47.757-5.805v-1.554l-46.778 1.818-.177.259a1 1 0 1 1 -1.65-1.129l.46-.673a1 1 0 0 1 .787-.435l48.319-1.877a.91.91 0 0 1 .732.278 1 1 0 0 1 .307.722v3.48a1 1 0 0 1 -.879.993l-48.636 5.91a1.01 1.01 0 0 1 -.122.007z" fill="#2f3a5a"/><path d="m93.4 67.793a5.668 5.668 0 1 0 5.667 5.668 5.668 5.668 0 0 0 -5.667-5.668z" fill="#b0b3c1"/><path d="m93.4 80.128a6.668 6.668 0 1 1 6.667-6.668 6.676 6.676 0 0 1 -6.667 6.668zm0-11.335a4.668 4.668 0 1 0 4.667 4.667 4.673 4.673 0 0 0 -4.667-4.667z" fill="#2f3a5a"/><path d="m93.4 71.094a2.367 2.367 0 1 0 2.367 2.367 2.367 2.367 0 0 0 -2.367-2.367z" fill="#84879c"/><path d="m93.4 76.828a3.367 3.367 0 1 1 3.367-3.368 3.372 3.372 0 0 1 -3.367 3.368zm0-4.734a1.367 1.367 0 1 0 1.367 1.366 1.368 1.368 0 0 0 -1.367-1.366z" fill="#2f3a5a"/><path d="m49.78 65.65-.461-.674-48.319-1.879v3.48l48.636 5.913" fill="#dbe2eb"/><path d="m1 63.097v3.482l48.636 5.911.034-1.728-45.698-5.58v-1.981z" fill="#c1cdd3"/><path d="m49.637 73.49a1.01 1.01 0 0 1 -.122-.007l-48.636-5.913a1 1 0 0 1 -.879-.993v-3.477a1 1 0 0 1 .307-.721.9.9 0 0 1 .732-.278l48.319 1.879a1 1 0 0 1 .787.435l.46.673a1 1 0 1 1 -1.65 1.129l-.177-.259-46.778-1.821v1.554l47.757 5.8a1 1 0 0 1 -.12 1.994z" fill="#2f3a5a"/><path d="m34.6 67.793a5.668 5.668 0 1 1 -5.667 5.668 5.668 5.668 0 0 1 5.667-5.668z" fill="#b0b3c1"/><path d="m34.6 80.128a6.668 6.668 0 1 1 6.668-6.668 6.675 6.675 0 0 1 -6.668 6.668zm0-11.335a4.668 4.668 0 1 0 4.668 4.667 4.672 4.672 0 0 0 -4.668-4.667z" fill="#2f3a5a"/><path d="m34.6 71.094a2.367 2.367 0 1 1 -2.367 2.367 2.367 2.367 0 0 1 2.367-2.367z" fill="#84879c"/><path d="m34.6 76.828a3.367 3.367 0 1 1 3.367-3.368 3.371 3.371 0 0 1 -3.367 3.368zm0-4.734a1.367 1.367 0 1 0 1.367 1.366 1.369 1.369 0 0 0 -1.367-1.366z" fill="#2f3a5a"/><path d="m64 53.718c-9.191 0-16.642 8-16.642 17.877s8.742 20.248 16.642 20.248c7.965 0 16.642-10.375 16.642-20.248s-7.451-17.877-16.642-17.877z" fill="#dbe2eb"/><path d="m80.639 71.6c0 9.874-8.677 20.247-16.639 20.247-5.251 0-10.875-4.584-14.045-10.566 3.148 3.78 7.278 6.333 11.2 6.333 7.962 0 16.639-10.384 16.639-20.258a18.766 18.766 0 0 0 -1.868-8.217 18.519 18.519 0 0 1 4.713 12.461z" fill="#c1cdd3"/><path d="m64 92.843c-8.573 0-17.642-10.922-17.642-21.248 0-10.409 7.914-18.877 17.642-18.877s17.642 8.468 17.642 18.882c0 10.321-9.069 21.243-17.642 21.243zm0-38.125c-8.625 0-15.642 7.571-15.642 16.877 0 9.174 8.187 19.248 15.642 19.248s15.642-10.074 15.642-19.243c0-9.311-7.017-16.882-15.642-16.882z" fill="#2f3a5a"/><path d="m72.793 59.969a50.285 50.285 0 0 0 -7.887-.747q-.761-.011-1.521 0a50.058 50.058 0 0 0 -7.887.747 54.952 54.952 0 0 0 -3.26 6.511 45.214 45.214 0 0 1 11.223-1.595q.686-.011 1.369 0a45.167 45.167 0 0 1 11.223 1.595 54.649 54.649 0 0 0 -3.26-6.511z" fill="#6bb3d9"/><g fill="#2f3a5a"><path d="m76.053 67.48a1.035 1.035 0 0 1 -.264-.035 44.226 44.226 0 0 0 -10.975-1.56q-.669-.012-1.337 0a44.232 44.232 0 0 0 -10.977 1.56 1 1 0 0 1 -1.186-1.352 56.347 56.347 0 0 1 3.319-6.63 1 1 0 0 1 .69-.479 51.259 51.259 0 0 1 8.045-.762c.52-.006 1.034-.006 1.55 0a51.465 51.465 0 0 1 8.045.762 1 1 0 0 1 .69.479 55.9 55.9 0 0 1 3.32 6.63 1 1 0 0 1 -.922 1.387zm-11.907-3.6q.35 0 .7 0a46.325 46.325 0 0 1 9.467 1.13c-.653-1.4-1.372-2.787-2.149-4.139a49.593 49.593 0 0 0 -7.272-.654c-.5-.009-1-.009-1.492 0a49.319 49.319 0 0 0 -7.271.654c-.776 1.352-1.495 2.737-2.149 4.139a46.334 46.334 0 0 1 9.467-1.13q.353.001.699 0z"/><path d="m64.146 65.88a1 1 0 0 1 -1-1v-5.663a1 1 0 0 1 2 0v5.663a1 1 0 0 1 -1 1z"/></g></g></svg>