<svg height="512" viewBox="0 0 128 128" width="512" xmlns="http://www.w3.org/2000/svg"><g id="icon"><path d="m4.032 82.562v-2a1.516 1.516 0 0 0 -1.516-1.516 1.516 1.516 0 0 0 -1.516 1.511v4.574a1.117 1.117 0 0 0 1.118 1.118h22.045v-3.687z" fill="#b0b3c1"/><path d="m24.163 87.249h-22.045a2.12 2.12 0 0 1 -2.118-2.118v-4.574a2.516 2.516 0 0 1 5.032 0v1h19.131a1 1 0 0 1 1 1v3.687a1 1 0 0 1 -1 1.005zm-21.647-7.208a.517.517 0 0 0 -.516.516v4.574a.118.118 0 0 0 .118.118h21.045v-1.687h-19.131a1 1 0 0 1 -1-1v-2a.517.517 0 0 0 -.516-.521z" fill="#2f3a5a"/><path d="m127 41.26v41.728a6.039 6.039 0 0 1 -6.047 6.047h-100.046a6.052 6.052 0 0 1 -6.047-6.047v-41.728a14.762 14.762 0 0 1 14.756-14.755h82.648a14.745 14.745 0 0 1 14.736 14.755z" fill="#e1e6e9"/><path d="m120.953 90.036h-100.046a7.056 7.056 0 0 1 -7.047-7.048v-41.728a15.774 15.774 0 0 1 15.756-15.76h82.648a15.764 15.764 0 0 1 15.736 15.76v41.728a7.057 7.057 0 0 1 -7.047 7.048zm-91.337-62.536a13.772 13.772 0 0 0 -13.756 13.76v41.728a5.053 5.053 0 0 0 5.047 5.048h100.046a5.053 5.053 0 0 0 5.047-5.048v-41.728a13.762 13.762 0 0 0 -13.736-13.76z" fill="#2f3a5a"/><path d="m112.261 26.51h-82.646a14.738 14.738 0 0 0 -14.377 11.511h111.4a14.74 14.74 0 0 0 -14.377-11.511z" fill="#faba59"/><path d="m127.886 39.021h-113.896l.272-1.219a15.641 15.641 0 0 1 15.353-12.292h82.646a15.641 15.641 0 0 1 15.353 12.29zm-111.339-2h108.782a13.84 13.84 0 0 0 -13.068-9.511h-82.646a13.84 13.84 0 0 0 -13.068 9.511z" fill="#2f3a5a"/><rect fill="#c1cdd3" height="18.142" rx="3.078" width="34.269" x="67.439" y="45.311"/><path d="m98.63 64.454h-28.113a4.084 4.084 0 0 1 -4.078-4.079v-11.986a4.083 4.083 0 0 1 4.078-4.078h28.113a4.083 4.083 0 0 1 4.078 4.078v11.986a4.084 4.084 0 0 1 -4.078 4.079zm-28.113-18.143a2.081 2.081 0 0 0 -2.078 2.078v11.986a2.082 2.082 0 0 0 2.078 2.079h28.113a2.081 2.081 0 0 0 2.078-2.079v-11.986a2.081 2.081 0 0 0 -2.078-2.078z" fill="#2f3a5a"/><path d="m71.464 49.344h26.206v10.079h-26.206z" fill="#4fa4d1"/><rect fill="#c1cdd3" height="18.142" rx="3.078" width="22.174" x="37.378" y="45.311"/><path d="m56.474 64.454h-16.018a4.084 4.084 0 0 1 -4.078-4.079v-11.986a4.083 4.083 0 0 1 4.078-4.078h16.018a4.082 4.082 0 0 1 4.078 4.078v11.986a4.083 4.083 0 0 1 -4.078 4.079zm-16.018-18.143a2.081 2.081 0 0 0 -2.078 2.078v11.986a2.081 2.081 0 0 0 2.078 2.079h16.018a2.081 2.081 0 0 0 2.078-2.079v-11.986a2.081 2.081 0 0 0 -2.078-2.078z" fill="#2f3a5a"/><path d="m41.408 49.344h14.111v10.079h-14.111z" fill="#4fa4d1"/><path d="m86.422 89.035h-30.963a15.482 15.482 0 0 1 30.963 0z" fill="#707583"/><path d="m87.429 90.036h-32.978l.007-1.007a16.482 16.482 0 0 1 32.963 0zm-30.929-2h28.879a14.485 14.485 0 0 0 -28.879 0z" fill="#2f3a5a"/><path d="m70.938 76.831a12.332 12.332 0 1 0 12.332 12.332 12.332 12.332 0 0 0 -12.332-12.332z" fill="#9297ab"/><path d="m70.938 102.5a13.333 13.333 0 1 1 13.332-13.337 13.348 13.348 0 0 1 -13.332 13.337zm0-24.665a11.333 11.333 0 1 0 11.332 11.328 11.346 11.346 0 0 0 -11.332-11.332z" fill="#2f3a5a"/><path d="m70.938 82.562a6.6 6.6 0 1 0 6.6 6.6 6.6 6.6 0 0 0 -6.6-6.6z" fill="#b0b3c1"/><path d="m70.938 96.765a7.6 7.6 0 1 1 7.6-7.6 7.611 7.611 0 0 1 -7.6 7.6zm0-13.2a5.6 5.6 0 1 0 5.6 5.6 5.608 5.608 0 0 0 -5.6-5.603z" fill="#2f3a5a"/><g fill="#fff" opacity=".25"><path d="m86.542 49.344-6.49 10.079h-2.198l6.471-10.079z"/><path d="m92.449 49.344-6.471 10.079h-4.757l6.471-10.079z"/></g><g fill="#fff" opacity=".25"><path d="m49.27 49.344-6.471 10.079h-1.391v-1.169l5.725-8.91z"/><path d="m55.076 49.344-6.471 10.079h-4.657l6.471-10.079z"/></g><g fill="#2f3a5a"><path d="m97.67 60.422h-26.206a1 1 0 0 1 -1-1v-10.079a1 1 0 0 1 1-1h26.206a1 1 0 0 1 1 1v10.079a1 1 0 0 1 -1 1zm-25.206-2h24.206v-8.079h-24.206z"/><path d="m55.519 60.422h-14.111a1 1 0 0 1 -1-1v-10.079a1 1 0 0 1 1-1h14.111a1 1 0 0 1 1 1v10.079a1 1 0 0 1 -1 1zm-13.111-2h12.111v-8.079h-12.111z"/></g></g></svg>