<svg height="512" viewBox="0 0 128 128" width="512" xmlns="http://www.w3.org/2000/svg"><g id="icon"><path d="m111.414 59.638a7.173 7.173 0 0 0 -1.138-.564h-17.866a3.107 3.107 0 0 0 -2 1.314c-.58.964-.714 2.186-1.2 3.206-.984 2.088-3.086 3.461-4.9 4.781a35.172 35.172 0 0 0 -6.7 5.565 1.215 1.215 0 0 1 -.79 2.1c-4.671-.032-9.354-.333-14.024-.484-3.333-.108-6.715-.548-10.043-.237a1.355 1.355 0 0 1 -1.507 1.443c-4.97-.694-7.818-4.475-10.1-8.594-2.018-3.639-5.159-7.755-9.519-9.057-2.628-.785-4.5-1.49-7.2-1.371-2.318.1-4.653-.019-6.964.15-2.623.19-4.525 1.109-5.378 3.688-.593 1.791-1.041 3.623-1.762 5.37-.962 2.333-2.62 4.424-4.875 4.166l4.633 8.6.093.173h103.487l5.892-6.473a56.663 56.663 0 0 1 -4.578-8.378c-.847-1.947-1.67-4.216-3.561-5.398z" fill="#da2a47"/><path d="m114.1 80.89h-104.519l-5.916-10.984 1.9.217c2.04.239 3.365-2.408 3.838-3.553.453-1.1.792-2.224 1.15-3.415.19-.631.38-1.262.587-1.888 1.19-3.6 4.139-4.218 6.255-4.371 1.339-.1 2.692-.1 4-.105 1 0 2 0 2.991-.047a17.978 17.978 0 0 1 6.6 1.127l.938.285c3.836 1.145 7.237 4.352 10.107 9.529 2.117 3.818 4.716 7.44 9.366 8.09a.252.252 0 0 0 .235-.071.435.435 0 0 0 .137-.308l-.071-.978.975-.091a45.654 45.654 0 0 1 7.127.073c1.016.063 2.031.127 3.04.16 1.668.054 3.337.127 5.006.2 2.952.13 6 .264 8.993.283.089.015.112-.017.13-.063a.34.34 0 0 0 -.035-.313l-.681-.645.6-.721a29.885 29.885 0 0 1 5.821-4.975q.528-.378 1.056-.759l.508-.367c1.619-1.164 3.294-2.369 4.078-4.032a9.113 9.113 0 0 0 .444-1.275 8.537 8.537 0 0 1 .8-2.02 4.026 4.026 0 0 1 2.6-1.765l.253-.032h18.06l.179.072a8.252 8.252 0 0 1 1.294.642c1.978 1.236 2.9 3.392 3.709 5.293l.239.557a55.507 55.507 0 0 0 4.5 8.231l.421.648zm-103.326-2h102.445l5.077-5.577a56.364 56.364 0 0 1 -4.238-7.876l-.245-.568c-.73-1.711-1.484-3.48-2.929-4.383a5.591 5.591 0 0 0 -.807-.411h-17.532a2.028 2.028 0 0 0 -1.274.828 6.9 6.9 0 0 0 -.594 1.557 10.875 10.875 0 0 1 -.553 1.561c-1 2.131-2.978 3.55-4.719 4.8l-.5.36q-.531.387-1.068.769a31.13 31.13 0 0 0 -4.987 4.1 2.37 2.37 0 0 1 -.027 1.671 2.088 2.088 0 0 1 -1.982 1.316h-.017c-3.026-.02-6.1-.154-9.067-.284-1.661-.073-3.322-.145-4.982-.2-1.03-.033-2.064-.1-3.1-.162a49.994 49.994 0 0 0 -6.068-.135 2.438 2.438 0 0 1 -.61.9 2.23 2.23 0 0 1 -1.879.591c-5.533-.773-8.583-5.034-10.838-9.1-1.793-3.235-4.8-7.35-8.93-8.584l-.951-.288a16.411 16.411 0 0 0 -5.922-1.042c-1.023.045-2.049.047-3.076.049-1.273 0-2.589.006-3.859.1-2.553.186-3.857 1.057-4.5 3.006-.2.608-.386 1.222-.57 1.835-.356 1.185-.725 2.411-1.216 3.6-1.032 2.5-2.516 4.108-4.212 4.624z" fill="#43567c"/><path d="m115.986 62.9s3.382-6.764-3.86-9.837a7.731 7.731 0 0 0 -3.018-.6h-29.524l-8.3-17.217a5.173 5.173 0 0 0 -4.659-2.926h-56.373a5.171 5.171 0 0 0 -5.171 5.171v32.93l5.1 9.465h103.481l5.964-6.553z" fill="#9bc6f1"/><path d="m113.662 80.889h-103.485a1 1 0 0 1 -.88-.526l-5.097-9.463a1 1 0 0 1 -.12-.474v-32.931a6.178 6.178 0 0 1 6.171-6.171h56.377a6.2 6.2 0 0 1 5.56 3.492l8.024 16.65h28.9a8.69 8.69 0 0 1 3.409.678 8.168 8.168 0 0 1 4.811 4.606 8.919 8.919 0 0 1 -.269 6.192l3.511 10.065a1 1 0 0 1 -.2 1l-5.974 6.555a1 1 0 0 1 -.738.327zm-102.888-2h102.446l5.266-5.785-3.444-9.874a1 1 0 0 1 .048-.774 7.146 7.146 0 0 0 .356-5.029 6.265 6.265 0 0 0 -3.711-3.441 6.675 6.675 0 0 0 -2.627-.52h-29.524a1 1 0 0 1 -.9-.565l-8.3-17.217a4.192 4.192 0 0 0 -3.758-2.36h-56.374a4.176 4.176 0 0 0 -4.171 4.171v32.677z" fill="#43567c"/><path d="m51.583 79.573a2.755 2.755 0 0 1 -2.165-1.039l-3.071-3.845-9.81-10.322a2.061 2.061 0 0 0 -1.627-.822h-16.771a2.021 2.021 0 0 0 -1.816 1.149l-.049.09-4.253 6.991-.223.468a2.84 2.84 0 0 1 -3.298 1.557 2.769 2.769 0 0 1 -1.74-3.856l1.8.861a.77.77 0 0 0 .494 1.07.843.843 0 0 0 .935-.5l.293-.6 4.254-6.993a4.028 4.028 0 0 1 3.6-2.241h16.774a3.991 3.991 0 0 1 3.134 1.509l9.81 10.322 3.127 3.91a.767.767 0 0 0 .6.287.755.755 0 0 0 .476-.166l1.249 1.562a2.734 2.734 0 0 1 -1.723.608z" fill="#43567c"/><path d="m77.457 78.627a2.772 2.772 0 0 1 -1.852-.71l1.334-1.49a.789.789 0 0 0 1.089-.051l12.765-14.109a4.636 4.636 0 0 1 3.433-1.523h15.251a4.63 4.63 0 0 1 3.035 1.133l3.461 3.005a.764.764 0 0 0 .761.146.725.725 0 0 0 .316-.213l1.521 1.3a2.737 2.737 0 0 1 -1.185.8 2.775 2.775 0 0 1 -2.727-.529l-3.458-3a2.633 2.633 0 0 0 -1.724-.643h-15.251a2.632 2.632 0 0 0 -1.95.865l-12.766 14.111a2.778 2.778 0 0 1 -2.053.908z" fill="#43567c"/><path d="m71.262 52.417h-25.031a1.853 1.853 0 0 1 -1.838-1.593 1.294 1.294 0 0 1 -.03-.275v-11.4a1.867 1.867 0 0 1 1.868-1.858h19.478a1.87 1.87 0 0 1 1.51.776 2.141 2.141 0 0 1 .164.265l5.553 11.4a1.868 1.868 0 0 1 -1.674 2.685z" fill="#9297ab"/><path d="m71.262 53.416h-25.031a2.859 2.859 0 0 1 -2.831-2.456 1.949 1.949 0 0 1 -.039-.412v-11.4a2.867 2.867 0 0 1 2.868-2.859h19.479a2.875 2.875 0 0 1 2.322 1.191 3.183 3.183 0 0 1 .221.355l5.584 11.461a2.867 2.867 0 0 1 -2.573 4.122zm-25.031-15.129a.864.864 0 0 0 -.868.859l.021 11.543a.851.851 0 0 0 .847.727h25.031a.867.867 0 0 0 .775-1.246l-5.553-11.4a1.044 1.044 0 0 0 -.061-.1.884.884 0 0 0 -.715-.381z" fill="#43567c"/><path d="m39.84 39.146v11.4a1.869 1.869 0 0 1 -1.868 1.868h-25.735a1.869 1.869 0 0 1 -1.868-1.868v-11.4a1.867 1.867 0 0 1 1.868-1.858h25.735a1.867 1.867 0 0 1 1.868 1.858z" fill="#9297ab"/><rect fill="#9297ab" height="7.659" rx="1.893" width="37.351" x="45.67" y="72.486"/><path d="m81.128 81.144h-33.566a2.9 2.9 0 0 1 -2.893-2.893v-3.873a2.9 2.9 0 0 1 2.893-2.892h33.566a2.9 2.9 0 0 1 2.893 2.892v3.873a2.9 2.9 0 0 1 -2.893 2.893zm-33.566-7.658a.894.894 0 0 0 -.893.892v3.873a.894.894 0 0 0 .893.893h33.566a.893.893 0 0 0 .893-.893v-3.873a.893.893 0 0 0 -.893-.892z" fill="#43567c"/><path d="m126.768 65.08-1.385-2.265a1.583 1.583 0 0 0 -1.352-.758h-6.468a1.588 1.588 0 0 0 -1.03.38l-2.016 1.725a1.585 1.585 0 0 0 -.447 1.779l2.551 6.545a1.585 1.585 0 0 0 1.336 1l5.753.51a1.587 1.587 0 0 0 1.26-.458l1.566-1.566a1.584 1.584 0 0 0 .464-1.12v-4.946a1.583 1.583 0 0 0 -.232-.826z" fill="#9297ab"/><path d="m123.854 75.005c-.078 0-.155 0-.233-.01l-5.752-.51a2.57 2.57 0 0 1 -2.18-1.636l-2.55-6.545a2.587 2.587 0 0 1 .727-2.9l2.018-1.725a2.584 2.584 0 0 1 1.679-.62h6.468a2.6 2.6 0 0 1 2.206 1.236l1.385 2.266a2.592 2.592 0 0 1 .378 1.345v4.949a2.6 2.6 0 0 1 -.757 1.827l-1.565 1.565a2.573 2.573 0 0 1 -1.824.758zm-6.291-11.948a.584.584 0 0 0 -.379.14l-2.017 1.724a.587.587 0 0 0 -.165.657l2.551 6.544a.581.581 0 0 0 .492.371l5.755.507a.548.548 0 0 0 .465-.169l1.565-1.565a.585.585 0 0 0 .171-.413v-4.947a.592.592 0 0 0 -.086-.306l-1.384-2.264a.587.587 0 0 0 -.5-.279z" fill="#43567c"/><path d="m10.9 71.431v6.806a1.751 1.751 0 0 1 -1.75 1.755h-6.4a1.752 1.752 0 0 1 -1.75-1.755v-6.806a1.748 1.748 0 0 1 1.75-1.75h6.4a1.75 1.75 0 0 1 1.741 1.619c.009.043.009.087.009.131z" fill="#9297ab"/><path d="m9.145 80.992h-6.395a2.756 2.756 0 0 1 -2.75-2.755v-6.806a2.753 2.753 0 0 1 2.75-2.75h6.4a2.766 2.766 0 0 1 2.743 2.539c.006.056.007.134.007.211v6.806a2.75 2.75 0 0 1 -2.75 2.755zm-6.395-10.311a.751.751 0 0 0 -.75.75v6.806a.753.753 0 0 0 .75.755h6.4a.764.764 0 0 0 .408-.121.754.754 0 0 0 .342-.634v-6.806h1l-1-.045a.75.75 0 0 0 -.75-.7z" fill="#43567c"/><g fill="#dbe2eb" opacity=".25"><path d="m28.652 37.288-13.006 15.129h-3.307l13.005-15.129z"/><path d="m37.196 37.288-13.005 15.129h-6.238l13.006-15.129z"/></g><g fill="#dbe2eb" opacity=".25"><path d="m59.349 37.288-13.006 15.129h-.112a1.853 1.853 0 0 1 -1.838-1.593l11.638-13.536z"/><path d="m67.219 38.064-12.342 14.353h-6.237l13.006-15.129h4.063a1.87 1.87 0 0 1 1.51.776z"/></g><circle cx="101.432" cy="80.592" fill="#84879c" r="14.425" transform="matrix(.924 -.383 .383 .924 -23.12 44.951)"/><path d="m101.432 96.017a15.425 15.425 0 1 1 15.425-15.425 15.442 15.442 0 0 1 -15.425 15.425zm0-28.85a13.425 13.425 0 1 0 13.425 13.425 13.44 13.44 0 0 0 -13.425-13.425z" fill="#43567c"/><circle cx="101.432" cy="80.592" fill="#b0b3c1" r="7.948" transform="matrix(.924 -.383 .383 .924 -23.12 44.951)"/><g fill="#84879c"><circle cx="101.432" cy="75.603" r=".75"/><circle cx="101.432" cy="85.581" r=".75"/><circle cx="106.421" cy="80.592" r=".75"/><circle cx="96.443" cy="80.592" r=".75"/><circle cx="104.96" cy="77.065" r=".75" transform="matrix(.707 -.707 .707 .707 -23.751 96.789)"/><circle cx="97.904" cy="84.12" r=".75" transform="matrix(.707 -.707 .707 .707 -30.806 93.867)"/><circle cx="104.96" cy="84.12" r=".75" transform="matrix(.707 -.707 .707 .707 -28.74 98.856)"/><circle cx="97.904" cy="77.065" r=".75" transform="matrix(.707 -.707 .707 .707 -25.817 91.8)"/><circle cx="28.282" cy="80.592" r="14.425" transform="matrix(.924 -.383 .383 .924 -28.688 16.958)"/></g><path d="m28.282 96.017a15.425 15.425 0 1 1 15.426-15.425 15.443 15.443 0 0 1 -15.426 15.425zm0-28.85a13.425 13.425 0 1 0 13.426 13.425 13.441 13.441 0 0 0 -13.426-13.425z" fill="#43567c"/><circle cx="28.282" cy="80.592" fill="#b0b3c1" r="7.948" transform="matrix(.924 -.383 .383 .924 -28.688 16.958)"/><circle cx="28.282" cy="75.603" fill="#84879c" r=".75"/><circle cx="28.282" cy="85.581" fill="#84879c" r=".75"/><circle cx="33.271" cy="80.592" fill="#84879c" r=".75"/><circle cx="23.293" cy="80.592" fill="#84879c" r=".75"/><circle cx="31.81" cy="77.065" fill="#84879c" r=".75" transform="matrix(.707 -.707 .707 .707 -45.176 45.065)"/><circle cx="24.755" cy="84.12" fill="#84879c" r=".75" transform="matrix(.707 -.707 .707 .707 -52.231 42.142)"/><circle cx="31.81" cy="84.12" fill="#84879c" r=".75" transform="matrix(.707 -.707 .707 .707 -50.165 47.131)"/><circle cx="24.755" cy="77.065" fill="#84879c" r=".75" transform="matrix(.707 -.707 .707 .707 -47.242 40.076)"/><path d="m71.262 53.416h-25.031a2.859 2.859 0 0 1 -2.831-2.456 1.949 1.949 0 0 1 -.039-.412v-11.4a2.867 2.867 0 0 1 2.868-2.859h19.479a2.875 2.875 0 0 1 2.322 1.191 3.183 3.183 0 0 1 .221.355l5.584 11.461a2.867 2.867 0 0 1 -2.573 4.122zm-25.031-15.129a.864.864 0 0 0 -.868.859l.021 11.543a.851.851 0 0 0 .847.727h25.031a.867.867 0 0 0 .775-1.246l-5.553-11.4a1.044 1.044 0 0 0 -.061-.1.884.884 0 0 0 -.715-.381z" fill="#43567c"/><path d="m37.972 53.416h-25.735a2.871 2.871 0 0 1 -2.868-2.868v-11.4a2.867 2.867 0 0 1 2.868-2.859h25.735a2.867 2.867 0 0 1 2.868 2.859v11.4a2.871 2.871 0 0 1 -2.868 2.868zm-25.735-15.129a.864.864 0 0 0 -.868.859v11.4a.868.868 0 0 0 .868.868h25.735a.868.868 0 0 0 .868-.868v-11.4a.864.864 0 0 0 -.868-.859z" fill="#43567c"/></g></svg>