<svg height="512" viewBox="0 0 128 128" width="512" xmlns="http://www.w3.org/2000/svg"><g id="icon"><path d="m110.511 5.283h-13.443v111.817h-76.513a5.14 5.14 0 0 0 -5.225 4.687 4.952 4.952 0 0 0 4.945 5.213h89.537a2.868 2.868 0 0 0 2.868-2.868v-116.679a2.17 2.17 0 0 0 -2.169-2.17z" fill="#d87674"/><path d="m109.812 128h-89.537a5.952 5.952 0 0 1 -5.944-6.27 6.174 6.174 0 0 1 6.224-5.634h75.513v-110.812a1 1 0 0 1 1-1h13.443a3.173 3.173 0 0 1 3.17 3.169v116.679a3.873 3.873 0 0 1 -3.869 3.868zm-89.257-9.9a4.153 4.153 0 0 0 -4.226 3.738 3.952 3.952 0 0 0 3.946 4.162h89.537a1.87 1.87 0 0 0 1.869-1.868v-116.679a1.171 1.171 0 0 0 -1.17-1.169h-12.443v110.816a1 1 0 0 1 -1 1z" fill="#2f3a5a"/><path d="m109.438 6.911h-13.921v106.356h-76.517a5.411 5.411 0 0 0 -2.976.909v6.276a2.717 2.717 0 0 0 2.7 2.718h89.538a2.868 2.868 0 0 0 2.867-2.868v-111.702a1.691 1.691 0 0 0 -1.691-1.689z" fill="#e1e6e9"/><path d="m105.393 1h-85.506a4.568 4.568 0 0 0 -4.567 4.568v116.48a4.955 4.955 0 0 1 4.949-4.95h84.613a3.3 3.3 0 0 0 3.3-3.3v-110a2.792 2.792 0 0 0 -2.789-2.798z" fill="#e68e8b"/><path d="m15.319 123.047a1 1 0 0 1 -1-1v-116.479a5.574 5.574 0 0 1 5.569-5.568h85.506a3.8 3.8 0 0 1 3.791 3.791v110a4.309 4.309 0 0 1 -4.3 4.3h-84.615a3.955 3.955 0 0 0 -3.951 3.949 1 1 0 0 1 -1 1.007zm4.569-121.047a3.573 3.573 0 0 0 -3.569 3.568v112.032a5.924 5.924 0 0 1 3.951-1.5h84.612a2.306 2.306 0 0 0 2.3-2.3v-110a1.794 1.794 0 0 0 -1.788-1.8z" fill="#2f3a5a"/><path d="m29.285 20.336h64.935v77.823h-64.935z" fill="#e1e6e9"/><path d="m94.22 99.159h-64.936a1 1 0 0 1 -1-1v-77.824a1 1 0 0 1 1-1h64.936a1 1 0 0 1 1 1v77.824a1 1 0 0 1 -1 1zm-63.936-2h62.936v-75.824h-62.936z" fill="#2f3a5a"/><path d="m57.723 98.159 24.997-41.401 11.5 24.543v16.858z" fill="#84879c"/><path d="m94.22 99.159h-36.5a1 1 0 0 1 -.857-1.517l25-41.4a.976.976 0 0 1 .909-.483 1 1 0 0 1 .853.575l11.5 24.542a.987.987 0 0 1 .095.424v16.859a1 1 0 0 1 -1 1zm-34.726-2h33.726v-15.636l-10.612-22.646z" fill="#2f3a5a"/><path d="m29.285 87.488 15.416-22.467 2.464 2.882 13.427-21.66 22.128 52.153h-53.435z" fill="#84879c"/><path d="m82.72 99.4h-53.436a1 1 0 0 1 -1-1v-10.912a1 1 0 0 1 .176-.566l15.417-22.466a1 1 0 0 1 .771-.433 1.015 1.015 0 0 1 .813.348l1.575 1.842 12.706-20.5a.983.983 0 0 1 .927-.469 1 1 0 0 1 .844.606l22.128 52.155a1 1 0 0 1 -.921 1.395zm-52.436-2h50.925l-20.784-48.99-12.41 20.02a1 1 0 0 1 -1.61.123l-1.617-1.891-14.504 21.138z" fill="#2f3a5a"/><path d="m72.69 32.518a5.378 5.378 0 1 0 5.379 5.382 5.378 5.378 0 0 0 -5.379-5.382z" fill="#f9c87e"/><path d="m72.69 44.274a6.378 6.378 0 1 1 6.378-6.374 6.386 6.386 0 0 1 -6.378 6.374zm0-10.756a4.378 4.378 0 1 0 4.378 4.382 4.383 4.383 0 0 0 -4.378-4.382z" fill="#2f3a5a"/></g></svg>