<svg height="512" viewBox="0 0 128 128" width="512" xmlns="http://www.w3.org/2000/svg"><g id="icon"><rect fill="#c1cdd3" height="47.947" rx="2.831" transform="matrix(.929 -.371 .371 .929 -19.315 27.349)" width="110.731" x="6.095" y="39.928"/><path d="m20.519 106.849a3.838 3.838 0 0 1 -3.564-2.41l-15.681-39.269a3.835 3.835 0 0 1 2.137-4.979l97.577-38.964a3.83 3.83 0 0 1 4.978 2.137l15.681 39.269a3.836 3.836 0 0 1 -2.137 4.98l-97.577 38.964a3.831 3.831 0 0 1 -1.414.272zm81.89-83.9a1.827 1.827 0 0 0 -.68.131l-97.577 38.968a1.835 1.835 0 0 0 -1.021 2.38l15.681 39.272a1.838 1.838 0 0 0 2.38 1.022l97.577-38.964a1.834 1.834 0 0 0 1.021-2.38l-15.681-39.272a1.832 1.832 0 0 0 -1.7-1.153z" fill="#2f3a5a"/><path d="m31.828 49.92-28.046 11.2a2.831 2.831 0 0 0 -1.582 3.68l15.68 39.269a2.832 2.832 0 0 0 3.68 1.579l28.046-11.2z" fill="#d0aa79"/><path d="m20.519 106.849a3.838 3.838 0 0 1 -3.564-2.41l-15.681-39.269a3.835 3.835 0 0 1 2.137-4.979l28.975-11.57 18.522 46.384-28.974 11.572a3.839 3.839 0 0 1 -1.415.272zm10.752-55.629-27.119 10.828a1.835 1.835 0 0 0 -1.021 2.38l15.681 39.272a1.838 1.838 0 0 0 2.38 1.022l27.118-10.832z" fill="#2f3a5a"/><path d="m35.982 57.293h1.338v5.801h-1.338z" fill="#b0b3c1" transform="matrix(.929 -.371 .371 .929 -19.709 17.884)"/><path d="m39.108 65.121h1.338v5.801h-1.338z" fill="#c1cdd3" transform="matrix(.929 -.371 .371 .929 -22.389 19.601)"/><path d="m42.234 72.949h1.338v5.801h-1.338z" fill="#c1cdd3" transform="matrix(.929 -.371 .371 .929 -25.069 21.319)"/><path d="m45.36 80.777h1.338v5.801h-1.338z" fill="#c1cdd3" transform="matrix(.929 -.371 .371 .929 -27.749 23.036)"/><path d="m48.486 88.605h1.338v5.801h-1.338z" fill="#c1cdd3" transform="matrix(.929 -.371 .371 .929 -30.429 24.753)"/><rect fill="#e1e6e9" height="47.947" rx="2.831" width="110.731" x="17.269" y="58.1"/><path d="m125.169 107.047h-105.069a3.835 3.835 0 0 1 -3.831-3.832v-42.284a3.835 3.835 0 0 1 3.831-3.831h105.069a3.836 3.836 0 0 1 3.831 3.831v42.284a3.835 3.835 0 0 1 -3.831 3.832zm-105.069-47.947a1.833 1.833 0 0 0 -1.831 1.831v42.284a1.833 1.833 0 0 0 1.831 1.832h105.069a1.833 1.833 0 0 0 1.831-1.832v-42.284a1.833 1.833 0 0 0 -1.831-1.831z" fill="#2f3a5a"/><path d="m50.3 58.1h-30.2a2.832 2.832 0 0 0 -2.831 2.831v42.285a2.832 2.832 0 0 0 2.831 2.831h30.2z" fill="#e8c79c"/><path d="m51.3 107.047h-31.2a3.835 3.835 0 0 1 -3.831-3.832v-42.284a3.835 3.835 0 0 1 3.831-3.831h31.2zm-31.2-47.947a1.833 1.833 0 0 0 -1.831 1.831v42.284a1.833 1.833 0 0 0 1.831 1.832h29.2v-45.947z" fill="#2f3a5a"/><g opacity=".75"><path d="m100.8 71.409h-.826v-1.159a1.523 1.523 0 0 0 -1.521-1.521h-1.839a7.768 7.768 0 0 0 -.576-2.091c-1.113-1.889-11.386-2.187-11.386-2.187s-.086 0-.24.01c-.153-.01-.23-.01-.23-.01s-10.273.3-11.386 2.187a7.739 7.739 0 0 0 -.575 2.091h-1.843a1.523 1.523 0 0 0 -1.521 1.521v1.159h-.826a.373.373 0 0 0 -.374.374v4.66a.373.373 0 0 0 .374.374h2.256a.374.374 0 0 0 .375-.374v-4.66a.374.374 0 0 0 -.375-.374h-.67v-1.159a.762.762 0 0 1 .761-.761h1.722a73.8 73.8 0 0 0 -.671 12.525v5.64l.009 7.741v.029a1.2 1.2 0 0 0 .029.259.713.713 0 0 0 .058.2 1.028 1.028 0 0 0 .153.287.585.585 0 0 0 .115.154 1.241 1.241 0 0 0 .393.3v2.4a.67.67 0 0 0 .669.669h2.6a.669.669 0 0 0 .669-.669v-2.27h16.583v2.27a.669.669 0 0 0 .669.669h2.6a.67.67 0 0 0 .669-.669v-2.403a1.036 1.036 0 0 0 .37-.266 1.388 1.388 0 0 0 .144-.173 1.238 1.238 0 0 0 .141-.282.958.958 0 0 0 .067-.24 1.168 1.168 0 0 0 .033-.26l.01-13.381a74.847 74.847 0 0 0 -.672-12.525h1.712a.762.762 0 0 1 .761.761v1.159h-.67a.373.373 0 0 0 -.374.374v4.66a.373.373 0 0 0 .374.374h2.259a.373.373 0 0 0 .374-.374v-4.66a.373.373 0 0 0 -.374-.379zm-27.9 7.804c.038-4.968.681-10.6 1.17-11.74.892-.672 5.544-1.372 10.12-1.5h.441c.182 0 .364.01.537.01.509.029 1.007.048 1.5.086.441.019.882.058 1.3.087.249.028.489.048.729.067 2.983.3 5.439.777 6.053 1.247.489 1.112 1.132 6.762 1.18 11.74v.79c0 .23 0 .5-.01.777s-.01.575-.019.854c0 .105 0 .211-.01.316l-.009.039a.269.269 0 0 1 -.269.268h-22.404a.275.275 0 0 1 -.269-.268v-.039c0-.105-.009-.22-.009-.336-.02-.345-.02-.709-.029-1.045-.01-.441-.01-.844-.01-1.094a2.252 2.252 0 0 1 .008-.259zm7.424 10.811v-1.276h8.176v1.276zm8.173.911v1.265h-8.171v-1.265zm-9.957.527a.388.388 0 0 1 -.384.394h-4.966a.39.39 0 0 1 -.394-.394v-2.321a.39.39 0 0 1 .394-.393h4.968a.387.387 0 0 1 .384.393zm10.026 3.838a.341.341 0 0 1 -.336.336h-7.63a.334.334 0 0 1 -.335-.336v-1.3a.334.334 0 0 1 .335-.336h7.63a.341.341 0 0 1 .336.336zm1.717-3.837v-2.322a.389.389 0 0 1 .393-.393h4.969a.387.387 0 0 1 .383.393v2.321a.387.387 0 0 1 -.383.394h-4.969a.389.389 0 0 1 -.393-.394z" fill="#c1cdd3"/></g><path d="m91.933 89.333a.969.969 0 1 0 .968.969.966.966 0 0 0 -.968-.969z" fill="#c1cdd3"/><path d="m94.379 89.333a.969.969 0 1 0 .978.969.972.972 0 0 0 -.978-.969z" fill="#c1cdd3"/><path d="m76.892 89.333a.969.969 0 1 0 .969.969.967.967 0 0 0 -.969-.969z" fill="#c1cdd3"/><circle cx="74.446" cy="90.302" fill="#c1cdd3" r=".969"/><g fill="#43567c"><path d="m23.834 68.626h19.901v1.481h-19.901z"/><path d="m23.834 78.76h19.901v2.366h-19.901z"/><path d="m23.834 72.48h19.901v3.907h-19.901z"/><path d="m23.834 83.021h19.901v1.481h-19.901z"/><path d="m23.834 93.154h19.901v2.366h-19.901z"/><path d="m23.834 86.874h19.901v3.907h-19.901z"/><path d="m118.118 72.94h-58.318a1 1 0 1 1 0-2h58.317a1 1 0 0 1 0 2z"/><path d="m118.118 83.074h-58.318a1 1 0 0 1 0-2h58.317a1 1 0 0 1 0 2z"/><path d="m118.118 93.207h-58.318a1 1 0 1 1 0-2h58.317a1 1 0 0 1 0 2z"/></g></g></svg>