<?xml version="1.0" encoding="UTF-8"?>
<svg xmlns="http://www.w3.org/2000/svg" viewBox="0 0 128 128" width="512" height="512"><g id="icon"><ellipse cx="64" cy="88.013" rx="64" ry="14.006" fill="#bd8d5a"/><path d="M64,103.019c-17.165,0-33.312-1.465-45.469-4.125C9.621,96.944-1,93.473-1,88.013S9.621,79.082,18.531,77.132C30.688,74.471,46.836,73.006,64,73.006s33.312,1.465,45.469,4.126C118.379,79.082,129,82.553,129,88.013s-10.621,8.931-19.531,10.881C97.312,101.554,81.165,103.019,64,103.019Zm0-28.013c-17.024,0-33.021,1.449-45.041,4.079C7.714,81.547,1,84.884,1,88.013s6.714,6.466,17.959,8.927c12.02,2.631,28.016,4.079,45.041,4.079s33.021-1.448,45.041-4.079C120.286,94.479,127,91.142,127,88.013s-6.714-6.466-17.959-8.928C97.021,76.455,81.024,75.006,64,75.006Z" fill="#2f3a5a"/><path d="M103.24,84.574a225.606,225.606,0,0,1-78.48,0l8.853-51.7a8.17,8.17,0,0,1,10.616-6.48l14,4.595a18.5,18.5,0,0,0,11.538,0l14-4.595a8.17,8.17,0,0,1,10.616,6.48Z" fill="#bd8d5a"/><path d="M103.24,84.573a226.5,226.5,0,0,1-44.98,3.37,229.087,229.087,0,0,0,33.5-3.37l-8.85-51.7a8.062,8.062,0,0,0-3.09-5.18l3.95-1.3a8.171,8.171,0,0,1,10.62,6.48Z" fill="#ad7e53"/><path d="M64,89a228.129,228.129,0,0,1-39.413-3.438,1,1,0,0,1-.813-1.154l8.854-51.7a9.17,9.17,0,0,1,11.913-7.262l14,4.595a17.378,17.378,0,0,0,10.916,0l14-4.595a9.171,9.171,0,0,1,11.915,7.273l8.852,51.69a1,1,0,0,1-.813,1.154A228.129,228.129,0,0,1,64,89ZM25.914,83.758a225.521,225.521,0,0,0,76.172,0L93.4,33.041a7.171,7.171,0,0,0-9.319-5.7l-14,4.6a19.38,19.38,0,0,1-12.162,0l-14-4.6A7.171,7.171,0,0,0,34.6,33.03Z" fill="#2f3a5a"/><path d="M103.24,84.573a225.364,225.364,0,0,1-78.48,0L27.1,70.933a222.986,222.986,0,0,0,73.808,0Z" fill="#e1b378"/><path d="M103.24,84.573a225.576,225.576,0,0,1-45.12,3.36,227.191,227.191,0,0,0,33.35-3.36l-2.06-12.03q5.73-.66,11.49-1.61Z" fill="#d0aa79"/><path d="M64,89a227.935,227.935,0,0,1-39.413-3.441,1,1,0,0,1-.813-1.154L26.11,70.764a.991.991,0,0,1,1.15-.817,220.969,220.969,0,0,0,73.48,0,.987.987,0,0,1,1.15.817l2.336,13.641a1,1,0,0,1-.813,1.154A227.935,227.935,0,0,1,64,89ZM25.914,83.758a225.366,225.366,0,0,0,76.172,0l-2-11.678a222.708,222.708,0,0,1-72.172,0Z" fill="#2f3a5a"/></g></svg>
