<?xml version="1.0" encoding="UTF-8"?>
<svg xmlns="http://www.w3.org/2000/svg" viewBox="0 0 128 128" width="512" height="512"><g id="icon"><path d="M125.62,68.472c-.655-2.156-1.444-4.542-2.368-7.648-2.517-8.454-1.037-28.435-.32-36.3a3,3,0,0,0-2.987-3.266H77.811a2.992,2.992,0,0,0-2.989,3.228,48.154,48.154,0,0,1-4.044,23.458C64.445,61.966,33.684,73.5,25.541,73.5h-.083c-2.451-.006-5.319-.2-8.239-.16a26.167,26.167,0,0,0-8.168,1.193A12.071,12.071,0,0,0,1.775,80.92a15.281,15.281,0,0,0-.886,2.3c-2.74,9.079,1.527,12.448,3.76,13.545a2.678,2.678,0,0,0,2.207.077l2.4-.956,1.38,2.932a2.72,2.72,0,0,0,1.341,1.328l5.71,2.612a2.752,2.752,0,0,0,2.529-.135l2.611-1.533,2.49,3.843,10.176,1.81,2.714-3.395,4.28,2.92a2.766,2.766,0,0,0,1.547.475h5.544a2.746,2.746,0,0,0,1.867-.732l2.143-1.982C65.125,95.588,84.124,98.6,84.124,98.6l2.361,5.441a2.212,2.212,0,0,0,2.041,1.341h9.837a2.213,2.213,0,0,0,1.565-.648l2.74-2.739,3.934,2.946a2.219,2.219,0,0,0,1.327.441h6.595a2.221,2.221,0,0,0,2.055-1.379l1.469-3.593,2.4,1.86a2.227,2.227,0,0,0,2.759-.032l2.926-2.367a2.216,2.216,0,0,0,.815-1.527L128,86.843C128,77.552,127.2,73.708,125.62,68.472Z" fill="#f0c191"/><path d="M35.493,107.746a.94.94,0,0,1-.175-.015l-10.176-1.81a1,1,0,0,1-.664-.44l-1.97-3.04-1.786,1.049a3.739,3.739,0,0,1-3.446.183l-5.715-2.613A3.731,3.731,0,0,1,9.73,99.246l-.978-2.079-1.525.608A3.682,3.682,0,0,1,4.2,97.663c-2.278-1.118-7.266-4.8-4.27-14.728a16.445,16.445,0,0,1,.943-2.452,12.977,12.977,0,0,1,7.849-6.9,26.7,26.7,0,0,1,8.482-1.248c1.716-.027,3.386.031,5,.083,1.139.038,2.233.075,3.254.077,7.938,0,38.331-11.516,44.405-24.967a47.2,47.2,0,0,0,3.959-22.963,3.992,3.992,0,0,1,3.987-4.313h42.133a4,4,0,0,1,3.983,4.357c-.734,8.054-2.174,27.68.282,35.928.551,1.852,1.054,3.448,1.509,4.891.307.976.593,1.883.858,2.752h0C128.252,73.718,129,77.727,129,86.843l-1.057,11.6a3.22,3.22,0,0,1-1.182,2.214l-2.925,2.367a3.219,3.219,0,0,1-4,.047l-1.362-1.057-.971,2.376a3.208,3.208,0,0,1-2.98,2h-6.595a3.238,3.238,0,0,1-1.927-.64l-3.24-2.427-2.127,2.127a3.194,3.194,0,0,1-2.272.94H88.526a3.206,3.206,0,0,1-2.961-1.95l-2.134-4.918c-3.131-.4-19.2-1.992-29.206,5.288l-2.1,1.943a3.74,3.74,0,0,1-2.547,1H44.034a3.752,3.752,0,0,1-2.106-.645l-3.518-2.4-2.136,2.669A1,1,0,0,1,35.493,107.746Zm2.715-5.393a1,1,0,0,1,.563.174l4.28,2.919a1.751,1.751,0,0,0,.983.3h5.544a1.747,1.747,0,0,0,1.188-.464l2.143-1.984a1.022,1.022,0,0,1,.088-.072c11.739-8.593,30.491-5.735,31.284-5.609a1,1,0,0,1,.761.588l2.361,5.442a1.212,1.212,0,0,0,1.123.739h9.837a1.207,1.207,0,0,0,.858-.354l2.739-2.741a1,1,0,0,1,1.307-.093l3.935,2.946a1.206,1.206,0,0,0,.727.242h6.595a1.216,1.216,0,0,0,1.129-.758l1.469-3.593a1,1,0,0,1,1.539-.412l2.4,1.862a1.226,1.226,0,0,0,1.518-.021L125.5,99.1a1.214,1.214,0,0,0,.448-.835L127,86.752c0-8.829-.693-12.545-2.341-17.99-.263-.863-.546-1.764-.851-2.732-.458-1.452-.964-3.058-1.519-4.921-2.555-8.581-1.1-28.51-.357-36.681a2,2,0,0,0-1.991-2.175H77.812a1.99,1.99,0,0,0-1.479.649,1.948,1.948,0,0,0-.515,1.5,49.246,49.246,0,0,1-4.129,23.952C65.195,62.733,33.955,74.5,25.542,74.5c-1.126,0-2.241-.04-3.4-.078-1.592-.053-3.238-.113-4.906-.082a24.783,24.783,0,0,0-7.855,1.138,11.072,11.072,0,0,0-6.7,5.88,14.318,14.318,0,0,0-.829,2.157c-2.462,8.159.975,11.246,3.243,12.36a1.685,1.685,0,0,0,1.39.048l2.406-.958a1,1,0,0,1,1.275.5l1.38,2.933a1.738,1.738,0,0,0,.852.845l5.711,2.611a1.744,1.744,0,0,0,1.6-.087l2.614-1.534a1,1,0,0,1,1.346.318l2.253,3.479,9.163,1.629,2.344-2.93A1,1,0,0,1,38.208,102.353Z" fill="#2f3a5a"/><path d="M77.811,21.253a2.992,2.992,0,0,0-2.989,3.228,48.154,48.154,0,0,1-4.044,23.458C64.445,61.966,33.684,73.5,25.541,73.5h-.083c-2.451-.006-5.319-.2-8.239-.16L30.893,80.8s17.186-.986,37.7-14.867C88,52.8,88.417,21.253,88.417,21.253Z" fill="#e8b98e"/><path d="M30.893,81.8a1,1,0,0,1-.479-.122L16.74,74.214a1,1,0,0,1,.464-1.878c1.721-.025,3.387.03,5,.083,1.139.038,2.233.075,3.254.077,7.938,0,38.331-11.516,44.405-24.967a47.2,47.2,0,0,0,3.959-22.963,3.992,3.992,0,0,1,3.987-4.313H88.417a1,1,0,0,1,1,1.013A79.931,79.931,0,0,1,86.75,38.925c-3.372,12.7-9.456,22.329-17.593,27.834-20.51,13.876-37.494,15-38.207,15.037Zm-9.658-7.409,9.875,5.389c2.276-.207,18.3-2.073,36.926-14.675,16.813-11.374,19.054-37.392,19.34-42.85H77.812a1.99,1.99,0,0,0-1.479.649,1.948,1.948,0,0,0-.515,1.5,49.246,49.246,0,0,1-4.129,23.952C65.195,62.733,33.955,74.5,25.542,74.5c-1.126,0-2.241-.04-3.4-.078Z" fill="#2f3a5a"/><path d="M33.536,99.733,7,89.332,1.775,80.92a12.071,12.071,0,0,1,7.276-6.391c5.2-1.809,11.614-1.039,16.407-1.033-.334,1.264-.116,3.485,5.062,4.222,7.386,1.059,17.036,1.361,19.449,7.694S33.536,99.733,33.536,99.733Z" fill="#fcc99a"/><path d="M33.536,100.734a1.007,1.007,0,0,1-.365-.07L6.633,90.263a1,1,0,0,1-.485-.4L.925,81.448a1,1,0,0,1-.052-.961,12.98,12.98,0,0,1,7.851-6.9c4.238-1.474,9.121-1.311,13.429-1.166,1.159.039,2.271.077,3.306.078a1,1,0,0,1,.966,1.256,1.508,1.508,0,0,0,.168,1.281c.527.8,1.972,1.4,4.069,1.695.958.138,1.953.262,2.966.389,7.014.876,14.963,1.87,17.275,7.938,2.679,7.031-14.957,14.743-16.977,15.6A1.01,1.01,0,0,1,33.536,100.734ZM7.672,88.523l25.847,10.13c6.937-3,17-9,15.515-12.885-1.884-4.946-9.2-5.86-15.654-6.667-1.025-.128-2.033-.254-3-.393-2.745-.391-4.58-1.255-5.452-2.57a3.371,3.371,0,0,1-.562-1.654c-.733-.015-1.5-.04-2.279-.067-4.132-.138-8.817-.3-12.706,1.057a11.061,11.061,0,0,0-6.459,5.4Z" fill="#2f3a5a"/><path d="M125.62,68.472l-6.352,2.2a3.116,3.116,0,0,0-1.579,1.221l-2.041,3.063a3.125,3.125,0,0,1-1.44,1.169l-7.041,2.816a3.122,3.122,0,0,1-2.224.037l-15.2-5.5a3.127,3.127,0,0,0-1.776-.1L77.258,75.877a3.124,3.124,0,0,0-2.412,3.042,3.125,3.125,0,0,1-2.16,2.972L58.72,86.425a3.128,3.128,0,0,1-2.475-.237l-4.21-2.323a3.12,3.12,0,0,0-2.429-.251L39.933,86.59a3.135,3.135,0,0,0-1.4.889l-2.793,3.084a3.12,3.12,0,0,1-2.316,1.028H31.206a3.124,3.124,0,0,1-2.526-1.286l-1.686-2.316a3.114,3.114,0,0,0-2.618-1.284c-4.351.136-15.939-.181-15.569-7.44.1-1.989.18-3.536.244-4.736a12.341,12.341,0,0,0-8.162,8.7C-1.852,92.3,2.417,95.672,4.648,96.772a2.716,2.716,0,0,0,2.205.078,2.746,2.746,0,0,1,3.5,1.376l.282.6a2.741,2.741,0,0,0,1.341,1.326l5.706,2.608a2.739,2.739,0,0,0,2.529-.13l.35-.2a2.741,2.741,0,0,1,3.69.873l.415.64a2.742,2.742,0,0,0,1.821,1.209l7.4,1.315a2.743,2.743,0,0,0,2.623-.987l.11-.137a2.743,2.743,0,0,1,3.687-.553l2.18,1.486a2.736,2.736,0,0,0,1.544.477h5.545a2.743,2.743,0,0,0,1.86-.728l2.151-1.986C65.125,95.588,84.124,98.6,84.124,98.6l2.358,5.442a2.225,2.225,0,0,0,2.041,1.34h9.83a2.223,2.223,0,0,0,1.572-.65l1.379-1.377a2.224,2.224,0,0,1,2.905-.206l2.389,1.789a2.221,2.221,0,0,0,1.334.444h6.588A2.224,2.224,0,0,0,116.579,104l.361-.881a2.224,2.224,0,0,1,3.421-.917l.086.067a2.225,2.225,0,0,0,2.763-.03l2.924-2.368a2.225,2.225,0,0,0,.816-1.526L128,86.843C128,77.552,127.2,73.708,125.62,68.472Z" fill="#d8b18c"/><path d="M128,86.363v.481l-1.05,11.509a2.2,2.2,0,0,1-.82,1.52l-2.92,2.371a2.227,2.227,0,0,1-2.76.03l-.09-.07a2.227,2.227,0,0,0-3.42.919l-.36.881a2.218,2.218,0,0,1-2.06,1.379h-6.59a2.184,2.184,0,0,1-1.33-.44l-2.39-1.79a2.227,2.227,0,0,0-2.91.21l-1.38,1.371a2.2,2.2,0,0,1-1.57.649H88.52a2.217,2.217,0,0,1-2.04-1.34L84.12,98.6s-19-3.02-30.53,5.431l-2.15,1.99a2.777,2.777,0,0,1-1.86.72H44.03a2.722,2.722,0,0,1-1.54-.47l-2.18-1.49a2.744,2.744,0,0,0-3.69.549l-.11.141a2.745,2.745,0,0,1-2.62.99l-7.4-1.321a2.706,2.706,0,0,1-1.82-1.21l-.42-.64a2.743,2.743,0,0,0-3.69-.87l-.35.21a2.742,2.742,0,0,1-2.52.131l-5.71-2.611a2.712,2.712,0,0,1-1.34-1.329l-.28-.6a2.752,2.752,0,0,0-3.51-1.371,2.724,2.724,0,0,1-2.2-.079C2.6,95.764-1.17,92.833.36,85.324a8.321,8.321,0,0,0,4.62,7.319,2.717,2.717,0,0,0,2.2.081A2.747,2.747,0,0,1,10.69,94.1l.28.59a2.748,2.748,0,0,0,1.34,1.331l5.71,2.609a2.758,2.758,0,0,0,2.53-.129l.35-.211a2.751,2.751,0,0,1,3.69.88l.41.64a2.748,2.748,0,0,0,1.82,1.211l7.4,1.309a2.721,2.721,0,0,0,2.62-.989l.11-.13a2.756,2.756,0,0,1,3.69-.561l2.18,1.49a2.716,2.716,0,0,0,1.54.48h5.55a2.739,2.739,0,0,0,1.86-.73l2.15-1.99c11.54-8.439,30.54-5.429,30.54-5.429l2.35,5.449a2.243,2.243,0,0,0,2.04,1.341h9.83a2.272,2.272,0,0,0,1.58-.651l1.38-1.379a2.222,2.222,0,0,1,2.9-.21l2.39,1.789a2.2,2.2,0,0,0,1.33.451h6.59a2.218,2.218,0,0,0,2.06-1.391l.36-.879a2.224,2.224,0,0,1,3.42-.911l.09.06a2.208,2.208,0,0,0,2.76-.03l2.93-2.359a2.236,2.236,0,0,0,.81-1.53Z" fill="#c6a283"/><path d="M49.577,107.746H44.032a3.723,3.723,0,0,1-2.108-.65l-2.179-1.485a1.753,1.753,0,0,0-2.343.35l-.111.138a3.742,3.742,0,0,1-3.578,1.347l-7.4-1.316a3.749,3.749,0,0,1-2.484-1.648l-.415-.642a1.736,1.736,0,0,0-2.344-.553l-.351.2a3.737,3.737,0,0,1-3.45.176l-5.707-2.608a3.741,3.741,0,0,1-1.83-1.81l-.281-.6a1.749,1.749,0,0,0-2.23-.874,3.727,3.727,0,0,1-3.016-.112c-2.283-1.124-7.27-4.811-4.274-14.733a13.273,13.273,0,0,1,8.792-9.351,1,1,0,0,1,1.325,1l-.243,4.734a4.221,4.221,0,0,0,1.226,3.341c2.975,3.035,10.3,3.136,13.313,3.047A4.04,4.04,0,0,1,27.8,87.4l1.685,2.317a2.135,2.135,0,0,0,1.719.874h2.22a2.131,2.131,0,0,0,1.575-.7l2.792-3.084a4.125,4.125,0,0,1,1.845-1.175l9.673-2.976a4.15,4.15,0,0,1,3.206.331l4.21,2.323a2.13,2.13,0,0,0,1.682.161L72.377,80.94a2.12,2.12,0,0,0,1.469-2.021A4.108,4.108,0,0,1,77.03,74.9l10.711-2.509a4.1,4.1,0,0,1,2.344.138l15.2,5.5a2.119,2.119,0,0,0,1.512-.026l7.041-2.815a2.114,2.114,0,0,0,.979-.8l2.042-3.064a4.136,4.136,0,0,1,2.085-1.611l6.35-2.2a1,1,0,0,1,1.285.655C128.252,73.718,129,77.727,129,86.843l-1.054,11.6a3.246,3.246,0,0,1-1.182,2.213l-2.925,2.368a3.21,3.21,0,0,1-4,.042L119.75,103a1.226,1.226,0,0,0-1.885.5l-.36.881a3.212,3.212,0,0,1-2.984,2h-6.589a3.243,3.243,0,0,1-1.932-.642l-2.39-1.791a1.235,1.235,0,0,0-1.6.114l-1.379,1.377a3.2,3.2,0,0,1-2.278.942h-9.83a3.225,3.225,0,0,1-2.959-1.942L83.43,99.518c-3.131-.4-19.2-1.993-29.206,5.288l-2.109,1.947A3.727,3.727,0,0,1,49.577,107.746Zm-10.806-4.433a3.72,3.72,0,0,1,2.1.645l2.18,1.486a1.734,1.734,0,0,0,.981.3h5.545a1.743,1.743,0,0,0,1.182-.461L52.91,103.3a.977.977,0,0,1,.087-.072c11.739-8.593,30.491-5.735,31.284-5.609a1,1,0,0,1,.761.589l2.357,5.443a1.225,1.225,0,0,0,1.124.737h9.83a1.222,1.222,0,0,0,.866-.357l1.379-1.377a3.241,3.241,0,0,1,4.211-.3l2.389,1.79a1.232,1.232,0,0,0,.734.244h6.589a1.22,1.22,0,0,0,1.133-.761l.36-.88a3.225,3.225,0,0,1,4.96-1.329l.085.066a1.218,1.218,0,0,0,1.522-.016l2.924-2.368a1.234,1.234,0,0,0,.449-.84L127,86.752c0-8.28-.61-12.062-2.045-16.993L119.6,71.615a2.118,2.118,0,0,0-1.073.829l-2.043,3.064a4.11,4.11,0,0,1-1.9,1.543l-7.042,2.816a4.123,4.123,0,0,1-2.935.048l-15.2-5.5a2.143,2.143,0,0,0-1.208-.071L77.486,76.85a2.117,2.117,0,0,0-1.64,2.069A4.115,4.115,0,0,1,73,82.842L59.028,87.375a4.13,4.13,0,0,1-3.266-.312l-4.21-2.322A2.126,2.126,0,0,0,49.9,84.57l-9.673,2.976a2.137,2.137,0,0,0-.95.6l-2.793,3.084a4.129,4.129,0,0,1-3.057,1.356h-2.22a4.141,4.141,0,0,1-3.335-1.7l-1.686-2.317a2.151,2.151,0,0,0-1.778-.873c-4.065.138-11.4-.175-14.8-3.646a6.2,6.2,0,0,1-1.795-4.844l.162-3.166a11.4,11.4,0,0,0-6.124,7.465c-2.462,8.152.975,11.244,3.243,12.361a1.723,1.723,0,0,0,1.393.047,3.754,3.754,0,0,1,4.778,1.88l.281.6a1.75,1.75,0,0,0,.853.844L18.1,101.85a1.759,1.759,0,0,0,1.607-.083l.35-.2a3.733,3.733,0,0,1,5.036,1.191l.414.642a1.752,1.752,0,0,0,1.157.767l7.4,1.315a1.757,1.757,0,0,0,1.667-.628l.111-.138A3.744,3.744,0,0,1,38.771,103.313Z" fill="#2f3a5a"/><path d="M46.137,71.711a1,1,0,0,1-.867-.5l-2.4-4.165a1,1,0,1,1,1.732-1L47,70.211a1,1,0,0,1-.865,1.5Z" fill="#2f3a5a"/><path d="M56.089,66.936a1,1,0,0,1-.836-.45l-3.075-4.67a1,1,0,1,1,1.67-1.1l3.075,4.67a1,1,0,0,1-.834,1.55Z" fill="#2f3a5a"/><path d="M64.332,61.514a1,1,0,0,1-.763-.352l-3.693-4.347A1,1,0,0,1,61.4,55.52l3.693,4.347a1,1,0,0,1-.762,1.647Z" fill="#2f3a5a"/><path d="M71.31,54.3a1,1,0,0,1-.666-.254l-4.169-3.724a1,1,0,0,1,1.332-1.493l4.169,3.725A1,1,0,0,1,71.31,54.3Z" fill="#2f3a5a"/><path d="M76.546,44.269a.994.994,0,0,1-.483-.125l-4.893-2.7a1,1,0,1,1,.967-1.75l4.893,2.7a1,1,0,0,1-.484,1.875Z" fill="#2f3a5a"/></g></svg>
