<svg height="512" viewBox="0 0 128 128" width="512" xmlns="http://www.w3.org/2000/svg"><g id="icon"><circle cx="64" cy="64.665" fill="#ffc943" r="30.542" transform="matrix(.997 -.071 .071 .997 -4.423 4.7)"/><path d="m94.545 64.664a30.552 30.552 0 0 1 -57.409 14.559 30.545 30.545 0 0 0 48.038-36.57 30.442 30.442 0 0 1 9.371 22.011z" fill="#f7b521"/><path d="m64 96.206a31.542 31.542 0 1 1 31.542-31.542 31.577 31.577 0 0 1 -31.542 31.542zm0-61.084a29.542 29.542 0 1 0 29.542 29.542 29.575 29.575 0 0 0 -29.542-29.542z" fill="#2f3a5a"/><path d="m64 31.045a1 1 0 0 1 -1-1v-8.909a1 1 0 1 1 2 0v8.909a1 1 0 0 1 -1 1z" fill="#2f3a5a"/><path d="m107.528 65.664h-8.909a1 1 0 0 1 0-2h8.909a1 1 0 0 1 0 2z" fill="#2f3a5a"/><path d="m29.381 65.664h-8.909a1 1 0 1 1 0-2h8.909a1 1 0 0 1 0 2z" fill="#2f3a5a"/><path d="m88.479 41.185a1 1 0 0 1 -.707-1.707l6.3-6.3a1 1 0 0 1 1.414 1.414l-6.3 6.3a1 1 0 0 1 -.707.293z" fill="#2f3a5a"/><path d="m33.221 95.444 6.3-6.3" fill="#ffc943"/><path d="m33.221 96.444a1 1 0 0 1 -.707-1.707l6.3-6.3a1 1 0 0 1 1.415 1.414l-6.3 6.3a1 1 0 0 1 -.708.293z" fill="#2f3a5a"/><path d="m88.479 89.144 6.3 6.3" fill="#ffc943"/><g fill="#2f3a5a"><path d="m94.779 96.444a1 1 0 0 1 -.707-.293l-6.3-6.3a1 1 0 0 1 1.415-1.414l6.3 6.3a1 1 0 0 1 -.707 1.707z"/><path d="m39.521 41.185a1 1 0 0 1 -.708-.293l-6.3-6.3a1 1 0 0 1 1.414-1.414l6.3 6.3a1 1 0 0 1 -.707 1.707z"/><path d="m50.752 33.681a1 1 0 0 1 -.924-.617l-3.409-8.232a1 1 0 0 1 1.848-.765l3.409 8.233a1 1 0 0 1 -.924 1.383z"/><path d="m95.984 52.416a1 1 0 0 1 -.383-1.923l8.231-3.41a1 1 0 0 1 .766 1.848l-8.231 3.409a1 1 0 0 1 -.383.076z"/><path d="m77.248 33.681a1 1 0 0 1 -.924-1.383l3.409-8.231a1 1 0 0 1 1.848.765l-3.409 8.232a1 1 0 0 1 -.924.617z"/><path d="m32.016 52.416a1 1 0 0 1 -.383-.076l-8.233-3.409a1 1 0 0 1 .766-1.848l8.231 3.41a1 1 0 0 1 -.383 1.923z"/></g><path d="m120.1 71.358a9.457 9.457 0 0 0 -6.786-.744l-12.964 3.445a9.467 9.467 0 0 1 -6.579-.64l-4.193-2.059a9.467 9.467 0 0 0 -7.108-.482l-8.58 2.831a9.459 9.459 0 0 1 -7.348-.6l-2.815-1.487a9.46 9.46 0 0 0 -7.633-.5l-6 2.2a9.425 9.425 0 0 1 -8.469-1.022 9.425 9.425 0 0 0 -8.393-1.035l-6.109 2.176a9.438 9.438 0 0 1 -8.1-.845l-.724-.448a9.44 9.44 0 0 0 -8.421-.723l-8.878 3.544v6.422h126v-6.422z" fill="#6bb3d9"/><path d="m1 75.968a1 1 0 0 1 -.37-1.929l8.88-3.539a10.423 10.423 0 0 1 9.318.8l.723.448a8.454 8.454 0 0 0 7.237.752l6.112-2.173a10.4 10.4 0 0 1 9.289 1.149 8.388 8.388 0 0 0 7.567.895l6-2.2a10.43 10.43 0 0 1 8.444.559l2.816 1.488a8.463 8.463 0 0 0 6.566.538l8.581-2.83a10.511 10.511 0 0 1 7.862.533l4.192 2.06a8.435 8.435 0 0 0 5.881.57l12.964-3.445a10.379 10.379 0 0 1 7.507.826l6.9 3.609a1 1 0 1 1 -.926 1.772l-6.9-3.609a8.5 8.5 0 0 0 -6.066-.665l-12.964 3.446a10.444 10.444 0 0 1 -7.276-.709l-4.193-2.06a8.5 8.5 0 0 0 -6.353-.429l-8.591 2.833a10.468 10.468 0 0 1 -8.128-.669l-2.812-1.489a8.441 8.441 0 0 0 -6.822-.449l-6 2.2a10.4 10.4 0 0 1 -9.375-1.116 8.394 8.394 0 0 0 -7.5-.922l-6.109 2.176a10.466 10.466 0 0 1 -8.96-.937l-.72-.452a8.425 8.425 0 0 0 -7.524-.643l-8.88 3.543a.981.981 0 0 1 -.37.068z" fill="#2f3a5a"/><path d="m120.1 76.906a9.453 9.453 0 0 0 -6.786-.745l-12.964 3.445a9.467 9.467 0 0 1 -6.579-.64l-4.192-2.059a9.467 9.467 0 0 0 -7.108-.482l-8.58 2.831a9.459 9.459 0 0 1 -7.348-.6l-2.815-1.487a9.456 9.456 0 0 0 -7.633-.5l-6 2.2a9.428 9.428 0 0 1 -8.471-1.007 9.428 9.428 0 0 0 -8.393-1.035l-6.109 2.176a9.438 9.438 0 0 1 -8.1-.845l-.722-.458a9.443 9.443 0 0 0 -8.421-.723l-8.879 3.539v6.422h126v-6.422z" fill="#4fa4d1"/><path d="m120.1 82.453a9.458 9.458 0 0 0 -6.786-.745l-12.964 3.445a9.467 9.467 0 0 1 -6.579-.639l-4.192-2.06a9.467 9.467 0 0 0 -7.108-.482l-8.581 2.828a9.459 9.459 0 0 1 -7.348-.6l-2.815-1.487a9.456 9.456 0 0 0 -7.633-.5l-6 2.2a9.428 9.428 0 0 1 -8.469-1.013 9.428 9.428 0 0 0 -8.393-1.035l-6.109 2.176a9.441 9.441 0 0 1 -8.1-.844l-.724-.449a9.443 9.443 0 0 0 -8.421-.723l-8.878 3.538v6.422h126v-6.422z" fill="#6bb3d9"/><path d="m120.1 88.843a9.458 9.458 0 0 0 -6.786-.745l-12.964 3.445a9.467 9.467 0 0 1 -6.58-.643l-4.192-2.06a9.471 9.471 0 0 0 -7.108-.482l-8.58 2.831a9.459 9.459 0 0 1 -7.348-.6l-2.815-1.489a9.456 9.456 0 0 0 -7.633-.5l-6 2.2a9.428 9.428 0 0 1 -8.471-1.007 9.428 9.428 0 0 0 -8.393-1.035l-6.109 2.176a9.441 9.441 0 0 1 -8.1-.844l-.724-.449a9.44 9.44 0 0 0 -8.421-.722l-8.876 3.534v6.422h126v-6.422z" fill="#4fa4d1"/><path d="m120.1 94.39a9.458 9.458 0 0 0 -6.786-.745l-12.965 3.445a9.462 9.462 0 0 1 -6.579-.639l-4.192-2.059a9.462 9.462 0 0 0 -7.108-.482l-8.58 2.83a9.459 9.459 0 0 1 -7.348-.6l-2.815-1.487a9.464 9.464 0 0 0 -7.633-.5l-6 2.2a9.428 9.428 0 0 1 -8.471-1.007 9.431 9.431 0 0 0 -8.391-1.046l-6.109 2.176a9.441 9.441 0 0 1 -8.1-.844l-.724-.449a9.44 9.44 0 0 0 -8.421-.722l-8.878 3.539v6.423h126v-6.423z" fill="#6bb3d9"/></g></svg>