<svg height="512" viewBox="0 0 128 128" width="512" xmlns="http://www.w3.org/2000/svg"><g id="icon"><path d="m60.22 42.979-56.548 58.883a6.407 6.407 0 0 0 .091 8.968l14.294 14.294a6.406 6.406 0 0 0 8.967.09l58.883-56.547z" fill="#84879c"/><path d="m85.911 68.662-58.885 56.553a6.415 6.415 0 0 1 -8.967-.089l-3.249-3.248a6.407 6.407 0 0 0 8.348-.443l58.875-56.553-21.853-21.853.039-.049z" fill="#707583"/><path d="m21.7 127.985a7.382 7.382 0 0 1 -5.238-2.155l-14.293-14.293a7.447 7.447 0 0 1 -.1-10.368l56.542-58.882a1 1 0 0 1 .712-.307 1.145 1.145 0 0 1 .717.293l25.688 25.686a1 1 0 0 1 -.015 1.429l-58.883 56.548a7.384 7.384 0 0 1 -5.13 2.049zm37.648-83.576-55.84 58.145a5.435 5.435 0 0 0 .075 7.568l14.3 14.294a5.433 5.433 0 0 0 7.567.077l58.142-55.841z" fill="#384868"/><path d="m79.112 74.341 21.596-2.835-20.204-27.396-24.01-16.818-2.835 21.596z" fill="#84879c"/><path d="m100.707 71.507-21.598 2.835-25.446-25.456.069-.492 22.729 22.739 21.598-2.835-18.133-24.599.581.413z" fill="#707583"/><path d="m79.111 75.341a1 1 0 0 1 -.707-.293l-25.452-25.448a1 1 0 0 1 -.284-.837l2.835-21.6a1 1 0 0 1 1.564-.69l24.011 16.817a1.037 1.037 0 0 1 .232.226l20.2 27.4a1 1 0 0 1 -.675 1.585l-21.6 2.835a.947.947 0 0 1 -.124.005zm-24.396-26.811 24.755 24.756 19.43-2.55-19.1-25.9-22.529-15.78z" fill="#384868"/><path d="m117.469 48.75-19.1-19.1-.011-.011-19.1-19.1a4.241 4.241 0 0 0 -6 0l-16.764 16.753 22.1 22.1.01.01 22.1 22.1 16.761-16.76a4.241 4.241 0 0 0 .004-5.992z" fill="#84879c"/><g fill="#384868"><path d="m100.708 72.506a.993.993 0 0 1 -.707-.293l-44.214-44.213a1 1 0 0 1 0-1.414l16.76-16.761a5.236 5.236 0 0 1 7.41 0l38.219 38.217a5.247 5.247 0 0 1 0 7.411l-16.761 16.76a.993.993 0 0 1 -.707.293zm-42.8-45.215 42.8 42.8 16.054-16.054a3.246 3.246 0 0 0 0-4.582l-38.219-38.216a3.316 3.316 0 0 0 -4.582 0z"/><path d="m113.076 49.13a1.631 1.631 0 0 0 -2.307 0l-12.185 12.185a1.632 1.632 0 0 0 2.308 2.307l12.184-12.185a1.631 1.631 0 0 0 0-2.307z"/><path d="m108.318 44.372a1.631 1.631 0 0 0 -2.307 0l-12.185 12.184a1.632 1.632 0 0 0 2.307 2.308l12.185-12.185a1.631 1.631 0 0 0 0-2.307z"/><path d="m103.559 39.613a1.631 1.631 0 0 0 -2.307 0l-12.185 12.187a1.632 1.632 0 0 0 2.308 2.307l12.184-12.187a1.631 1.631 0 0 0 0-2.307z"/><path d="m98.8 34.855a1.631 1.631 0 0 0 -2.307 0l-12.184 12.184a1.632 1.632 0 0 0 2.307 2.308l12.184-12.185a1.631 1.631 0 0 0 0-2.307z"/><path d="m94.042 30.1a1.631 1.631 0 0 0 -2.307 0l-12.185 12.181a1.632 1.632 0 0 0 2.308 2.307l12.184-12.188a1.631 1.631 0 0 0 0-2.3z"/><path d="m89.284 25.338a1.631 1.631 0 0 0 -2.307 0l-12.185 12.184a1.632 1.632 0 0 0 2.308 2.308l12.184-12.185a1.631 1.631 0 0 0 0-2.307z"/><path d="m84.525 20.579a1.631 1.631 0 0 0 -2.307 0l-12.185 12.185a1.632 1.632 0 1 0 2.308 2.307l12.184-12.185a1.631 1.631 0 0 0 0-2.307z"/><path d="m79.767 15.821a1.631 1.631 0 0 0 -2.307 0l-12.185 12.184a1.632 1.632 0 0 0 2.307 2.308l12.185-12.185a1.631 1.631 0 0 0 0-2.307z"/><path d="m108.421 20.579a1 1 0 0 1 -.707-1.707l7.513-7.513a1 1 0 0 1 1.414 1.414l-7.513 7.514a1 1 0 0 1 -.707.292z"/><path d="m127 39.782h-10.625a1 1 0 0 1 0-2h10.625a1 1 0 0 1 0 2z"/><path d="m89.218 12.625a1 1 0 0 1 -1-1v-10.625a1 1 0 0 1 2 0v10.625a1 1 0 0 1 -1 1z"/><path d="m99.61 14.692a1 1 0 0 1 -.923-1.383l4.066-9.815a1 1 0 0 1 1.848.765l-4.067 9.816a1 1 0 0 1 -.924.617z"/><path d="m114.308 29.389a1 1 0 0 1 -.383-1.924l9.816-4.065a1 1 0 1 1 .766 1.847l-9.817 4.066a.99.99 0 0 1 -.382.076z"/><rect height="14.004" rx="1.401" transform="matrix(.707 -.707 .707 .707 -46.613 55.673)" width="21.84" x="32.977" y="77.101"/></g><circle cx="46.714" cy="81.206" fill="#ffc943" r="4.3"/></g></svg>