<svg id="icon" height="512" viewBox="0 0 128 128" width="512" xmlns="http://www.w3.org/2000/svg"><path d="m92.901 57.535h7.386v12.171h-7.386z" fill="#84879c"/><path d="m100.286 70.706h-7.386a1 1 0 0 1 -1-1v-12.171a1 1 0 0 1 1-1h7.386a1 1 0 0 1 1 1v12.171a1 1 0 0 1 -1 1zm-6.386-2h5.386v-10.171h-5.386z" fill="#2f3a5a"/><path d="m78.635 127h-34.228l-2-27.37h38.228z" fill="#d0aa79"/><path d="m78.636 128h-34.229a1 1 0 0 1 -1-.927l-2-27.37a1 1 0 0 1 1-1.073h38.229a1 1 0 0 1 1 1.073l-2 27.37a1 1 0 0 1 -1 .927zm-33.3-2h32.37l1.854-25.37h-36.077z" fill="#2f3a5a"/><path d="m80.635 28.37h-38.228l2-27.37h34.228z" fill="#d0aa79"/><path d="m80.636 29.37h-38.229a1 1 0 0 1 -1-1.073l2-27.37a1 1 0 0 1 1-.927h34.229a1 1 0 0 1 1 .927l2 27.37a1 1 0 0 1 -1 1.073zm-37.152-2h36.076l-1.854-25.37h-32.369z" fill="#2f3a5a"/><path d="m85.971 26.831a3.1 3.1 0 0 0 -3.032-2.474h-42.839a3.1 3.1 0 0 0 -3.032 2.474l-3.834 18.742h56.575z" fill="#84879c"/><path d="m89.809 46.573h-56.576a1 1 0 0 1 -.979-1.2l3.838-18.743a4.109 4.109 0 0 1 4.008-3.273h42.839a4.109 4.109 0 0 1 4.012 3.273l3.837 18.743a1 1 0 0 1 -.979 1.2zm-55.35-2h54.124l-3.591-17.542a2.1 2.1 0 0 0 -2.053-1.674h-42.839a2.1 2.1 0 0 0 -2.053 1.674z" fill="#2f3a5a"/><path d="m37.071 101.169a3.1 3.1 0 0 0 3.032 2.474h42.836a3.1 3.1 0 0 0 3.032-2.474l3.837-18.743h-56.574z" fill="#84879c"/><path d="m82.939 104.643h-42.839a4.109 4.109 0 0 1 -4.012-3.273l-3.834-18.743a1 1 0 0 1 .979-1.2h56.576a1 1 0 0 1 .979 1.2l-3.837 18.743a4.109 4.109 0 0 1 -4.012 3.273zm-44.889-3.674a2.1 2.1 0 0 0 2.053 1.674h42.836a2.1 2.1 0 0 0 2.053-1.674l3.591-17.542h-54.124z" fill="#2f3a5a"/><circle cx="61.521" cy="64" fill="#84879c" r="33.808"/><path d="m61.521 98.808a34.808 34.808 0 1 1 34.808-34.808 34.847 34.847 0 0 1 -34.808 34.808zm0-67.615a32.808 32.808 0 1 0 32.808 32.807 32.845 32.845 0 0 0 -32.808-32.808z" fill="#2f3a5a"/><circle cx="61.521" cy="64" fill="#dbe2eb" r="27.031"/><g fill="#2f3a5a"><path d="m61.521 92.031a28.031 28.031 0 1 1 28.032-28.031 28.063 28.063 0 0 1 -28.032 28.031zm0-54.062a26.031 26.031 0 1 0 26.032 26.031 26.061 26.061 0 0 0 -26.032-26.031z"/><path d="m61.521 41.057a1 1 0 0 1 -1-1v-3.088a1 1 0 0 1 2 0v3.088a1 1 0 0 1 -1 1z"/><path d="m61.521 92.031a1 1 0 0 1 -1-1v-3.088a1 1 0 0 1 2 0v3.088a1 1 0 0 1 -1 1z"/><path d="m88.553 65h-3.088a1 1 0 0 1 0-2h3.088a1 1 0 0 1 0 2z"/><path d="m37.578 65h-3.088a1 1 0 0 1 0-2h3.088a1 1 0 0 1 0 2z"/></g><path d="m80.635 44.886-2.183 2.183" fill="#dbe2eb"/><path d="m78.452 48.069a1 1 0 0 1 -.707-1.707l2.184-2.184a1 1 0 0 1 1.414 1.414l-2.184 2.184a1 1 0 0 1 -.707.293z" fill="#2f3a5a"/><path d="m44.591 80.931-2.184 2.183" fill="#dbe2eb"/><path d="m42.407 84.114a1 1 0 0 1 -.707-1.707l2.184-2.184a1 1 0 0 1 1.416 1.415l-2.184 2.184a1 1 0 0 1 -.709.292z" fill="#2f3a5a"/><path d="m80.635 83.114-2.183-2.183" fill="#dbe2eb"/><path d="m80.636 84.114a1 1 0 0 1 -.707-.293l-2.184-2.184a1 1 0 0 1 1.414-1.414l2.184 2.184a1 1 0 0 1 -.707 1.707z" fill="#2f3a5a"/><path d="m44.591 47.069-2.184-2.183" fill="#dbe2eb"/><path d="m44.591 48.069a1 1 0 0 1 -.707-.293l-2.184-2.183a1 1 0 0 1 1.414-1.414l2.186 2.183a1 1 0 0 1 -.707 1.707z" fill="#2f3a5a"/><path d="m61.521 44.886v19.114h-14.692" fill="#dbe2eb"/><path d="m61.521 65h-14.692a1 1 0 0 1 0-2h13.692v-18.114a1 1 0 0 1 2 0v19.114a1 1 0 0 1 -1 1z" fill="#2f3a5a"/><circle cx="61.719" cy="63.412" fill="#dbe2eb" r="2.589"/><path d="m61.72 67a3.589 3.589 0 1 1 3.589-3.589 3.594 3.594 0 0 1 -3.589 3.589zm0-5.178a1.589 1.589 0 1 0 1.589 1.589 1.591 1.591 0 0 0 -1.589-1.588z" fill="#2f3a5a"/></svg>